<?xml version="1.0" encoding="UTF-8"?>
<svg version="1.1" xmlns="http://www.w3.org/2000/svg" width="512" height="512">
<path d="M0 0 C1.18785013 0.62947348 2.36855853 1.27255184 3.54296875 1.92675781 C4.18487152 2.27141586 4.82677429 2.61607391 5.48812866 2.97117615 C7.57550533 4.09567831 9.6528296 5.23750564 11.73046875 6.37988281 C13.18251555 7.16653584 14.63515784 7.95209063 16.08837891 8.73657227 C19.66893006 10.67308452 23.24173791 12.62335551 26.81164551 14.57940674 C29.47666317 16.03839328 32.14647801 17.48850015 34.81640625 18.93847656 C38.31990952 20.84360153 41.81942487 22.75578442 45.31640625 24.67285156 C51.437358 28.0236134 57.58380157 31.32659938 63.73046875 34.62988281 C72.63870153 39.41843352 81.52855694 44.23877899 90.40234375 49.09082031 C97.49636972 52.96588074 104.6108855 56.8020149 111.73046875 60.62988281 C114.99155901 62.38572387 118.25241617 64.14199699 121.51318359 65.8984375 C123.65594448 67.05160643 125.79949863 68.20330258 127.94384766 69.35351562 C130.97944729 70.98260351 134.01154692 72.61803718 137.04296875 74.25488281 C137.94982422 74.73957031 138.85667969 75.22425781 139.79101562 75.72363281 C141.05461914 76.408125 141.05461914 76.408125 142.34375 77.10644531 C143.07376221 77.49912598 143.80377441 77.89180664 144.5559082 78.29638672 C147.26724716 79.95904905 149.45763765 81.36915521 151.73046875 83.62988281 C152.24263772 86.37085627 152.42440781 88.5034562 152.39230347 91.24569702 C152.40292568 92.01667272 152.4135479 92.78764842 152.424492 93.58198702 C152.45382414 96.16785177 152.44736494 98.7523739 152.44091797 101.33837891 C152.45424038 103.1912947 152.46963121 105.04419661 152.48693848 106.89707947 C152.5268695 111.93230948 152.53443986 116.96709708 152.53382254 122.00246763 C152.53560134 126.20483599 152.55151641 130.40710659 152.56694424 134.60944331 C152.60248061 144.5235428 152.61022632 154.43741097 152.60205078 164.3515625 C152.59420805 174.58119955 152.63817671 184.80971365 152.70685184 195.03909814 C152.76368073 203.8197278 152.78579109 212.59999343 152.78061688 221.38080466 C152.77803761 226.62614936 152.78925294 231.87056774 152.83486557 237.1157341 C152.87646406 242.04928415 152.87480653 246.98095378 152.83990479 251.91453743 C152.83439725 253.72455555 152.84424637 255.53469561 152.87060928 257.34453011 C153.05664763 271.03490938 153.05664763 271.03490938 149.761693 274.99769688 C147.45781647 276.56139596 145.31679052 277.62106965 142.73046875 278.62988281 C141.71267334 279.27014404 140.69487793 279.91040527 139.64624023 280.57006836 C138.72399658 281.12992432 137.80175293 281.68978027 136.8515625 282.26660156 C135.78172119 282.91661133 134.71187988 283.56662109 133.60961914 284.23632812 C132.46247352 284.93013072 131.3152546 285.62381213 130.16796875 286.31738281 C128.94848071 287.05663136 127.72899843 287.7958894 126.50952148 288.53515625 C116.45288206 294.6231134 106.34178948 300.61812197 96.22409058 306.60385132 C87.3572341 311.85150221 78.55049799 317.17770933 69.81420898 322.64086914 C61.21490477 327.99578725 52.49289776 333.140664 43.77459717 338.2984314 C33.00517545 344.67037894 22.28689562 351.11778403 11.61328125 357.64941406 C10.80793945 358.13748535 10.00259766 358.62555664 9.17285156 359.12841797 C7.46524385 360.17817681 5.7728862 361.25296735 4.09277344 362.34619141 C3.22813477 362.89742676 2.36349609 363.44866211 1.47265625 364.01660156 C0.70550293 364.51764404 -0.06165039 365.01868652 -0.85205078 365.53491211 C-3.96178131 366.94342973 -5.87767034 367.04974651 -9.26953125 366.62988281 C-11.63023528 365.53341368 -13.68086295 364.43666108 -15.87109375 363.07128906 C-16.49650055 362.69595535 -17.12190735 362.32062164 -17.76626587 361.93391418 C-19.81680951 360.69912653 -21.85545867 359.44600629 -23.89453125 358.19238281 C-25.33230041 357.32158485 -26.77078748 356.4519712 -28.20996094 355.58349609 C-31.87536567 353.36765357 -35.53147407 351.13694817 -39.1854248 348.90228271 C-42.32489912 346.98555393 -45.47280211 345.08286249 -48.62109375 343.18066406 C-56.08420274 338.66751823 -63.5315241 334.12860767 -70.97802734 329.58813477 C-74.99064272 327.14171159 -79.00438434 324.69714908 -83.01953125 322.25488281 C-83.58862213 321.90862854 -84.15771301 321.56237427 -84.74404907 321.20562744 C-95.03729314 314.94683821 -105.39433693 308.79846665 -115.76199341 302.66397095 C-126.62846099 296.2312998 -137.40690173 289.6713926 -148.11279297 282.97412109 C-152.4128517 280.29400751 -156.74129758 277.65993311 -161.06640625 275.02050781 C-163.26953125 273.62988281 -163.26953125 273.62988281 -164.26953125 272.62988281 C-164.37829282 270.19804093 -164.421772 267.79416602 -164.4234314 265.3613739 C-164.42781365 264.59155034 -164.4321959 263.82172679 -164.43671095 263.02857524 C-164.45014775 260.42912266 -164.4562887 257.82970402 -164.46240234 255.23022461 C-164.47029945 253.37452031 -164.47856815 251.51881756 -164.48718262 249.66311646 C-164.51344728 243.55179317 -164.52871432 237.44046288 -164.54296875 231.32910156 C-164.54832654 229.22885445 -164.55370404 227.12860738 -164.5591011 225.02836037 C-164.58073603 216.29470635 -164.59947437 207.56105423 -164.6107235 198.82738018 C-164.6269724 186.29244986 -164.66016607 173.75782908 -164.71712434 161.22301549 C-164.75576917 152.41960853 -164.77534969 143.61628456 -164.78064406 134.81279498 C-164.78430492 129.54981196 -164.79640394 124.28715873 -164.8287468 119.0242672 C-164.85873159 114.07398924 -164.86517365 109.12424227 -164.85336304 104.17389297 C-164.8531415 102.354975 -164.86151264 100.53603308 -164.87901688 98.71719933 C-164.90158799 96.23726794 -164.89347139 93.75928168 -164.87753296 91.27934265 C-164.89141505 90.55628691 -164.90529713 89.83323117 -164.91959989 89.08826464 C-164.86113415 85.40670958 -164.56856261 83.93264554 -161.94025612 81.27154255 C-158.72573266 79.29561691 -155.46755227 77.45544903 -152.1171875 75.72363281 C-151.08535088 75.1817054 -151.08535088 75.1817054 -150.03266907 74.62882996 C-148.56299804 73.8575521 -147.09209066 73.08862627 -145.62005615 72.3218689 C-141.75144446 70.30644883 -137.89206274 68.27347159 -134.03125 66.24316406 C-133.26798401 65.84241165 -132.50471802 65.44165924 -131.71832275 65.02876282 C-125.6632763 61.84679585 -119.64166587 58.60731688 -113.64453125 55.31738281 C-112.78996338 54.84880859 -111.93539551 54.38023438 -111.05493164 53.89746094 C-109.34346854 52.95871247 -107.63212344 52.01974884 -105.92089844 51.08056641 C-101.04627843 48.41344006 -96.15708238 45.77321389 -91.26953125 43.12988281 C-83.6358674 38.99977452 -76.01067939 34.85469633 -68.39453125 30.69238281 C-59.27972858 25.71226599 -50.14265564 20.77429684 -40.98583984 15.87182617 C-35.60880694 12.98860046 -30.25523022 10.07354452 -24.94140625 7.07519531 C-23.94238281 6.51574219 -22.94335938 5.95628906 -21.9140625 5.37988281 C-20.03568858 4.3253571 -18.16289249 3.26080996 -16.296875 2.18457031 C-15.03810547 1.48074219 -15.03810547 1.48074219 -13.75390625 0.76269531 C-13.02913086 0.34906738 -12.30435547 -0.06456055 -11.55761719 -0.49072266 C-7.25352915 -2.14494002 -4.21975101 -1.76831262 0 0 Z M-14.88671875 11.92675781 C-15.53145142 12.27141586 -16.17618408 12.61607391 -16.8404541 12.97117615 C-18.94618863 14.09947548 -21.04532185 15.23949635 -23.14453125 16.37988281 C-24.60592397 17.16611283 -26.06767809 17.95167148 -27.52978516 18.73657227 C-31.78252554 21.02304604 -36.02704254 23.32445615 -40.26953125 25.62988281 C-41.33816406 26.2097998 -42.40679687 26.7897168 -43.5078125 27.38720703 C-47.96188962 29.80694079 -52.41045188 32.23652063 -56.85546875 34.67285156 C-62.97642074 38.02361354 -69.12287792 41.32657321 -75.26953125 44.62988281 C-84.21933551 49.44122399 -93.15329217 54.28004204 -102.06884766 59.15454102 C-107.88275085 62.33215259 -113.70685911 65.49025443 -119.53662109 68.63867188 C-129.83856842 74.20318011 -140.09335272 79.83844003 -150.26953125 85.62988281 C-150.26953125 86.28988281 -150.26953125 86.94988281 -150.26953125 87.62988281 C-149.61694336 87.96608643 -148.96435547 88.30229004 -148.29199219 88.64868164 C-146.32572086 89.6629815 -144.36057439 90.67946338 -142.39624023 91.69750977 C-140.12889329 92.86913355 -137.85748945 94.03293676 -135.58227539 95.18920898 C-130.12585894 97.98649788 -124.8277619 100.82699749 -119.71875 104.22363281 C-112.08854184 109.63102995 -112.08854184 109.63102995 -103.23242188 111.51806641 C-98.79384754 110.30380247 -95.19877071 107.77093747 -91.47949219 105.13769531 C-88.25295649 102.93629402 -84.85301243 101.09322568 -81.43579102 99.20654297 C-78.49109159 97.57963999 -75.56895645 95.91695169 -72.6484375 94.24707031 C-65.80676845 90.35312459 -58.91655286 86.54945261 -52.01953125 82.75488281 C-49.55068208 81.3956879 -47.08197491 80.03623516 -44.61328125 78.67675781 C-44.00161606 78.33998016 -43.38995087 78.00320251 -42.75975037 77.65621948 C-15.83112579 62.82442667 10.98075659 47.78157795 37.73046875 32.62988281 C35.14137174 29.65636118 32.16424565 28.09744824 28.69921875 26.26660156 C28.10806274 25.95213577 27.51690674 25.63766998 26.90783691 25.31367493 C25.01805655 24.30976405 23.12443052 23.31337877 21.23046875 22.31738281 C19.37227247 21.33376014 17.51489605 20.34860532 15.65771484 19.36306763 C14.43893118 18.71730297 13.21920749 18.07330925 11.99853516 17.43112183 C7.28010757 14.94458411 2.6353619 12.34039737 -1.98242188 9.67211914 C-7.01840107 7.37722213 -10.47092927 9.50860302 -14.88671875 11.92675781 Z M41.55859375 40.23535156 C40.51405029 40.7997998 39.46950684 41.36424805 38.39331055 41.94580078 C37.26707275 42.56342285 36.14083496 43.18104492 34.98046875 43.81738281 C33.79940674 44.45978845 32.61817063 45.1018741 31.43676758 45.74365234 C23.11630802 50.27496255 14.85607704 54.91129415 6.62109375 59.59594727 C-1.0583625 63.96147718 -8.7811104 68.24517933 -16.51953125 72.50488281 C-17.75188061 73.18349628 -18.98422109 73.86212585 -20.21655273 74.54077148 C-20.8272612 74.87708084 -21.43796967 75.2133902 -22.06718445 75.55989075 C-22.67794327 75.89623032 -23.28870209 76.23256989 -23.91796875 76.57910156 C-24.52917068 76.91564255 -25.14037262 77.25218353 -25.77009583 77.59892273 C-41.61273744 86.32470409 -57.41485443 95.12156753 -73.15014648 104.03955078 C-81.82791873 108.95538983 -90.54439608 113.79860962 -99.26953125 118.62988281 C-99.26953125 128.52988281 -99.26953125 138.42988281 -99.26953125 148.62988281 C-95.32053229 150.76998548 -91.37035057 152.90749822 -87.41650391 155.03857422 C-86.07129426 155.7646171 -84.72688821 156.49215089 -83.38330078 157.22119141 C-81.45423307 158.26758607 -79.5223586 159.3086214 -77.58984375 160.34863281 C-76.9877005 160.6767395 -76.38555725 161.00484619 -75.76516724 161.34289551 C-72.69103529 163.08664874 -72.69103529 163.08664874 -69.26953125 163.62988281 C-69.34921143 162.75364258 -69.4288916 161.87740234 -69.51098633 160.97460938 C-71.3070551 137.05015332 -71.3070551 137.05015332 -66.62841797 130.24169922 C-61.95122165 126.24254825 -56.25685882 124.1875088 -50.56933594 122 C-45.12722846 119.74037384 -40.08662218 116.77235516 -34.97753906 113.85684204 C-31.89710447 112.10999397 -28.78913663 110.41358452 -25.68359375 108.71191406 C-8.97913452 99.52740136 7.66688688 90.23716556 24.29321289 80.91210938 C32.15604686 76.50448732 40.03508486 72.12648542 47.91796875 67.75488281 C56.89273777 62.77682495 65.84704626 57.76945997 74.73046875 52.62988281 C70.89962754 48.37925576 65.70014741 46.13323561 60.73046875 43.44238281 C59.71984375 42.88357422 58.70921875 42.32476562 57.66796875 41.74902344 C56.69859375 41.22115234 55.72921875 40.69328125 54.73046875 40.14941406 C53.84359375 39.66577393 52.95671875 39.18213379 52.04296875 38.68383789 C47.73781872 36.72170395 45.4746315 38.10752882 41.55859375 40.23535156 Z M78.2578125 59.94628906 C77.37254883 60.45530762 76.48728516 60.96432617 75.57519531 61.48876953 C74.13611816 62.33205811 74.13611816 62.33205811 72.66796875 63.19238281 C70.57875203 64.3952954 68.48888171 65.59707338 66.3984375 66.79785156 C65.30450684 67.42868652 64.21057617 68.05952148 63.08349609 68.70947266 C57.57915811 71.86202272 52.02997866 74.9327678 46.48046875 78.00488281 C44.19397624 79.27305035 41.90751817 80.54128 39.62109375 81.80957031 C37.91276367 82.75654785 37.91276367 82.75654785 36.16992188 83.72265625 C30.52144774 86.85481695 24.87608078 89.99256715 19.23046875 93.12988281 C12.4578374 96.89305553 5.68482452 100.65553431 -1.08984375 104.41503906 C-13.33727055 111.21302732 -25.57527779 118.0270301 -37.78759766 124.88793945 C-44.25529275 128.51761213 -50.75063875 132.09298614 -57.26953125 135.62988281 C-54.73437398 138.5161203 -51.89725402 140.0631127 -48.51953125 141.85253906 C-47.36211426 142.46943604 -46.20469727 143.08633301 -45.01220703 143.72192383 C-43.76493965 144.37929632 -42.51737514 145.03610533 -41.26953125 145.69238281 C-39.36199552 146.69929272 -37.45479888 147.7068427 -35.54763794 148.71446228 C-34.27353179 149.38732715 -32.99901542 150.05941582 -31.72409058 150.73072815 C-27.91946025 152.73870177 -24.15040168 154.79866273 -20.40234375 156.91113281 C-19.54511719 157.38671631 -18.68789062 157.8622998 -17.8046875 158.35229492 C-16.23867583 159.22302406 -14.68075317 160.10852222 -13.1328125 161.01098633 C-12.43800781 161.39182373 -11.74320313 161.77266113 -11.02734375 162.16503906 C-10.44098145 162.49898682 -9.85461914 162.83293457 -9.25048828 163.17700195 C-4.43757798 164.27731605 0.5144843 160.82504064 4.6328125 158.61035156 C5.75856689 158.00682861 6.88432129 157.40330566 8.04418945 156.78149414 C9.25223921 156.12701795 10.46016261 155.47230848 11.66796875 154.81738281 C12.92594361 154.13974074 14.18400136 153.46225251 15.44213867 152.78491211 C24.14746866 148.08594012 32.76562567 143.24307687 41.35522461 138.33569336 C48.85050567 134.07423443 56.46725355 130.08406128 64.13085938 126.13549805 C70.69081421 122.73869497 77.1345576 119.17865057 83.54296875 115.50488281 C94.94966081 108.96929321 106.55828652 102.83475357 118.19458008 96.72119141 C118.90592606 96.34711655 119.61727203 95.97304169 120.35017395 95.58763123 C121.67971472 94.88893923 123.0098941 94.19146037 124.34086609 93.49549866 C128.52625516 91.29796882 132.63716802 88.99476235 136.73046875 86.62988281 C133.55619394 83.0673447 130.02522915 80.95388458 125.83203125 78.80175781 C125.16062103 78.44905823 124.48921082 78.09635864 123.79745483 77.73297119 C121.65371394 76.6082506 119.50496489 75.49355877 117.35546875 74.37988281 C114.55404516 72.92004062 111.7552126 71.45530295 108.95703125 69.98925781 C108.26981995 69.63118042 107.58260864 69.27310303 106.87457275 68.9041748 C103.44295922 67.10479731 100.05328255 65.25894073 96.70996094 63.29980469 C96.07416107 62.9274469 95.43836121 62.55508911 94.78329468 62.17144775 C93.05000785 61.14718451 91.32429187 60.11014046 89.59912109 59.07226562 C85.05024781 56.78505343 82.42405841 57.51848297 78.2578125 59.94628906 Z M-155.26953125 94.62988281 C-155.92547159 116.89064007 -156.41823522 139.1497923 -156.72027206 161.41827297 C-156.86429056 171.76009207 -157.06032535 182.09588825 -157.38183594 192.43383789 C-157.6621604 201.45182575 -157.84182648 210.46545375 -157.9040091 219.48767716 C-157.94034388 224.26180749 -158.02468437 229.02347615 -158.22997284 233.79357719 C-159.74656764 252.30036693 -159.74656764 252.30036693 -154.04725075 269.29768991 C-147.76518093 275.96198996 -139.2971124 279.56866896 -130.96995068 282.99079514 C-124.764311 285.61536054 -119.18305987 289.38987547 -113.51953125 293.00488281 C-112.22819125 293.79655415 -110.93476032 294.58484791 -109.63745117 295.36669922 C-108.62271729 295.98206543 -107.6079834 296.59743164 -106.5625 297.23144531 C-97.99740754 302.41785135 -89.37575027 307.50876329 -80.75793457 312.60687256 C-71.90699673 317.84513449 -63.11606287 323.16183235 -54.39501953 328.61450195 C-46.06851529 333.79857129 -37.6400776 338.8093237 -29.20703125 343.81738281 C-28.49305176 344.24196777 -27.77907227 344.66655273 -27.04345703 345.10400391 C-25.00396272 346.31620508 -22.96319408 347.52622629 -20.921875 348.73535156 C-20.30928329 349.09932541 -19.69669159 349.46329926 -19.0655365 349.83830261 C-16.17069563 351.54870899 -13.28081683 353.12424002 -10.26953125 354.62988281 C-10.26953125 294.23988281 -10.26953125 233.84988281 -10.26953125 171.62988281 C-18.51953125 167.33988281 -26.76953125 163.04988281 -35.26953125 158.62988281 C-39.40656884 156.39633465 -43.53538182 154.16203133 -47.64453125 151.87988281 C-49.44276529 150.88284216 -51.2421866 149.88793886 -53.04296875 148.89550781 C-53.78981934 148.48075195 -54.53666992 148.06599609 -55.30615234 147.63867188 C-57.38930226 146.50535736 -57.38930226 146.50535736 -60.26953125 145.62988281 C-60.28935059 146.4676123 -60.30916992 147.3053418 -60.32958984 148.16845703 C-60.40763737 151.27354115 -60.4943276 154.3782282 -60.58691406 157.48291016 C-60.64407161 159.48875252 -60.69121721 161.49487199 -60.73828125 163.50097656 C-60.77695313 164.7578125 -60.815625 166.01464844 -60.85546875 167.30957031 C-60.9026001 169.05343018 -60.9026001 169.05343018 -60.95068359 170.83251953 C-61.26953125 173.62988281 -61.26953125 173.62988281 -63.26953125 175.62988281 C-67.85355103 175.3273788 -71.62169543 173.06780182 -75.58203125 170.91894531 C-76.27337158 170.55014252 -76.96471191 170.18133972 -77.67700195 169.80136108 C-79.87779886 168.62522406 -82.07358956 167.44005538 -84.26953125 166.25488281 C-85.74579161 165.46525518 -87.22235126 164.67618682 -88.69921875 163.88769531 C-99.49336395 158.10909921 -99.49336395 158.10909921 -103.1015625 155.88134766 C-105.14101056 154.46323737 -105.14101056 154.46323737 -107.26953125 154.62988281 C-107.14215576 153.13376465 -107.14215576 153.13376465 -107.01220703 151.60742188 C-105.02082814 133.59390827 -105.02082814 133.59390827 -110.10546875 116.98779297 C-115.07706704 112.84793303 -120.97346075 110.8386458 -127.04589844 108.80761719 C-132.65714082 106.75758437 -137.78509087 103.79636153 -143.01953125 100.94238281 C-144.94918801 99.93342116 -146.88127509 98.92908595 -148.81640625 97.93066406 C-149.62948242 97.50954346 -150.44255859 97.08842285 -151.28027344 96.65454102 C-152.60595306 95.9716891 -153.9357507 95.29677309 -155.26953125 94.62988281 Z M135.00390625 97.11035156 C134.31345215 97.4743808 133.62299805 97.83841003 132.91162109 98.21347046 C130.64145348 99.41205435 128.37330424 100.61439273 126.10546875 101.81738281 C124.94135468 102.43370071 124.94135468 102.43370071 123.75372314 103.06246948 C113.55798441 108.46404506 103.44760091 113.98286683 93.43725586 119.72216797 C83.90478898 125.15934924 74.20248447 130.26715061 64.50146484 135.39477539 C63.13896711 136.11501432 61.7764993 136.83530988 60.4140625 137.55566406 C59.7499939 137.90675735 59.08592529 138.25785065 58.4017334 138.61958313 C50.04705464 143.042385 41.76049749 147.58859115 33.47119141 152.13232422 C27.30342449 155.50245448 21.11731192 158.83894185 14.93359375 162.1796875 C13.99386719 162.68790039 13.05414063 163.19611328 12.0859375 163.71972656 C11.26762451 164.16179443 10.44931152 164.6038623 9.60620117 165.05932617 C5.63568344 167.22779044 1.68522122 169.4327981 -2.26953125 171.62988281 C-2.26953125 232.01988281 -2.26953125 292.40988281 -2.26953125 354.62988281 C6.87942962 349.64487307 6.87942962 349.64487307 15.890625 344.45019531 C16.51424423 344.0807077 17.13786346 343.71122009 17.78038025 343.33053589 C19.78595961 342.14096248 21.78959143 340.94816041 23.79296875 339.75488281 C24.84133911 339.13178223 24.84133911 339.13178223 25.91088867 338.49609375 C36.290895 332.32527942 46.59830778 326.04809955 56.86401367 319.6887207 C65.38628593 314.42310163 73.9833286 309.29229848 82.60546875 304.19238281 C93.01219254 298.03562248 103.39508897 291.84329357 113.73046875 285.56738281 C114.80796387 284.91390869 115.88545898 284.26043457 116.99560547 283.5871582 C119.05071827 282.3369145 121.09596552 281.07024772 123.12895203 279.784338 C125.6265586 278.2396456 128.15857996 276.91651102 130.80747986 275.65053749 C139.1751861 271.4711684 139.1751861 271.4711684 144.18069458 263.94338608 C144.89922419 259.47441812 144.71387233 255.02858026 144.546875 250.52197266 C144.54235518 248.80623805 144.5449082 247.09047256 144.55395508 245.37475586 C144.5585268 240.74051665 144.46482987 236.11297043 144.35277176 231.48028135 C144.25239916 226.63064737 144.24332566 221.78084075 144.22436523 216.93032837 C144.1747334 207.75645322 144.04358507 198.58564734 143.8827734 189.41312087 C143.70361427 178.96612266 143.61588543 168.51897379 143.53564644 158.07082057 C143.36863133 136.58879809 143.08741008 115.10953415 142.73046875 93.62988281 C140.19032509 93.62988281 137.25950744 95.91581821 135.00390625 97.11035156 Z " fill="#313537" transform="translate(262.26953125,73.3701171875)"/>
<path d="M0 0 C1.32 5.61 2.64 11.22 4 17 C8.48415202 15.878962 9.6238804 14.70153664 12.75 11.4375 C13.54921875 10.61121094 14.3484375 9.78492188 15.171875 8.93359375 C15.77515625 8.29550781 16.3784375 7.65742188 17 7 C27.40952801 15.49757389 27.40952801 15.49757389 31 21 C31.21169467 24.31654983 30.39769519 26.17108742 28.98046875 29.125 C26.4619986 34.39331919 25.53711954 37.27038487 27 43 C27.85464844 43.13277344 28.70929688 43.26554687 29.58984375 43.40234375 C30.69457031 43.57894531 31.79929687 43.75554687 32.9375 43.9375 C34.03964844 44.11152344 35.14179688 44.28554688 36.27734375 44.46484375 C39 45 39 45 40 46 C40.08700342 47.63472882 40.10701063 49.27314055 40.09765625 50.91015625 C40.09282227 52.39418945 40.09282227 52.39418945 40.08789062 53.90820312 C40.07532227 55.46958008 40.07532227 55.46958008 40.0625 57.0625 C40.05798828 58.10728516 40.05347656 59.15207031 40.04882812 60.22851562 C40.03699913 62.8190666 40.02051689 65.40950559 40 68 C38.21046815 68.83790789 36.41830305 69.67019396 34.625 70.5 C33.62726563 70.9640625 32.62953125 71.428125 31.6015625 71.90625 C29 73 29 73 27 73 C26.15942296 81.40577035 28.88361355 86.75957026 33 94 C31.24202184 96.65458717 29.46653613 99.29698861 27.6875 101.9375 C27.18798828 102.69224609 26.68847656 103.44699219 26.17382812 104.22460938 C25.68720703 104.94326172 25.20058594 105.66191406 24.69921875 106.40234375 C24.25408936 107.06741943 23.80895996 107.73249512 23.3503418 108.41772461 C22 110 22 110 19 111 C16.60137754 109.58644717 14.47154793 107.93105494 12.25390625 106.25 C10.08942573 104.75536352 10.08942573 104.75536352 7.71484375 105.3125 C7.14894531 105.539375 6.58304687 105.76625 6 106 C5.79503906 107.13179688 5.59007812 108.26359375 5.37890625 109.4296875 C5.10693028 110.91148761 4.83478613 112.39325685 4.5625 113.875 C4.42779297 114.62136719 4.29308594 115.36773437 4.15429688 116.13671875 C3.11328125 121.7734375 3.11328125 121.7734375 2 124 C0.14233398 124.41064453 0.14233398 124.41064453 -2.25390625 124.6328125 C-3.10791016 124.71660156 -3.96191406 124.80039062 -4.84179688 124.88671875 C-5.73962891 124.96535156 -6.63746094 125.04398437 -7.5625 125.125 C-8.46419922 125.21136719 -9.36589844 125.29773438 -10.29492188 125.38671875 C-12.52929918 125.59951659 -14.76413615 125.80354467 -17 126 C-17.50744423 124.10614563 -18.00564574 122.20981334 -18.5 120.3125 C-18.7784375 119.25675781 -19.056875 118.20101562 -19.34375 117.11328125 C-19.9391715 114.28857328 -20.12786492 111.87163292 -20 109 C-24.68191549 109.45738073 -26.63104174 111.19110394 -29.8125 114.5625 C-30.60269531 115.38878906 -31.39289063 116.21507812 -32.20703125 117.06640625 C-32.79871094 117.70449219 -33.39039063 118.34257812 -34 119 C-37.3326532 117.57904457 -39.23606522 115.8834126 -41.5625 113.125 C-42.14128906 112.44695312 -42.72007812 111.76890625 -43.31640625 111.0703125 C-43.87199219 110.38710938 -44.42757813 109.70390625 -45 109 C-45.85078125 107.96552734 -45.85078125 107.96552734 -46.71875 106.91015625 C-48 105 -48 105 -47.9375 102.3125 C-47.13137534 99.46419288 -46.1632589 97.20185969 -44.875 94.5625 C-42.81140405 90.18292586 -42.81305473 87.64886897 -44 83 C-48.29 82.34 -52.58 81.68 -57 81 C-57 73.41 -57 65.82 -57 58 C-55.22625 57.175 -53.4525 56.35 -51.625 55.5 C-50.62726563 55.0359375 -49.62953125 54.571875 -48.6015625 54.09375 C-46 53 -46 53 -44 53 C-43.15942296 44.59422965 -45.88361355 39.24042974 -50 32 C-48.27222987 29.31830106 -46.51434916 26.65774733 -44.75 24 C-44.25886719 23.236875 -43.76773437 22.47375 -43.26171875 21.6875 C-42.77832031 20.965625 -42.29492188 20.24375 -41.796875 19.5 C-41.35698242 18.8296875 -40.91708984 18.159375 -40.46386719 17.46875 C-39.98079102 16.9840625 -39.49771484 16.499375 -39 16 C-34.60405194 16 -33.36556338 16.71648628 -29.75 19 C-28.85796875 19.556875 -27.9659375 20.11375 -27.046875 20.6875 C-26.37140625 21.120625 -25.6959375 21.55375 -25 22 C-21.61711278 17.1003291 -21.25618795 12.66889537 -20.625 6.86328125 C-20 4 -20 4 -17 2 C-14.6802889 1.54832548 -12.34317887 1.18254223 -10 0.875 C-8.7625 0.70742187 -7.525 0.53984375 -6.25 0.3671875 C-3 0 -3 0 0 0 Z M-12 12 C-12.39176782 14.85260592 -12.39176782 14.85260592 -12.5 18.125 C-13.03491615 22.50644954 -13.45546027 24.44139161 -16.5703125 27.63671875 C-19.31369024 29.59076146 -22.05415738 31.36944163 -25 33 C-25.61488281 32.62746094 -26.22976563 32.25492187 -26.86328125 31.87109375 C-27.67152344 31.39800781 -28.47976563 30.92492187 -29.3125 30.4375 C-30.11300781 29.96183594 -30.91351563 29.48617188 -31.73828125 28.99609375 C-34.09158479 27.657319 -34.09158479 27.657319 -37 29 C-38.73563855 30.99452003 -38.73563855 30.99452003 -39 34 C-37.97595137 36.12355357 -37.97595137 36.12355357 -36.5625 38.3125 C-33.64748914 43.10484123 -33.71780116 45.69957171 -35 51 C-35.07089844 51.79019531 -35.14179688 52.58039063 -35.21484375 53.39453125 C-35.51092959 55.9051769 -35.82894789 57.75395865 -37 60 C-39.87951021 61.67426067 -42.76330635 62.32367595 -46 63 C-46.99 63.495 -46.99 63.495 -48 64 C-48 66.97 -48 69.94 -48 73 C-44.37 73.33 -40.74 73.66 -37 74 C-36.23319803 76.46710199 -35.47235923 78.9363558 -34.75390625 81.41796875 C-34.21282848 83.27109002 -33.62212971 85.10999399 -33 86.9375 C-33 91.36632823 -34.98918349 94.56175847 -37.06640625 98.4140625 C-38.29694272 100.95881874 -38.29694272 100.95881874 -37.15234375 103.3359375 C-36.77207031 103.88507813 -36.39179688 104.43421875 -36 105 C-32.98601529 105.3214614 -32.98601529 105.3214614 -31.17578125 103.46875 C-30.25345703 102.49421875 -30.25345703 102.49421875 -29.3125 101.5 C-28.68988281 100.8503125 -28.06726563 100.200625 -27.42578125 99.53125 C-26.95527344 99.0259375 -26.48476563 98.520625 -26 98 C-25.40832031 98.20496094 -24.81664062 98.40992188 -24.20703125 98.62109375 C-20.16339184 99.9997571 -16.23144751 101.31750847 -12 102 C-11.93941406 102.67546875 -11.87882812 103.3509375 -11.81640625 104.046875 C-11.73261719 104.93890625 -11.64882813 105.8309375 -11.5625 106.75 C-11.48128906 107.63171875 -11.40007812 108.5134375 -11.31640625 109.421875 C-11.03761535 111.69350452 -10.61209423 113.79851823 -10 116 C-8.68 116 -7.36 116 -6 116 C-5.87882812 115.43152344 -5.75765625 114.86304688 -5.6328125 114.27734375 C-5.28262122 112.66377008 -4.91847468 111.05318352 -4.54296875 109.4453125 C-4.09270025 107.41748458 -3.75074005 105.36596256 -3.4375 103.3125 C-1.37086758 98.55026008 2.20955342 95.94440385 7 94 C10.12460094 94.28405463 11.589612 94.676664 14.0625 96.625 C15.89285508 98.2049729 15.89285508 98.2049729 18.125 98 C20.1551936 97.08003373 20.1551936 97.08003373 21.5625 95 C22.08884004 91.39081117 21.4512607 90.75103088 19.5625 87.75 C16.50420796 82.74703313 16.72498721 79.56925585 18 74 C18.185625 72.14375 18.185625 72.14375 18.375 70.25 C20.95926742 65.08146517 25.75725947 63.90246605 31 62 C31 59.03 31 56.06 31 53 C30.25234375 52.98324219 29.5046875 52.96648437 28.734375 52.94921875 C25.51060188 52.66650566 22.98728523 52.26616256 20 51 C17.00901088 46.7180887 16 42.11285673 16 36.9375 C17.49313838 32.55140601 19.18834158 28.26371701 21 24 C19.68 22.68 18.36 21.36 17 20 C14.36 22.64 11.72 25.28 9 28 C6.52604167 27.25130208 4.05208333 26.50260417 1.578125 25.75390625 C-0.60565835 25.11531506 -2.78835498 24.53224167 -5 24 C-5.06058594 23.40832031 -5.12117188 22.81664062 -5.18359375 22.20703125 C-5.62012371 18.09021792 -6.08671346 14.04455467 -7 10 C-9.32357511 9.81509993 -9.32357511 9.81509993 -12 12 Z " fill="#313537" transform="translate(344,232)"/>
<path d="M0 0 C4.95365507 2.42274833 7.51302427 6.5431586 9.9140625 11.375 C12.21224968 18.26956155 12.07764637 27.71216102 9.2265625 34.4375 C6.00905464 40.43222516 2.48873366 44.9256127 -4.0859375 47.375 C-10.14070914 48.7422065 -14.67927855 48.64803941 -20.0859375 45.375 C-25.3711831 40.73287057 -27.7546319 35.87682318 -28.421875 28.82421875 C-28.52005941 19.36905973 -27.34144021 13.42664213 -22.2734375 5.5625 C-15.90954115 -0.80139635 -8.7293875 -2.61554682 0 0 Z M-13.8359375 10.5 C-18.93506629 17.01555346 -19.97160496 22.2220064 -19.0859375 30.375 C-17.81352369 34.12527228 -16.74517059 35.80485246 -13.7734375 38.375 C-11.08227963 39.63034152 -11.08227963 39.63034152 -8.0859375 38.875 C-3.88726834 36.77566542 -1.01959634 34.32066667 1.03125 30.046875 C2.6499001 25.14795169 3.11449087 19.24017336 1.0859375 14.3984375 C-0.4021295 12.14412705 -2.18000761 10.28092989 -4.0859375 8.375 C-8.40118958 7.80506105 -10.3427866 7.80074703 -13.8359375 10.5 Z " fill="#313537" transform="translate(344.0859375,271.625)"/>
</svg>
