<?xml version="1.0" encoding="UTF-8"?>
<svg version="1.1" xmlns="http://www.w3.org/2000/svg" width="512" height="512">
<path d="M0 0 C1.18329391 -0.00571014 2.36658783 -0.01142029 3.58573914 -0.01730347 C4.88555222 -0.01842133 6.1853653 -0.01953918 7.52456665 -0.02069092 C8.90604281 -0.02531977 10.28751769 -0.03034452 11.66899109 -0.03573608 C15.42316118 -0.04885471 19.17731339 -0.05530387 22.93150282 -0.05974674 C25.27686396 -0.06267804 27.62222021 -0.06678294 29.96757889 -0.07125092 C37.30546082 -0.08492379 44.64333158 -0.09459175 51.98122537 -0.09845281 C60.45233143 -0.10293465 68.92327622 -0.12048919 77.39433324 -0.1494534 C83.94219175 -0.17106497 90.49000486 -0.18115679 97.03789866 -0.18249393 C100.94879456 -0.18354224 104.85953882 -0.18945565 108.77039719 -0.20731354 C112.44925048 -0.22378547 116.12783799 -0.22595415 119.80671501 -0.21717453 C121.79888209 -0.21603639 123.79104032 -0.22976013 125.78315735 -0.243927 C127.56655769 -0.23557327 127.56655769 -0.23557327 129.38598633 -0.22705078 C130.41726339 -0.22851734 131.44854046 -0.2299839 132.51106834 -0.2314949 C135.78355874 0.2018263 137.66947057 1.2029782 140.31997681 3.14044189 C141.50119767 5.50288362 141.4532703 6.93274967 141.46714783 9.56802368 C141.47788078 10.96443336 141.47788078 10.96443336 141.48883057 12.38905334 C141.49151947 13.41351059 141.49420837 14.43796783 141.49697876 15.49346924 C141.50354996 16.56998245 141.51012115 17.64649567 141.51689148 18.75563049 C141.53665355 22.3292141 141.54829242 25.90275567 141.55825806 29.47637939 C141.56233358 30.69416706 141.56640911 31.91195473 141.57060814 33.16664505 C141.59147941 39.60973187 141.60577764 46.05279731 141.61514282 52.49591064 C141.62521286 59.16334591 141.66063396 65.83040256 141.70031452 72.49773216 C141.72640878 77.61403033 141.73482818 82.73024834 141.7384243 87.84660721 C141.74330739 90.30506262 141.75496993 92.76351405 141.7734623 95.22190475 C141.79770442 98.65774973 141.79691591 102.09272191 141.78994751 105.52862549 C141.8091626 107.05923866 141.8091626 107.05923866 141.82876587 108.62077332 C141.77764887 115.51541451 141.77764887 115.51541451 139.41560364 118.74118042 C135.93195956 121.06722859 133.94316261 121.26882025 129.76020813 121.28088379 C128.57828888 121.28659393 127.39636963 121.29230408 126.17863464 121.29818726 C124.87522629 121.29930511 123.57181793 121.30042297 122.22891235 121.30157471 C120.84758369 121.30620212 119.46625631 121.31122668 118.08493042 121.31661987 C114.32656902 121.32975415 110.5682255 121.33619094 106.80984473 121.34063053 C104.46231136 121.34355989 102.11478288 121.34766445 99.76725197 121.3521347 C92.42402725 121.36581297 85.08081372 121.37547775 77.73757714 121.3793366 C69.257971 121.3838169 60.77852608 121.40136206 52.29896897 121.43033719 C45.74688438 121.45194952 39.19484515 121.46204065 32.64272529 121.46337771 C28.72846109 121.46442616 24.81434839 121.47034218 20.90012169 121.48819733 C17.21717786 121.50467012 13.53449951 121.50683751 9.85153198 121.49805832 C7.85696993 121.49692016 5.86241673 121.51064407 3.86790466 121.52481079 C2.67752594 121.51924164 1.48714722 121.51367249 0.26069641 121.50793457 C-0.77187947 121.50940113 -1.80445536 121.51086769 -2.86832142 121.51237869 C-6.1682812 121.07585428 -8.01444957 120.10916973 -10.68002319 118.14044189 C-12.777039 114.99491818 -12.93232146 114.26130029 -12.94744873 110.67526245 C-12.9559787 109.76122147 -12.96450867 108.84718048 -12.97329712 107.90544128 C-12.97239075 106.90485184 -12.97148437 105.90426239 -12.97055054 104.87335205 C-12.97726776 103.81780624 -12.98398499 102.76226044 -12.99090576 101.67472839 C-13.0099442 98.17627285 -13.01381294 94.67800855 -13.01596069 91.17950439 C-13.02238458 88.75196248 -13.02911263 86.32442136 -13.03613281 83.8968811 C-13.04812024 78.80422165 -13.05181213 73.7116301 -13.05062866 68.61895752 C-13.0504254 62.08951501 -13.07772892 55.56050739 -13.11217308 49.03116798 C-13.13439789 44.01604203 -13.13846755 39.00102146 -13.13740921 33.98585129 C-13.13977178 31.5784696 -13.14863198 29.1710853 -13.16407394 26.76375198 C-13.18364372 23.39763081 -13.17793062 20.03245684 -13.16586304 16.6663208 C-13.17710205 15.66977982 -13.18834106 14.67323883 -13.19992065 13.64649963 C-13.16050436 9.32530455 -13.08371174 6.8184972 -10.8371582 3.04507446 C-7.36768298 -0.01828294 -4.45324389 0.01285454 0 0 Z M5.31997681 18.14044189 C5.31997681 23.42044189 5.31997681 28.70044189 5.31997681 34.14044189 C16.20997681 34.14044189 27.09997681 34.14044189 38.31997681 34.14044189 C38.31997681 28.86044189 38.31997681 23.58044189 38.31997681 18.14044189 C27.42997681 18.14044189 16.53997681 18.14044189 5.31997681 18.14044189 Z M56.31997681 18.14044189 C56.31997681 29.03044189 56.31997681 39.92044189 56.31997681 51.14044189 C61.59997681 51.14044189 66.87997681 51.14044189 72.31997681 51.14044189 C72.31997681 40.25044189 72.31997681 29.36044189 72.31997681 18.14044189 C67.03997681 18.14044189 61.75997681 18.14044189 56.31997681 18.14044189 Z M90.31997681 18.14044189 C90.31997681 23.42044189 90.31997681 28.70044189 90.31997681 34.14044189 C101.20997681 34.14044189 112.09997681 34.14044189 123.31997681 34.14044189 C123.31997681 28.86044189 123.31997681 23.58044189 123.31997681 18.14044189 C112.42997681 18.14044189 101.53997681 18.14044189 90.31997681 18.14044189 Z M5.31997681 52.14044189 C5.31997681 68.97044189 5.31997681 85.80044189 5.31997681 103.14044189 C44.25997681 103.14044189 83.19997681 103.14044189 123.31997681 103.14044189 C123.31997681 86.31044189 123.31997681 69.48044189 123.31997681 52.14044189 C112.42997681 52.14044189 101.53997681 52.14044189 90.31997681 52.14044189 C89.98997681 56.10044189 89.65997681 60.06044189 89.31997681 64.14044189 C86.31997681 68.14044189 86.31997681 68.14044189 84.34695435 68.63491821 C83.22468445 68.63064316 83.22468445 68.63064316 82.07974243 68.62628174 C81.22875977 68.632435 80.3777771 68.63858826 79.50100708 68.64492798 C78.58532959 68.63055695 77.6696521 68.61618591 76.72622681 68.60137939 C75.78315674 68.60046295 74.84008667 68.59954651 73.86843872 68.59860229 C71.87453173 68.59256028 69.88063407 68.57679631 67.88687134 68.55206299 C64.83168157 68.51558166 61.77770525 68.5110434 58.72232056 68.51153564 C56.78611214 68.50170362 54.84991195 68.49004624 52.91372681 68.47637939 C51.99804932 68.47415375 51.08237183 68.4719281 50.13894653 68.46963501 C49.28796387 68.45687531 48.4369812 68.4441156 47.56021118 68.43096924 C46.81203125 68.42334564 46.06385132 68.41572205 45.29299927 68.40786743 C43.31997681 68.14044189 43.31997681 68.14044189 40.31997681 66.14044189 C39.31997681 63.14044189 39.31997681 63.14044189 38.31997681 52.14044189 C27.42997681 52.14044189 16.53997681 52.14044189 5.31997681 52.14044189 Z " fill="#000000" transform="translate(370.6800231933594,378.85955810546875)"/>
<path d="M0 0 C1.18191925 -0.00571014 2.3638385 -0.01142029 3.58157349 -0.01730347 C4.88498184 -0.01842133 6.1883902 -0.01953918 7.53129578 -0.02069092 C8.91262444 -0.02531833 10.29395182 -0.03034289 11.67527771 -0.03573608 C15.43363911 -0.04887036 19.19198263 -0.05530715 22.9503634 -0.05974674 C25.29789677 -0.0626761 27.64542525 -0.06678067 29.99295616 -0.07125092 C37.33618088 -0.08492918 44.67939441 -0.09459396 52.02263099 -0.09845281 C60.50223713 -0.10293311 68.98168204 -0.12047827 77.46123916 -0.1494534 C84.01332375 -0.17106573 90.56536298 -0.18115686 97.11748284 -0.18249393 C101.03174704 -0.18354238 104.94585974 -0.18945839 108.86008644 -0.20731354 C112.54303027 -0.22378633 116.22570862 -0.22595372 119.90867615 -0.21717453 C121.9032382 -0.21603637 123.8977914 -0.22976028 125.89230347 -0.243927 C127.08268219 -0.23835785 128.27306091 -0.2327887 129.49951172 -0.22705078 C130.5320876 -0.22851734 131.56466349 -0.2299839 132.62852955 -0.2314949 C135.92848933 0.20502951 137.7746577 1.17171406 140.44023132 3.14044189 C142.53724713 6.28596561 142.69252959 7.0195835 142.70765686 10.60562134 C142.72045181 11.97668282 142.72045181 11.97668282 142.73350525 13.3754425 C142.73214569 14.87632668 142.73214569 14.87632668 142.73075867 16.40753174 C142.73747589 17.46307755 142.74419312 18.51862335 142.75111389 19.6061554 C142.77015233 23.10461094 142.77402107 26.60287523 142.77616882 30.10137939 C142.78259271 32.5289213 142.78932076 34.95646243 142.79634094 37.38400269 C142.80832837 42.47666214 142.81202026 47.56925369 142.81083679 52.66192627 C142.81063353 59.19136878 142.83793705 65.7203764 142.87238121 72.24971581 C142.89460602 77.26484176 142.89867568 82.27986233 142.89761734 87.2950325 C142.89997991 89.70241418 142.90884011 92.10979849 142.92428207 94.51713181 C142.94385185 97.88325298 142.93813875 101.24842695 142.92607117 104.61456299 C142.93731018 105.61110397 142.94854919 106.60764496 142.96012878 107.63438416 C142.92071249 111.95557924 142.84391987 114.46238659 140.59736633 118.23580933 C137.12789111 121.29916673 134.21345202 121.26802925 129.76020813 121.28088379 C128.57691422 121.28659393 127.3936203 121.29230408 126.17446899 121.29818726 C124.87465591 121.29930511 123.57484283 121.30042297 122.23564148 121.30157471 C120.85416532 121.30620356 119.47269044 121.31122831 118.09121704 121.31661987 C114.33704695 121.3297385 110.58289474 121.33618766 106.82870531 121.34063053 C104.48334417 121.34356183 102.13798792 121.34766673 99.79262924 121.3521347 C92.45474731 121.36580758 85.11687655 121.37547553 77.77898276 121.3793366 C69.3078767 121.38381844 60.83693191 121.40137298 52.36587489 121.43033719 C45.81801638 121.45194875 39.27020327 121.46204058 32.72230947 121.46337771 C28.81141357 121.46442603 24.90066931 121.47033943 20.98981094 121.48819733 C17.31095765 121.50466926 13.63237014 121.50683794 9.95349312 121.49805832 C7.96132604 121.49692018 5.96916781 121.51064392 3.97705078 121.52481079 C2.78811722 121.51924164 1.59918365 121.51367249 0.3742218 121.50793457 C-0.65705526 121.50940113 -1.68833233 121.51086769 -2.75086021 121.51237869 C-6.02335061 121.07905749 -7.90926244 120.07790559 -10.55976868 118.14044189 C-11.74098954 115.77800017 -11.69306217 114.34813412 -11.7069397 111.71286011 C-11.714095 110.78192032 -11.72125031 109.85098053 -11.72862244 108.89183044 C-11.73131134 107.8673732 -11.73400024 106.84291595 -11.73677063 105.78741455 C-11.74334183 104.71090134 -11.74991302 103.63438812 -11.75668335 102.5252533 C-11.77644542 98.95166969 -11.78808429 95.37812812 -11.79804993 91.80450439 C-11.80212545 90.58671673 -11.80620098 89.36892906 -11.81040001 88.11423874 C-11.83127129 81.67115192 -11.84556951 75.22808648 -11.85493469 68.78497314 C-11.86500473 62.11753788 -11.90042583 55.45048123 -11.94010639 48.78315163 C-11.96620065 43.66685346 -11.97462005 38.55063545 -11.97821617 33.43427658 C-11.98309926 30.97582117 -11.9947618 28.51736974 -12.01325417 26.05897903 C-12.03749629 22.62313406 -12.03670778 19.18816188 -12.02973938 15.7522583 C-12.04254944 14.73184952 -12.0553595 13.71144073 -12.06855774 12.66011047 C-12.01744074 5.76546928 -12.01744074 5.76546928 -9.65539551 2.53970337 C-6.17175143 0.2136552 -4.18295448 0.01206354 0 0 Z M6.44023132 18.14044189 C6.44023132 23.42044189 6.44023132 28.70044189 6.44023132 34.14044189 C17.33023132 34.14044189 28.22023132 34.14044189 39.44023132 34.14044189 C39.44023132 28.86044189 39.44023132 23.58044189 39.44023132 18.14044189 C28.55023132 18.14044189 17.66023132 18.14044189 6.44023132 18.14044189 Z M57.44023132 18.14044189 C57.44023132 29.03044189 57.44023132 39.92044189 57.44023132 51.14044189 C62.72023132 51.14044189 68.00023132 51.14044189 73.44023132 51.14044189 C73.44023132 40.25044189 73.44023132 29.36044189 73.44023132 18.14044189 C68.16023132 18.14044189 62.88023132 18.14044189 57.44023132 18.14044189 Z M91.44023132 18.14044189 C91.44023132 23.42044189 91.44023132 28.70044189 91.44023132 34.14044189 C102.33023132 34.14044189 113.22023132 34.14044189 124.44023132 34.14044189 C124.44023132 28.86044189 124.44023132 23.58044189 124.44023132 18.14044189 C113.55023132 18.14044189 102.66023132 18.14044189 91.44023132 18.14044189 Z M6.44023132 52.14044189 C6.44023132 68.97044189 6.44023132 85.80044189 6.44023132 103.14044189 C45.38023132 103.14044189 84.32023132 103.14044189 124.44023132 103.14044189 C124.44023132 86.31044189 124.44023132 69.48044189 124.44023132 52.14044189 C113.55023132 52.14044189 102.66023132 52.14044189 91.44023132 52.14044189 C91.11023132 55.77044189 90.78023132 59.40044189 90.44023132 63.14044189 C88.44023132 67.14044189 88.44023132 67.14044189 86.44023132 68.14044189 C85.06772012 68.24946465 83.69023828 68.29938326 82.31352234 68.31744385 C81.03693504 68.3366967 81.03693504 68.3366967 79.73455811 68.3563385 C78.81371933 68.36372543 77.89288055 68.37111237 76.94413757 68.37872314 C75.52741005 68.39083076 75.52741005 68.39083076 74.08206177 68.40318298 C72.08224831 68.41702477 70.08241122 68.4277465 68.08256531 68.43560791 C65.01839304 68.45285375 61.95529045 68.49674249 58.8914032 68.54083252 C56.95065594 68.55095638 55.0098995 68.55947344 53.06913757 68.56622314 C52.15032303 68.58373123 51.23150848 68.60123932 50.28485107 68.61927795 C49.43064072 68.61635239 48.57643036 68.61342682 47.69633484 68.6104126 C46.9451387 68.61627884 46.19394257 68.62214508 45.41998291 68.62818909 C43.44023132 68.14044189 43.44023132 68.14044189 40.44023132 64.14044189 C39.94523132 58.20044189 39.94523132 58.20044189 39.44023132 52.14044189 C28.55023132 52.14044189 17.66023132 52.14044189 6.44023132 52.14044189 Z " fill="#000000" transform="translate(11.559768676757813,378.85955810546875)"/>
<path d="M0 0 C1.18329391 -0.00571014 2.36658783 -0.01142029 3.58573914 -0.01730347 C4.88555222 -0.01842133 6.1853653 -0.01953918 7.52456665 -0.02069092 C8.90604281 -0.02531977 10.28751769 -0.03034452 11.66899109 -0.03573608 C15.42316118 -0.04885471 19.17731339 -0.05530387 22.93150282 -0.05974674 C25.27686396 -0.06267804 27.62222021 -0.06678294 29.96757889 -0.07125092 C37.30546082 -0.08492379 44.64333158 -0.09459175 51.98122537 -0.09845281 C60.45233143 -0.10293465 68.92327622 -0.12048919 77.39433324 -0.1494534 C83.94219175 -0.17106497 90.49000486 -0.18115679 97.03789866 -0.18249393 C100.94879456 -0.18354224 104.85953882 -0.18945565 108.77039719 -0.20731354 C112.44925048 -0.22378547 116.12783799 -0.22595415 119.80671501 -0.21717453 C121.79888209 -0.21603639 123.79104032 -0.22976013 125.78315735 -0.243927 C127.56655769 -0.23557327 127.56655769 -0.23557327 129.38598633 -0.22705078 C130.41726339 -0.22851734 131.44854046 -0.2299839 132.51106834 -0.2314949 C135.78355874 0.2018263 137.66947057 1.2029782 140.31997681 3.14044189 C141.50119767 5.50288362 141.4532703 6.93274967 141.46714783 9.56802368 C141.47788078 10.96443336 141.47788078 10.96443336 141.48883057 12.38905334 C141.49151947 13.41351059 141.49420837 14.43796783 141.49697876 15.49346924 C141.50354996 16.56998245 141.51012115 17.64649567 141.51689148 18.75563049 C141.53665355 22.3292141 141.54829242 25.90275567 141.55825806 29.47637939 C141.56233358 30.69416706 141.56640911 31.91195473 141.57060814 33.16664505 C141.59147941 39.60973187 141.60577764 46.05279731 141.61514282 52.49591064 C141.62521286 59.16334591 141.66063396 65.83040256 141.70031452 72.49773216 C141.72640878 77.61403033 141.73482818 82.73024834 141.7384243 87.84660721 C141.74330739 90.30506262 141.75496993 92.76351405 141.7734623 95.22190475 C141.79770442 98.65774973 141.79691591 102.09272191 141.78994751 105.52862549 C141.8091626 107.05923866 141.8091626 107.05923866 141.82876587 108.62077332 C141.77764887 115.51541451 141.77764887 115.51541451 139.41560364 118.74118042 C135.93195956 121.06722859 133.94316261 121.26882025 129.76020813 121.28088379 C128.57828888 121.28659393 127.39636963 121.29230408 126.17863464 121.29818726 C124.87522629 121.29930511 123.57181793 121.30042297 122.22891235 121.30157471 C120.84758369 121.30620212 119.46625631 121.31122668 118.08493042 121.31661987 C114.32656902 121.32975415 110.5682255 121.33619094 106.80984473 121.34063053 C104.46231136 121.34355989 102.11478288 121.34766445 99.76725197 121.3521347 C92.42402725 121.36581297 85.08081372 121.37547775 77.73757714 121.3793366 C69.257971 121.3838169 60.77852608 121.40136206 52.29896897 121.43033719 C45.74688438 121.45194952 39.19484515 121.46204065 32.64272529 121.46337771 C28.72846109 121.46442616 24.81434839 121.47034218 20.90012169 121.48819733 C17.21717786 121.50467012 13.53449951 121.50683751 9.85153198 121.49805832 C7.85696993 121.49692016 5.86241673 121.51064407 3.86790466 121.52481079 C2.67752594 121.51924164 1.48714722 121.51367249 0.26069641 121.50793457 C-0.77187947 121.50940113 -1.80445536 121.51086769 -2.86832142 121.51237869 C-6.1682812 121.07585428 -8.01444957 120.10916973 -10.68002319 118.14044189 C-12.777039 114.99491818 -12.93232146 114.26130029 -12.94744873 110.67526245 C-12.9559787 109.76122147 -12.96450867 108.84718048 -12.97329712 107.90544128 C-12.97239075 106.90485184 -12.97148437 105.90426239 -12.97055054 104.87335205 C-12.97726776 103.81780624 -12.98398499 102.76226044 -12.99090576 101.67472839 C-13.0099442 98.17627285 -13.01381294 94.67800855 -13.01596069 91.17950439 C-13.02238458 88.75196248 -13.02911263 86.32442136 -13.03613281 83.8968811 C-13.04812024 78.80422165 -13.05181213 73.7116301 -13.05062866 68.61895752 C-13.0504254 62.08951501 -13.07772892 55.56050739 -13.11217308 49.03116798 C-13.13439789 44.01604203 -13.13846755 39.00102146 -13.13740921 33.98585129 C-13.13977178 31.5784696 -13.14863198 29.1710853 -13.16407394 26.76375198 C-13.18364372 23.39763081 -13.17793062 20.03245684 -13.16586304 16.6663208 C-13.17710205 15.66977982 -13.18834106 14.67323883 -13.19992065 13.64649963 C-13.16050436 9.32530455 -13.08371174 6.8184972 -10.8371582 3.04507446 C-7.36768298 -0.01828294 -4.45324389 0.01285454 0 0 Z M5.31997681 18.14044189 C5.31997681 23.42044189 5.31997681 28.70044189 5.31997681 34.14044189 C16.20997681 34.14044189 27.09997681 34.14044189 38.31997681 34.14044189 C38.31997681 28.86044189 38.31997681 23.58044189 38.31997681 18.14044189 C27.42997681 18.14044189 16.53997681 18.14044189 5.31997681 18.14044189 Z M56.31997681 18.14044189 C56.31997681 29.03044189 56.31997681 39.92044189 56.31997681 51.14044189 C61.59997681 51.14044189 66.87997681 51.14044189 72.31997681 51.14044189 C72.31997681 40.25044189 72.31997681 29.36044189 72.31997681 18.14044189 C67.03997681 18.14044189 61.75997681 18.14044189 56.31997681 18.14044189 Z M90.31997681 18.14044189 C90.31997681 23.42044189 90.31997681 28.70044189 90.31997681 34.14044189 C101.20997681 34.14044189 112.09997681 34.14044189 123.31997681 34.14044189 C123.31997681 28.86044189 123.31997681 23.58044189 123.31997681 18.14044189 C112.42997681 18.14044189 101.53997681 18.14044189 90.31997681 18.14044189 Z M5.31997681 52.14044189 C5.31997681 68.97044189 5.31997681 85.80044189 5.31997681 103.14044189 C44.25997681 103.14044189 83.19997681 103.14044189 123.31997681 103.14044189 C123.31997681 86.31044189 123.31997681 69.48044189 123.31997681 52.14044189 C112.42997681 52.14044189 101.53997681 52.14044189 90.31997681 52.14044189 C89.98997681 56.10044189 89.65997681 60.06044189 89.31997681 64.14044189 C86.31997681 68.14044189 86.31997681 68.14044189 84.34695435 68.63491821 C83.22468445 68.63064316 83.22468445 68.63064316 82.07974243 68.62628174 C81.22875977 68.632435 80.3777771 68.63858826 79.50100708 68.64492798 C78.58532959 68.63055695 77.6696521 68.61618591 76.72622681 68.60137939 C75.78315674 68.60046295 74.84008667 68.59954651 73.86843872 68.59860229 C71.87453173 68.59256028 69.88063407 68.57679631 67.88687134 68.55206299 C64.83168157 68.51558166 61.77770525 68.5110434 58.72232056 68.51153564 C56.78611214 68.50170362 54.84991195 68.49004624 52.91372681 68.47637939 C51.99804932 68.47415375 51.08237183 68.4719281 50.13894653 68.46963501 C49.28796387 68.45687531 48.4369812 68.4441156 47.56021118 68.43096924 C46.81203125 68.42334564 46.06385132 68.41572205 45.29299927 68.40786743 C43.31997681 68.14044189 43.31997681 68.14044189 40.31997681 66.14044189 C39.31997681 63.14044189 39.31997681 63.14044189 38.31997681 52.14044189 C27.42997681 52.14044189 16.53997681 52.14044189 5.31997681 52.14044189 Z " fill="#000000" transform="translate(370.6800231933594,250.85955810546875)"/>
<path d="M0 0 C1.18329391 -0.00571014 2.36658783 -0.01142029 3.58573914 -0.01730347 C4.88555222 -0.01842133 6.1853653 -0.01953918 7.52456665 -0.02069092 C8.90604281 -0.02531977 10.28751769 -0.03034452 11.66899109 -0.03573608 C15.42316118 -0.04885471 19.17731339 -0.05530387 22.93150282 -0.05974674 C25.27686396 -0.06267804 27.62222021 -0.06678294 29.96757889 -0.07125092 C37.30546082 -0.08492379 44.64333158 -0.09459175 51.98122537 -0.09845281 C60.45233143 -0.10293465 68.92327622 -0.12048919 77.39433324 -0.1494534 C83.94219175 -0.17106497 90.49000486 -0.18115679 97.03789866 -0.18249393 C100.94879456 -0.18354224 104.85953882 -0.18945565 108.77039719 -0.20731354 C112.44925048 -0.22378547 116.12783799 -0.22595415 119.80671501 -0.21717453 C121.79888209 -0.21603639 123.79104032 -0.22976013 125.78315735 -0.243927 C127.56655769 -0.23557327 127.56655769 -0.23557327 129.38598633 -0.22705078 C130.41726339 -0.22851734 131.44854046 -0.2299839 132.51106834 -0.2314949 C135.78355874 0.2018263 137.66947057 1.2029782 140.31997681 3.14044189 C141.50119767 5.50288362 141.4532703 6.93274967 141.46714783 9.56802368 C141.47788078 10.96443336 141.47788078 10.96443336 141.48883057 12.38905334 C141.49151947 13.41351059 141.49420837 14.43796783 141.49697876 15.49346924 C141.50354996 16.56998245 141.51012115 17.64649567 141.51689148 18.75563049 C141.53665355 22.3292141 141.54829242 25.90275567 141.55825806 29.47637939 C141.56233358 30.69416706 141.56640911 31.91195473 141.57060814 33.16664505 C141.59147941 39.60973187 141.60577764 46.05279731 141.61514282 52.49591064 C141.62521286 59.16334591 141.66063396 65.83040256 141.70031452 72.49773216 C141.72640878 77.61403033 141.73482818 82.73024834 141.7384243 87.84660721 C141.74330739 90.30506262 141.75496993 92.76351405 141.7734623 95.22190475 C141.79770442 98.65774973 141.79691591 102.09272191 141.78994751 105.52862549 C141.8091626 107.05923866 141.8091626 107.05923866 141.82876587 108.62077332 C141.77764887 115.51541451 141.77764887 115.51541451 139.41560364 118.74118042 C135.93195956 121.06722859 133.94316261 121.26882025 129.76020813 121.28088379 C128.57828888 121.28659393 127.39636963 121.29230408 126.17863464 121.29818726 C124.87522629 121.29930511 123.57181793 121.30042297 122.22891235 121.30157471 C120.84758369 121.30620212 119.46625631 121.31122668 118.08493042 121.31661987 C114.32656902 121.32975415 110.5682255 121.33619094 106.80984473 121.34063053 C104.46231136 121.34355989 102.11478288 121.34766445 99.76725197 121.3521347 C92.42402725 121.36581297 85.08081372 121.37547775 77.73757714 121.3793366 C69.257971 121.3838169 60.77852608 121.40136206 52.29896897 121.43033719 C45.74688438 121.45194952 39.19484515 121.46204065 32.64272529 121.46337771 C28.72846109 121.46442616 24.81434839 121.47034218 20.90012169 121.48819733 C17.21717786 121.50467012 13.53449951 121.50683751 9.85153198 121.49805832 C7.85696993 121.49692016 5.86241673 121.51064407 3.86790466 121.52481079 C2.67752594 121.51924164 1.48714722 121.51367249 0.26069641 121.50793457 C-0.77187947 121.50940113 -1.80445536 121.51086769 -2.86832142 121.51237869 C-6.1682812 121.07585428 -8.01444957 120.10916973 -10.68002319 118.14044189 C-12.777039 114.99491818 -12.93232146 114.26130029 -12.94744873 110.67526245 C-12.9559787 109.76122147 -12.96450867 108.84718048 -12.97329712 107.90544128 C-12.97239075 106.90485184 -12.97148437 105.90426239 -12.97055054 104.87335205 C-12.97726776 103.81780624 -12.98398499 102.76226044 -12.99090576 101.67472839 C-13.0099442 98.17627285 -13.01381294 94.67800855 -13.01596069 91.17950439 C-13.02238458 88.75196248 -13.02911263 86.32442136 -13.03613281 83.8968811 C-13.04812024 78.80422165 -13.05181213 73.7116301 -13.05062866 68.61895752 C-13.0504254 62.08951501 -13.07772892 55.56050739 -13.11217308 49.03116798 C-13.13439789 44.01604203 -13.13846755 39.00102146 -13.13740921 33.98585129 C-13.13977178 31.5784696 -13.14863198 29.1710853 -13.16407394 26.76375198 C-13.18364372 23.39763081 -13.17793062 20.03245684 -13.16586304 16.6663208 C-13.17710205 15.66977982 -13.18834106 14.67323883 -13.19992065 13.64649963 C-13.16050436 9.32530455 -13.08371174 6.8184972 -10.8371582 3.04507446 C-7.36768298 -0.01828294 -4.45324389 0.01285454 0 0 Z M5.31997681 18.14044189 C5.31997681 23.42044189 5.31997681 28.70044189 5.31997681 34.14044189 C16.20997681 34.14044189 27.09997681 34.14044189 38.31997681 34.14044189 C38.31997681 28.86044189 38.31997681 23.58044189 38.31997681 18.14044189 C27.42997681 18.14044189 16.53997681 18.14044189 5.31997681 18.14044189 Z M56.31997681 18.14044189 C56.31997681 29.03044189 56.31997681 39.92044189 56.31997681 51.14044189 C61.59997681 51.14044189 66.87997681 51.14044189 72.31997681 51.14044189 C72.31997681 40.25044189 72.31997681 29.36044189 72.31997681 18.14044189 C67.03997681 18.14044189 61.75997681 18.14044189 56.31997681 18.14044189 Z M90.31997681 18.14044189 C90.31997681 23.42044189 90.31997681 28.70044189 90.31997681 34.14044189 C101.20997681 34.14044189 112.09997681 34.14044189 123.31997681 34.14044189 C123.31997681 28.86044189 123.31997681 23.58044189 123.31997681 18.14044189 C112.42997681 18.14044189 101.53997681 18.14044189 90.31997681 18.14044189 Z M5.31997681 52.14044189 C5.31997681 68.97044189 5.31997681 85.80044189 5.31997681 103.14044189 C44.25997681 103.14044189 83.19997681 103.14044189 123.31997681 103.14044189 C123.31997681 86.31044189 123.31997681 69.48044189 123.31997681 52.14044189 C112.42997681 52.14044189 101.53997681 52.14044189 90.31997681 52.14044189 C89.98997681 56.10044189 89.65997681 60.06044189 89.31997681 64.14044189 C86.31997681 68.14044189 86.31997681 68.14044189 84.34695435 68.63491821 C83.22468445 68.63064316 83.22468445 68.63064316 82.07974243 68.62628174 C81.22875977 68.632435 80.3777771 68.63858826 79.50100708 68.64492798 C78.58532959 68.63055695 77.6696521 68.61618591 76.72622681 68.60137939 C75.78315674 68.60046295 74.84008667 68.59954651 73.86843872 68.59860229 C71.87453173 68.59256028 69.88063407 68.57679631 67.88687134 68.55206299 C64.83168157 68.51558166 61.77770525 68.5110434 58.72232056 68.51153564 C56.78611214 68.50170362 54.84991195 68.49004624 52.91372681 68.47637939 C51.99804932 68.47415375 51.08237183 68.4719281 50.13894653 68.46963501 C49.28796387 68.45687531 48.4369812 68.4441156 47.56021118 68.43096924 C46.81203125 68.42334564 46.06385132 68.41572205 45.29299927 68.40786743 C43.31997681 68.14044189 43.31997681 68.14044189 40.31997681 66.14044189 C39.31997681 63.14044189 39.31997681 63.14044189 38.31997681 52.14044189 C27.42997681 52.14044189 16.53997681 52.14044189 5.31997681 52.14044189 Z " fill="#000000" transform="translate(370.6800231933594,122.85955810546875)"/>
<path d="M0 0 C1.39015852 -0.00678092 2.78030806 -0.01568673 4.17044067 -0.02655029 C7.93505614 -0.04929461 11.69898452 -0.04052804 15.4636116 -0.02465487 C19.40862083 -0.01197034 23.35357237 -0.02374305 27.29858398 -0.03158569 C33.92279593 -0.04067488 40.54672888 -0.02871374 47.17089844 -0.00488281 C54.8225932 0.02232732 62.47362178 0.01351262 70.12530041 -0.01401484 C76.70216404 -0.03672595 83.27882747 -0.03989629 89.85571766 -0.02682149 C93.78062162 -0.01903788 97.70521274 -0.01795505 101.63009644 -0.03450394 C105.320719 -0.04897892 109.01048515 -0.0388733 112.70101547 -0.01003265 C114.69650861 -0.00029903 116.69207442 -0.01509628 118.68753052 -0.03067017 C128.48280558 0.084958 128.48280558 0.084958 132.1836853 2.51905823 C135.38945754 7.08688145 135.20593462 10.8768889 135.12353516 16.34057617 C135.13083649 17.41752747 135.13813782 18.49447876 135.1456604 19.60406494 C135.16186575 23.161979 135.13466179 26.71806957 135.10546875 30.27587891 C135.10443152 32.74779764 135.10546702 35.21971803 135.10848999 37.69163513 C135.10831058 42.87092736 135.08745793 48.04959675 135.05126953 53.22875977 C135.00587065 59.8726719 135.00481124 66.51567485 135.01830482 73.15969944 C135.02498232 78.26319991 135.01172875 83.36649248 134.99204636 88.46995354 C134.98434023 90.92000173 134.98204681 93.37007304 134.98521805 95.8201313 C134.98595848 99.24145846 134.96074737 102.66161249 134.92822266 106.08276367 C134.93317749 107.09845932 134.93813232 108.11415497 134.9432373 109.16062927 C134.83929171 115.99939228 134.83929171 115.99939228 132.53207397 119.24473572 C128.89278149 121.61480206 125.97593513 121.77508999 121.73684692 121.78741455 C119.97452728 121.79597977 119.97452728 121.79597977 118.17660522 121.80471802 C116.88614288 121.80583588 115.59568054 121.80695374 114.26611328 121.80810547 C112.8944892 121.81273436 111.52286641 121.81775911 110.15124512 121.82315063 C106.42393368 121.83626895 102.69664025 121.84271836 98.96930933 121.84716129 C96.64069915 121.85009265 94.31209388 121.85419755 91.98348618 121.85866547 C84.69792997 121.87233826 77.41238501 121.88200625 70.12681687 121.88586736 C61.71627085 121.89034917 53.30588726 121.90790362 44.89539063 121.93686795 C38.39424084 121.95847991 31.89313677 121.96857136 25.39195144 121.96990848 C21.50900076 121.97095676 17.62620282 121.97686958 13.74328995 121.99472809 C10.0907009 122.0112007 6.43837954 122.01336837 2.7857666 122.00458908 C0.80791276 122.00345101 -1.16993217 122.01717424 -3.1477356 122.03134155 C-4.328255 122.0257724 -5.50877441 122.02020325 -6.72506714 122.01446533 C-7.74896986 122.01593189 -8.77287258 122.01739845 -9.82780266 122.01890945 C-14.04178383 121.45780264 -16.65726019 119.61080621 -19.62109375 116.64697266 C-19.88394928 114.68131542 -19.88394928 114.68131542 -19.90197754 112.22612 C-19.91339783 111.29662537 -19.92481812 110.36713074 -19.93658447 109.4094696 C-19.93882019 108.3865834 -19.94105591 107.3636972 -19.94335938 106.30981445 C-19.95328918 105.23490753 -19.96321899 104.16000061 -19.97344971 103.05252075 C-20.00274607 99.48371859 -20.01630574 95.91509424 -20.02734375 92.34619141 C-20.03884259 89.8723805 -20.0503581 87.39856967 -20.06188965 84.92475891 C-20.08292494 79.73197598 -20.09460013 74.53925512 -20.1015625 69.34643555 C-20.11096093 62.68784255 -20.16058332 56.03018348 -20.21750641 49.37181377 C-20.25473003 44.25974625 -20.26516877 39.1478762 -20.26823425 34.03568459 C-20.2742954 31.58082421 -20.29037985 29.12596763 -20.31660461 26.67123985 C-20.35066725 23.23763 -20.346982 19.80602409 -20.33398438 16.37231445 C-20.35241394 15.35550095 -20.37084351 14.33868744 -20.38983154 13.2910614 C-20.33543399 8.71025609 -20.10232406 6.33372088 -17.42785645 2.51707458 C-12.34533726 -0.82133952 -5.82942706 -0.04549677 0 0 Z M-1.62109375 18.64697266 C-1.62109375 23.92697266 -1.62109375 29.20697266 -1.62109375 34.64697266 C9.26890625 34.64697266 20.15890625 34.64697266 31.37890625 34.64697266 C31.37890625 29.36697266 31.37890625 24.08697266 31.37890625 18.64697266 C20.48890625 18.64697266 9.59890625 18.64697266 -1.62109375 18.64697266 Z M49.37890625 18.64697266 C49.37890625 29.53697266 49.37890625 40.42697266 49.37890625 51.64697266 C54.65890625 51.64697266 59.93890625 51.64697266 65.37890625 51.64697266 C65.37890625 40.75697266 65.37890625 29.86697266 65.37890625 18.64697266 C60.09890625 18.64697266 54.81890625 18.64697266 49.37890625 18.64697266 Z M83.37890625 18.64697266 C83.37890625 23.92697266 83.37890625 29.20697266 83.37890625 34.64697266 C94.26890625 34.64697266 105.15890625 34.64697266 116.37890625 34.64697266 C116.37890625 29.36697266 116.37890625 24.08697266 116.37890625 18.64697266 C105.48890625 18.64697266 94.59890625 18.64697266 83.37890625 18.64697266 Z M-1.62109375 52.64697266 C-1.62109375 69.47697266 -1.62109375 86.30697266 -1.62109375 103.64697266 C37.31890625 103.64697266 76.25890625 103.64697266 116.37890625 103.64697266 C116.37890625 86.81697266 116.37890625 69.98697266 116.37890625 52.64697266 C105.48890625 52.64697266 94.59890625 52.64697266 83.37890625 52.64697266 C83.04890625 56.60697266 82.71890625 60.56697266 82.37890625 64.64697266 C77.87776247 69.14811644 77.87776247 69.14811644 74.1328125 69.16455078 C72.89132446 69.18346375 72.89132446 69.18346375 71.62475586 69.20275879 C70.73925049 69.19466187 69.85374512 69.18656494 68.94140625 69.17822266 C68.02431885 69.18204956 67.10723145 69.18587646 66.16235352 69.18981934 C64.22573752 69.19253815 62.28908478 69.18517911 60.35253906 69.16845703 C57.38914072 69.1470466 54.42816674 69.16825935 51.46484375 69.19384766 C49.5820259 69.19120437 47.69920956 69.18607939 45.81640625 69.17822266 C44.93090088 69.18631958 44.04539551 69.1944165 43.13305664 69.20275879 C42.30539795 69.19015015 41.47773926 69.1775415 40.625 69.16455078 C39.89982178 69.16136841 39.17464355 69.15818604 38.42749023 69.15490723 C36.37890625 68.64697266 36.37890625 68.64697266 32.37890625 64.64697266 C31.88390625 58.70697266 31.88390625 58.70697266 31.37890625 52.64697266 C20.48890625 52.64697266 9.59890625 52.64697266 -1.62109375 52.64697266 Z " fill="#000000" transform="translate(198.62109375,378.35302734375)"/>
<path d="M0 0 C1.39015852 -0.00678092 2.78030806 -0.01568673 4.17044067 -0.02655029 C7.93505614 -0.04929461 11.69898452 -0.04052804 15.4636116 -0.02465487 C19.40862083 -0.01197034 23.35357237 -0.02374305 27.29858398 -0.03158569 C33.92279593 -0.04067488 40.54672888 -0.02871374 47.17089844 -0.00488281 C54.8225932 0.02232732 62.47362178 0.01351262 70.12530041 -0.01401484 C76.70216404 -0.03672595 83.27882747 -0.03989629 89.85571766 -0.02682149 C93.78062162 -0.01903788 97.70521274 -0.01795505 101.63009644 -0.03450394 C105.320719 -0.04897892 109.01048515 -0.0388733 112.70101547 -0.01003265 C114.69650861 -0.00029903 116.69207442 -0.01509628 118.68753052 -0.03067017 C128.48280558 0.084958 128.48280558 0.084958 132.1836853 2.51905823 C135.38945754 7.08688145 135.20593462 10.8768889 135.12353516 16.34057617 C135.13083649 17.41752747 135.13813782 18.49447876 135.1456604 19.60406494 C135.16186575 23.161979 135.13466179 26.71806957 135.10546875 30.27587891 C135.10443152 32.74779764 135.10546702 35.21971803 135.10848999 37.69163513 C135.10831058 42.87092736 135.08745793 48.04959675 135.05126953 53.22875977 C135.00587065 59.8726719 135.00481124 66.51567485 135.01830482 73.15969944 C135.02498232 78.26319991 135.01172875 83.36649248 134.99204636 88.46995354 C134.98434023 90.92000173 134.98204681 93.37007304 134.98521805 95.8201313 C134.98595848 99.24145846 134.96074737 102.66161249 134.92822266 106.08276367 C134.93317749 107.09845932 134.93813232 108.11415497 134.9432373 109.16062927 C134.83929171 115.99939228 134.83929171 115.99939228 132.53207397 119.24473572 C128.89278149 121.61480206 125.97593513 121.77508999 121.73684692 121.78741455 C119.97452728 121.79597977 119.97452728 121.79597977 118.17660522 121.80471802 C116.88614288 121.80583588 115.59568054 121.80695374 114.26611328 121.80810547 C112.8944892 121.81273436 111.52286641 121.81775911 110.15124512 121.82315063 C106.42393368 121.83626895 102.69664025 121.84271836 98.96930933 121.84716129 C96.64069915 121.85009265 94.31209388 121.85419755 91.98348618 121.85866547 C84.69792997 121.87233826 77.41238501 121.88200625 70.12681687 121.88586736 C61.71627085 121.89034917 53.30588726 121.90790362 44.89539063 121.93686795 C38.39424084 121.95847991 31.89313677 121.96857136 25.39195144 121.96990848 C21.50900076 121.97095676 17.62620282 121.97686958 13.74328995 121.99472809 C10.0907009 122.0112007 6.43837954 122.01336837 2.7857666 122.00458908 C0.80791276 122.00345101 -1.16993217 122.01717424 -3.1477356 122.03134155 C-4.328255 122.0257724 -5.50877441 122.02020325 -6.72506714 122.01446533 C-7.74896986 122.01593189 -8.77287258 122.01739845 -9.82780266 122.01890945 C-14.04178383 121.45780264 -16.65726019 119.61080621 -19.62109375 116.64697266 C-19.88394928 114.68131542 -19.88394928 114.68131542 -19.90197754 112.22612 C-19.91339783 111.29662537 -19.92481812 110.36713074 -19.93658447 109.4094696 C-19.93882019 108.3865834 -19.94105591 107.3636972 -19.94335938 106.30981445 C-19.95328918 105.23490753 -19.96321899 104.16000061 -19.97344971 103.05252075 C-20.00274607 99.48371859 -20.01630574 95.91509424 -20.02734375 92.34619141 C-20.03884259 89.8723805 -20.0503581 87.39856967 -20.06188965 84.92475891 C-20.08292494 79.73197598 -20.09460013 74.53925512 -20.1015625 69.34643555 C-20.11096093 62.68784255 -20.16058332 56.03018348 -20.21750641 49.37181377 C-20.25473003 44.25974625 -20.26516877 39.1478762 -20.26823425 34.03568459 C-20.2742954 31.58082421 -20.29037985 29.12596763 -20.31660461 26.67123985 C-20.35066725 23.23763 -20.346982 19.80602409 -20.33398438 16.37231445 C-20.35241394 15.35550095 -20.37084351 14.33868744 -20.38983154 13.2910614 C-20.33543399 8.71025609 -20.10232406 6.33372088 -17.42785645 2.51707458 C-12.34533726 -0.82133952 -5.82942706 -0.04549677 0 0 Z M-1.62109375 18.64697266 C-1.62109375 23.92697266 -1.62109375 29.20697266 -1.62109375 34.64697266 C9.26890625 34.64697266 20.15890625 34.64697266 31.37890625 34.64697266 C31.37890625 29.36697266 31.37890625 24.08697266 31.37890625 18.64697266 C20.48890625 18.64697266 9.59890625 18.64697266 -1.62109375 18.64697266 Z M49.37890625 18.64697266 C49.37890625 29.53697266 49.37890625 40.42697266 49.37890625 51.64697266 C54.65890625 51.64697266 59.93890625 51.64697266 65.37890625 51.64697266 C65.37890625 40.75697266 65.37890625 29.86697266 65.37890625 18.64697266 C60.09890625 18.64697266 54.81890625 18.64697266 49.37890625 18.64697266 Z M83.37890625 18.64697266 C83.37890625 23.92697266 83.37890625 29.20697266 83.37890625 34.64697266 C94.26890625 34.64697266 105.15890625 34.64697266 116.37890625 34.64697266 C116.37890625 29.36697266 116.37890625 24.08697266 116.37890625 18.64697266 C105.48890625 18.64697266 94.59890625 18.64697266 83.37890625 18.64697266 Z M-1.62109375 52.64697266 C-1.62109375 69.47697266 -1.62109375 86.30697266 -1.62109375 103.64697266 C37.31890625 103.64697266 76.25890625 103.64697266 116.37890625 103.64697266 C116.37890625 86.81697266 116.37890625 69.98697266 116.37890625 52.64697266 C105.48890625 52.64697266 94.59890625 52.64697266 83.37890625 52.64697266 C83.04890625 56.60697266 82.71890625 60.56697266 82.37890625 64.64697266 C77.87776247 69.14811644 77.87776247 69.14811644 74.1328125 69.16455078 C72.89132446 69.18346375 72.89132446 69.18346375 71.62475586 69.20275879 C70.73925049 69.19466187 69.85374512 69.18656494 68.94140625 69.17822266 C68.02431885 69.18204956 67.10723145 69.18587646 66.16235352 69.18981934 C64.22573752 69.19253815 62.28908478 69.18517911 60.35253906 69.16845703 C57.38914072 69.1470466 54.42816674 69.16825935 51.46484375 69.19384766 C49.5820259 69.19120437 47.69920956 69.18607939 45.81640625 69.17822266 C44.93090088 69.18631958 44.04539551 69.1944165 43.13305664 69.20275879 C42.30539795 69.19015015 41.47773926 69.1775415 40.625 69.16455078 C39.89982178 69.16136841 39.17464355 69.15818604 38.42749023 69.15490723 C36.37890625 68.64697266 36.37890625 68.64697266 32.37890625 64.64697266 C31.88390625 58.70697266 31.88390625 58.70697266 31.37890625 52.64697266 C20.48890625 52.64697266 9.59890625 52.64697266 -1.62109375 52.64697266 Z " fill="#000000" transform="translate(198.62109375,250.35302734375)"/>
<path d="M0 0 C9.17088778 -0.067814 18.34160864 -0.12283807 27.51269054 -0.15543652 C31.77133192 -0.17108322 36.02979266 -0.19230318 40.28833008 -0.22631836 C44.39913518 -0.25894752 48.50976668 -0.27686051 52.6206913 -0.28463173 C54.18796839 -0.29016887 55.75523613 -0.30098165 57.32243919 -0.31719017 C59.52009893 -0.33901228 61.71704403 -0.34196501 63.91479492 -0.34057617 C65.16499924 -0.34723801 66.41520355 -0.35389984 67.70329285 -0.36076355 C72.26132094 0.13802822 74.80442241 1.80442241 78 5 C78.24050903 8.01187134 78.24050903 8.01187134 78.22705078 11.92822266 C78.22734283 12.64052536 78.22763489 13.35282806 78.22793579 14.0867157 C78.22654016 16.44595434 78.21096827 18.80487889 78.1953125 21.1640625 C78.19158319 22.79788032 78.18873583 24.43170038 78.18673706 26.06552124 C78.1790941 30.36952876 78.15943999 34.67340168 78.1373291 38.97735596 C78.1168849 43.36769795 78.1077384 47.75806165 78.09765625 52.1484375 C78.07619465 60.7656937 78.04100718 69.38281461 78 78 C72.06 78 66.12 78 60 78 C59.67 63.15 59.34 48.3 59 33 C54.09890381 37.92728027 49.19780762 42.85456055 44.14819336 47.93115234 C28.46352325 63.69607778 12.7665265 79.44868814 -2.93825275 95.1935794 C-5.3777944 97.63937456 -7.81722684 100.08527861 -10.2565918 102.53125 C-10.98504285 103.26166838 -10.98504285 103.26166838 -11.72821008 104.00684269 C-19.5905462 111.89093341 -27.44400305 119.78381211 -35.29421193 127.67997591 C-43.34987652 135.7824036 -51.41518873 143.87510957 -59.48900884 151.95945132 C-64.02347561 156.50044183 -68.55342341 161.04574425 -73.07295418 165.60160446 C-77.32613771 169.8886987 -81.59087955 174.16394205 -85.86481094 178.43034935 C-87.43206503 179.99898014 -88.99503182 181.5719079 -90.55336952 183.1493969 C-92.68090731 185.30179346 -94.82330014 187.43822881 -96.97010803 189.57138062 C-97.58394271 190.1997795 -98.1977774 190.82817839 -98.83021313 191.47561967 C-102.70057364 195.27974616 -105.59646612 197.11897034 -111 198 C-115.66002274 196.38918057 -118.6496356 193.71822443 -122.08740234 190.25317383 C-122.55644989 189.78456436 -123.02549744 189.3159549 -123.50875854 188.83314514 C-125.04171383 187.29811676 -126.56379453 185.75277528 -128.0859375 184.20703125 C-129.15287567 183.13449186 -130.22048257 182.06261734 -131.28872681 180.99137878 C-134.08684234 178.18185594 -136.87582756 175.36343906 -139.66296387 172.54302979 C-142.51330589 169.66189797 -145.37225076 166.7893305 -148.23046875 163.91601562 C-153.82873478 158.28565809 -159.41737773 152.64586885 -165 147 C-171.3338126 152.22642983 -177.10262848 157.96783967 -182.89233398 163.77880859 C-183.97688155 164.86363866 -185.06165022 165.94824772 -186.1466217 167.03265381 C-189.07397637 169.95972299 -191.99824972 172.88985276 -194.92195773 175.82056379 C-197.9844251 178.88930622 -201.04974749 181.95519417 -204.11476135 185.02139282 C-209.91059045 190.82032303 -215.70386692 196.62179638 -221.49621874 202.4241997 C-228.09402938 209.03320945 -234.6946988 215.6393609 -241.29560363 222.24528003 C-254.86690733 235.82702048 -268.43463714 249.412326 -282 263 C-285.85027991 261.21799313 -288.2799142 258.92324595 -291.25 255.875 C-292.14203125 254.96492187 -293.0340625 254.05484375 -293.953125 253.1171875 C-294.96632813 252.06917969 -294.96632813 252.06917969 -296 251 C-290.5458059 244.36733676 -284.49805737 238.35682903 -278.42675781 232.29736328 C-277.25651223 231.12576085 -276.08647909 229.95394619 -274.91664124 228.78193665 C-271.75606955 225.61682682 -268.59236813 222.45486315 -265.42793751 219.293612 C-262.11352301 215.98173685 -258.80155757 212.66741402 -255.48919678 209.35348511 C-249.93290838 203.79538089 -244.37452222 198.2393811 -238.81494141 192.68457031 C-232.38277607 186.25785986 -225.95423917 179.8275368 -219.52754903 173.39535153 C-214.00656327 167.86983388 -208.48363885 162.34625965 -202.95907664 156.82431781 C-199.6604745 153.5272763 -196.36255566 150.22955892 -193.06638336 146.93008804 C-189.97258324 143.83340766 -186.87636321 140.73916772 -183.77822685 137.64682579 C-182.63972303 136.50964815 -181.5020766 135.3716114 -180.36533546 134.23267174 C-178.81846166 132.68308128 -177.26856656 131.13657871 -175.71783447 129.59085083 C-174.84992405 128.72331743 -173.98201363 127.85578403 -173.08780289 126.96196175 C-170.49452581 124.52499298 -169.41688552 124.06670168 -165.875 123.5 C-157.06033494 124.63737614 -149.83813729 135.02962328 -143.8125 141.08984375 C-142.86008388 142.04412993 -141.90744305 142.99819188 -140.95458984 143.95204163 C-138.47333075 146.4370797 -135.99509209 148.92510796 -133.51751709 151.41381836 C-130.97837515 153.96327496 -128.43632354 156.50982688 -125.89453125 159.05664062 C-120.92687118 164.03495631 -115.96240314 169.01644371 -111 174 C-106.72604067 172.34580289 -103.8687142 169.140746 -100.71051025 165.95101929 C-100.08230904 165.32452693 -99.45410783 164.69803457 -98.80687022 164.05255759 C-96.70012168 161.94910699 -94.60060756 159.83858084 -92.50097656 157.72802734 C-90.9934461 156.21993284 -89.4854753 154.7122784 -87.97709656 153.20503235 C-83.87999805 149.10850861 -79.78910333 145.00583943 -75.69927311 140.90206099 C-71.4253792 136.61568042 -67.14583612 132.33494776 -62.86688232 128.05361938 C-54.76337127 119.9438875 -46.66497277 111.82906998 -38.56838679 103.71242487 C-29.35112787 94.47282575 -20.12820196 85.23889234 -10.90478945 76.00543666 C8.06979958 57.00993195 27.03648609 38.00656163 46 19 C30.82 18.67 15.64 18.34 0 18 C0 12.06 0 6.12 0 0 Z " fill="#000000" transform="translate(366,12)"/>
</svg>
