<svg xmlns="http://www.w3.org/2000/svg" id="Layer_5" viewBox="63.49 372.12 976.98 355.43"><defs><style>.cls-1{fill:#447cbf;}.cls-2{stroke-width:5px;}.cls-2,.cls-3{fill:none;stroke:#231f20;stroke-miterlimit:10;}.cls-3{stroke-width:3px;}.cls-4{opacity:.08;}.cls-5{fill:#231f20;}</style></defs><polygon class="cls-2" points="115.63 598.14 115.63 598.14 113.23 631.07 99.87 624.7 101.89 591.63 65.99 574.63 65.99 674.78 155.66 724.85 155.66 617.09 115.63 598.14"/><polygon class="cls-2" points="101.89 591.63 187.92 542.73 155.89 524.84 155.89 524.69 155.66 524.56 65.99 574.63 101.89 591.63 101.89 591.63"/><polyline class="cls-2" points="215.75 558.26 207.95 553.91 203.08 551.19 115.63 598.14 155.66 617.09 208.13 592.25 215.75 588.64"/><polyline class="cls-2" points="215.75 588.64 208.13 592.25 155.66 617.09 155.66 724.85 245.33 674.78 245.33 670.54"/><polygon class="cls-2" points="187.92 542.73 101.89 591.63 101.89 591.63 115.63 598.14 203.08 551.19 187.92 542.73"/><polygon class="cls-2" points="99.87 624.7 113.23 631.07 115.63 598.14 115.63 598.14 101.89 591.63 99.87 624.7"/><polygon class="cls-2" points="205.54 448.2 245.57 467.16 335.24 424.69 293.13 401.18 205.54 448.2 205.54 448.2"/><polyline class="cls-2" points="335.24 503.17 335.24 424.69 245.57 467.16 245.57 503.17"/><polygon class="cls-2" points="191.79 441.69 277.97 392.71 281.31 394.58 245.57 374.62 155.89 424.69 191.79 441.69 191.79 441.69"/><polyline class="cls-2" points="245.57 503.17 245.57 467.16 205.54 448.2 203.13 481.13 189.78 474.77 191.79 441.69 155.89 424.69 155.89 524.69 215.75 558.11"/><polygon class="cls-3" points="187.92 542.73 188.06 542.65 203.22 551.11 203.08 551.19 207.95 553.91 215.75 558.26 215.75 558.11 155.89 524.69 155.89 524.84 187.92 542.73"/><polygon class="cls-3" points="203.22 551.11 188.06 542.65 187.92 542.73 203.08 551.19 203.22 551.11"/><polygon class="cls-2" points="293.13 401.18 281.31 394.58 293.13 401.18 293.13 401.18"/><polygon class="cls-2" points="191.79 441.69 191.79 441.69 205.54 448.2 205.54 448.2 293.13 401.18 281.31 394.58 277.97 392.71 191.79 441.69"/><polygon class="cls-2" points="189.78 474.77 203.13 481.13 205.54 448.2 191.79 441.69 189.78 474.77"/><polyline class="cls-2" points="335 670.54 335 725.05 424.68 674.98 424.68 670.54"/><polyline class="cls-2" points="245.34 670.54 245.34 674.78 245.33 674.78 245.33 674.98 335 725.05 335 670.54"/><rect class="cls-2" x="245.33" y="670.54" width="0" height="4.24"/><g><path class="cls-1" d="M278.4,645.48c12.57-.43,22.64-10.76,22.64-23.44v-7.09c-3.08,18.68-17.04,27.64-22.64,30.53Z"/><path class="cls-1" d="M354.15,551.84v41.4c0,4.64-6.03,6.45-8.58,2.58l-31.61-47.86c-8.07-12.22-21.74-19.57-36.39-19.57h0v117.13h0c.28,0,.55-.01,.82-.02,5.59-2.89,19.55-11.85,22.64-30.53v-34.17c0-4.64,6.02-6.45,8.58-2.58l31.59,47.73c8.08,12.22,21.76,19.56,36.41,19.56v-117.13c-12.96,0-23.46,10.5-23.46,23.46Z"/></g><polygon class="cls-4" points="245.33 674.98 156.04 724.27 155.66 617.09 242.46 578 245.33 674.98"/><polygon class="cls-4" points="245.33 672.58 334.61 721.88 335 614.7 242.72 575.6 245.33 672.58"/><g><path class="cls-1" d="M254.45,528.54v104.71c0,6.77-5.48,12.25-12.25,12.25h-11.21v-104.71c0-6.77,5.48-12.25,12.25-12.25h11.21Z"/><path class="cls-1" d="M254.45,528.54v104.71c0,6.77-5.48,12.25-12.25,12.25h-11.21v-104.71c0-6.77,5.48-12.25,12.25-12.25h11.21Z"/><path class="cls-1" d="M377.61,645.5h0c-14.65,0-28.32-7.35-36.41-19.56l-31.59-47.73c-2.56-3.87-8.58-2.06-8.58,2.58v41.26c0,12.96-10.5,23.46-23.46,23.46h0v-117.13h0c14.65,0,28.31,7.35,36.39,19.58l31.61,47.86c2.56,3.87,8.58,2.06,8.58-2.58v-41.4c0-12.96,10.5-23.46,23.46-23.46h0v117.13Z"/><path class="cls-5" d="M709.05,645.5h0c-14.65,0-28.32-7.35-36.41-19.56l-31.59-47.73c-2.56-3.87-8.58-2.06-8.58,2.58v41.26c0,12.96-10.5,23.46-23.46,23.46h0v-117.13h0c14.65,0,28.31,7.35,36.39,19.58l31.61,47.86c2.56,3.87,8.58,2.06,8.58-2.58v-41.4c0-12.96,10.5-23.46,23.46-23.46h0v117.13Z"/><path class="cls-5" d="M505.79,528.54l-38.58,105.19c-2.59,7.07-9.33,11.77-16.86,11.77h-3.76c-7.32,0-13.86-4.57-16.38-11.44l-38.7-105.52h0c15.04,0,28.43,9.54,33.35,23.75l20.58,59.49c1.11,3.2,5.63,3.19,6.73,0l20.52-59.63c4.86-14.13,18.15-23.61,33.09-23.61h0Z"/><path class="cls-5" d="M543.33,562.98h0c0,7.63,6.19,13.82,13.82,13.82h6.95c10.27,0,18.6,8.33,18.6,18.6h-21.41c-9.92,0-17.96,8.04-17.96,17.96h0c0,7.2,5.84,13.04,13.04,13.04h12.27c10.55,0,19.1,8.55,19.1,19.1h-49.11c-10.36,0-18.75-8.4-18.75-18.75v-86.85c0-6.37,5.16-11.53,11.53-11.53h56.34c0,10.55-8.55,19.1-19.1,19.1h-9.8c-8.56,0-15.5,6.94-15.5,15.5Z"/><path class="cls-5" d="M811.76,528.54v.95c0,9.93-8.05,17.98-17.98,17.98h0c-7.28,0-13.18,5.9-13.18,13.18v73.11c0,6.48-5.25,11.73-11.73,11.73h0c-6.48,0-11.73-5.25-11.73-11.73v-73.11c0-7.28-5.9-13.18-13.18-13.18h0c-9.93,0-17.98-8.05-17.98-17.98v-.95h85.79Z"/><path class="cls-5" d="M875.8,621.88l-6.98-12.33c-3.37-5.95-9.67-9.62-16.51-9.62h0v22.12c0,12.96-10.5,23.46-23.46,23.46h0v-95.68c0-11.75,9.53-21.28,21.28-21.28h22.63c9.05,0,16.76,1.59,23.12,4.78,6.37,3.18,11.14,7.49,14.33,12.9,3.18,5.42,4.78,11.48,4.78,18.18,0,7.71-2.24,14.66-6.7,20.86-1.91,2.65-4.21,4.94-6.91,6.89-6.6,4.75-8.35,13.85-4.22,20.85l19.18,32.5h0c-16.78,0-32.25-9.02-40.52-23.62Zm-23.49-56.72c0,9.49,7.69,17.18,17.18,17.18h2.43c6.37,0,11.11-1.53,14.24-4.61,3.13-3.07,4.69-7.34,4.69-12.82s-1.57-9.52-4.69-12.48c-3.13-2.96-7.88-4.44-14.24-4.44h-2.43c-9.49,0-17.18,7.69-17.18,17.18h0Z"/><path class="cls-5" d="M997.53,623.22h-25.69c-6.25,0-11.81,3.96-13.86,9.87h0c-2.57,7.43-9.57,12.41-17.43,12.41h-11.5l37.44-104.27c2.77-7.71,10.08-12.85,18.27-12.85h0c8.19,0,15.5,5.14,18.27,12.85l37.44,104.27h-11.66c-7.86,0-14.86-4.98-17.43-12.41h0c-2.04-5.91-7.61-9.87-13.86-9.87Zm1-27.65l-7.52-21.75c-2.08-6.01-10.58-6.01-12.66,0l-7.52,21.75c-1.5,4.35,1.73,8.89,6.33,8.89h15.04c4.6,0,7.83-4.54,6.33-8.89Z"/></g></svg>