<?xml version="1.0" encoding="UTF-8"?><svg xmlns="http://www.w3.org/2000/svg" viewBox="0 0 1290.09 733.33"><defs><style>.cls-1{fill:#e1eaed;}.cls-2{fill:#d8e3e4;}.cls-3{fill:#d0dce7;}.cls-4{fill:#ecf0ed;}</style></defs><g id="Layer_1"><rect class="cls-4" width="1290.09" height="733.33"/></g><g id="Layer_4"><path class="cls-3" d="M19.97,2.35c15.06,66.13,65.1,40.99,109.55,38.52s76.54,56.79,200,39.51c78.35-10.97,92.56-34.87,94.37-78.32H19.9c.02,.1,.04,.19,.07,.29Z"/><path class="cls-1" d="M970.51,654.75c-39.51-129.63,51.85-298.77,74.07-414.81,22.22-116.05-40.74-182.72-51.85-223.46-1.48-5.43-3.12-10.2-4.84-14.43h-376.05c-43.88,61.87-86.18,171.6-38.87,302.08,68.15,187.95-4.62,387.64-21.4,429.2h473.21c.06-35.35-54.27-78.58-54.27-78.58Z"/></g><g id="Layer_6"><path class="cls-2" d="M1290.09,69.02c-63.5,105.95-25.6,165.21-62.02,298.64-38.27,140.24-2.99,349.51-.18,365.67h62.19V69.02Z"/><path class="cls-3" d="M266.03,733.33c-4.89-5.24-10.81-10.46-17.85-15.64,0,0-85.19-37.04-129.63-24.69-44.44,12.35-79.01-1.23-91.36-76.54-5.93-36.19-6.74-110.59-23.92-171.27v288.14H266.03Z"/></g></svg>