<svg xmlns="http://www.w3.org/2000/svg" id="Layer_6" viewBox="604.07 0 645.05 733.33"><defs><style>.cls-1{fill:#e1eaed;}.cls-2{fill:#d8e3e4;}.cls-3{fill:#ecf0ed;}</style></defs><path class="cls-3" d="M604.07,0V2.05h342.85c1.72,4.23,3.36,9,4.84,14.43,11.11,40.74,74.07,107.41,51.85,223.46-22.22,116.05-113.58,285.19-74.07,414.81,0,0,54.33,43.22,54.27,78.58h203.11c-2.82-16.16-38.1-225.43,.18-365.67,36.41-133.43-1.48-192.69,62.02-298.64V733.33h0V0H604.07Z"/><path class="cls-1" d="M929.54,654.75c-39.51-129.63,51.85-298.77,74.07-414.81,22.22-116.05-40.74-182.72-51.85-223.46-1.48-5.43-3.12-10.2-4.84-14.43h-342.85V733.33h379.74c.06-35.35-54.27-78.58-54.27-78.58Z"/><path class="cls-2" d="M1187.1,367.66c-38.27,140.24-2.99,349.51-.18,365.67h62.19V69.02c-63.5,105.95-25.6,165.21-62.02,298.64Z"/></svg>