<?xml version="1.0" encoding="UTF-8"?>
<svg version="1.1" xmlns="http://www.w3.org/2000/svg" width="512" height="512">
<path d="M0 0 C6.8322984 5.9782611 10.86454489 12.01731759 12 21 C12.60055206 20.99333817 13.20110413 20.98667633 13.81985474 20.97981262 C20.08167151 20.91333922 26.3433877 20.86814953 32.60546875 20.83520508 C34.94112216 20.82013739 37.27674737 20.79967951 39.61230469 20.77368164 C42.97337819 20.73721042 46.33407692 20.7202531 49.6953125 20.70703125 C50.73615997 20.69154739 51.77700745 20.67606354 52.84939575 20.66011047 C58.32027771 20.65884624 62.2978757 20.85576195 67 24 C69.64709381 27.36902848 69.0480574 30.86706349 69 35 C70.96622314 34.97643433 70.96622314 34.97643433 72.97216797 34.95239258 C77.87363447 34.89775505 82.77507448 34.86352759 87.67675781 34.83520508 C89.7910618 34.82019513 91.90533507 34.7997808 94.01953125 34.77368164 C97.07299421 34.73695367 100.12604257 34.72019526 103.1796875 34.70703125 C104.57874832 34.68380547 104.57874832 34.68380547 106.006073 34.66011047 C115.59244212 34.65769739 124.56737842 36.64746621 131.58984375 43.56640625 C139.35165338 52.04936201 139.43703864 60.12212468 139.39440918 71.12483215 C139.3993003 72.68292562 139.40549113 74.24101546 139.41286707 75.79909915 C139.42926187 80.07382711 139.4269496 84.34837059 139.4214921 88.623119 C139.41882133 93.2360686 139.43335463 97.84896908 139.44558716 102.4618988 C139.46664161 111.49679928 139.47118199 120.53163558 139.46939927 129.56655768 C139.46809161 136.91089774 139.47189602 144.25521777 139.47932434 151.59955406 C139.48142354 153.71516043 139.48352114 155.8307668 139.48561716 157.94637316 C139.48718245 159.5258794 139.48718245 159.5258794 139.48877937 161.13729485 C139.50768193 181.05269116 139.50663154 200.96805064 139.49981004 220.8834522 C139.49423506 239.09898092 139.5150581 257.31436898 139.54817051 275.52986483 C139.58191136 294.23637212 139.59707531 312.94281205 139.59245348 331.64935035 C139.59020913 342.15048471 139.59544692 352.65148907 139.62034607 363.15259743 C139.6413643 372.09304918 139.64494599 381.03329966 139.62604648 389.97375969 C139.61689175 394.53405706 139.61573751 399.0939792 139.63640213 403.65424728 C139.65512541 407.8323654 139.65059382 412.00980133 139.62785631 416.18789359 C139.62367393 417.69592868 139.62785849 419.2040162 139.64145225 420.71199582 C139.73182749 431.47400045 138.13718694 439.60641048 130.875 447.875 C123.50675631 454.63589457 113.9258546 455.59117456 104.34912109 455.50793457 C103.2285903 455.51417453 102.1080595 455.5204145 100.95357323 455.52684355 C97.22664253 455.54270379 93.50037219 455.53019601 89.7734375 455.51757812 C87.09017042 455.52300234 84.40694771 455.52998284 81.72369385 455.53881836 C75.2089408 455.55654658 68.69437274 455.55278918 62.17961264 455.5411678 C56.88199446 455.5321112 51.5844279 455.53091907 46.2868042 455.53526306 C45.53102156 455.53587599 44.77523892 455.53648893 43.99655378 455.53712043 C42.46089568 455.53839941 40.9252376 455.53969627 39.38957953 455.5410108 C25.01083389 455.5523999 10.63219047 455.53932917 -3.7465384 455.51780933 C-16.06740489 455.49993985 -28.3881206 455.50304443 -40.70898438 455.52148438 C-55.03847165 455.54292067 -69.36786946 455.55130142 -83.69737053 455.53903532 C-85.22718174 455.53776121 -86.75699296 455.53650372 -88.2868042 455.53526306 C-89.03937771 455.53464596 -89.79195123 455.53402886 -90.56733 455.53339306 C-95.85474343 455.52994842 -101.14209981 455.53574932 -106.42950439 455.54518127 C-112.8786261 455.55643337 -119.32755322 455.55329414 -125.77665281 455.5320583 C-129.06320134 455.52159067 -132.34936153 455.51952797 -135.63591766 455.53065491 C-139.20730557 455.54162916 -142.7777903 455.52782244 -146.34912109 455.50793457 C-147.88898398 455.5213189 -147.88898398 455.5213189 -149.45995522 455.53497362 C-157.64299926 455.44693728 -164.70847229 453.47954934 -171.8125 449.375 C-177.62794569 443.06108753 -181.11949182 436.33922258 -181.13701439 427.75542355 C-181.1446262 425.78062902 -181.1446262 425.78062902 -181.15239179 423.76593965 C-181.15299349 422.29602178 -181.15349256 420.82610386 -181.15390015 419.35618591 C-181.15791426 417.80154802 -181.1623524 416.24691117 -181.1671797 414.69227558 C-181.17915689 410.40856562 -181.18479632 406.12486692 -181.18936086 401.84114349 C-181.19531267 397.22541238 -181.20692363 392.60969478 -181.21765137 387.99397278 C-181.24218592 376.84046638 -181.25680453 365.68695551 -181.26971143 354.53343043 C-181.27342275 351.38361518 -181.27739603 348.23380037 -181.2814641 345.08398557 C-181.30670114 325.5281574 -181.32875642 305.97232855 -181.34119225 286.41648769 C-181.344122 281.88564997 -181.34708365 277.35481228 -181.35009766 272.82397461 C-181.35084371 271.69784183 -181.35158976 270.57170906 -181.35235842 269.41145105 C-181.36501132 251.16981208 -181.3982328 232.9282706 -181.43989949 214.68667721 C-181.48231876 195.96222781 -181.50588732 177.23782832 -181.51111281 158.513331 C-181.51452704 147.99870867 -181.52628367 137.48423866 -181.55921555 126.96966362 C-181.58721714 118.0144924 -181.5982149 109.0595047 -181.58702008 100.1042931 C-181.58183364 95.53591058 -181.58471926 90.9679124 -181.60948563 86.39958572 C-181.63198775 82.21392614 -181.63123104 78.02892675 -181.61228175 73.84325553 C-181.60948307 72.33240104 -181.6150731 70.8215017 -181.63009469 69.3107193 C-181.72134721 59.53188574 -180.94055232 51.32873284 -174.02312696 43.86780351 C-167.54282768 37.70440806 -160.25795499 34.8612452 -151.30151367 34.88647461 C-149.9506794 34.88658791 -149.9506794 34.88658791 -148.57255554 34.88670349 C-147.13478508 34.89444542 -147.13478508 34.89444542 -145.66796875 34.90234375 C-144.18034782 34.90446617 -144.18034782 34.90446617 -142.66267395 34.90663147 C-139.50425157 34.91221582 -136.34590085 34.92476548 -133.1875 34.9375 C-131.04231873 34.94251702 -128.89713635 34.94707958 -126.75195312 34.95117188 C-121.50127776 34.96218012 -116.250644 34.9789027 -111 35 C-111.01933594 33.33710937 -111.01933594 33.33710937 -111.0390625 31.640625 C-110.98417722 26.52531646 -110.98417722 26.52531646 -109 24 C-103.42292165 20.27069366 -98.15159321 20.61098632 -91.6953125 20.70703125 C-90.61619598 20.71127609 -89.53707947 20.71552094 -88.42526245 20.71989441 C-84.99158376 20.7366358 -81.55850017 20.77428056 -78.125 20.8125 C-75.79167517 20.82755266 -73.4583411 20.84124005 -71.125 20.85351562 C-65.41646493 20.88652446 -59.70827499 20.93667895 -54 21 C-53.85594727 19.89156738 -53.71189453 18.78313477 -53.56347656 17.64111328 C-52.29893394 9.46980101 -46.58081634 4.2038883 -40.625 -1.125 C-28.47824518 -9.80125344 -11.6718099 -9.22887295 0 0 Z M-40 14 C-42.57043283 18.07723828 -43.84016014 22.4405605 -45.15625 27.046875 C-46 29 -46 29 -49 31 C-51.29692078 31.2784729 -51.29692078 31.2784729 -54.0222168 31.31884766 C-55.04304855 31.33871735 -56.06388031 31.35858704 -57.11564636 31.37905884 C-58.21572525 31.39061005 -59.31580414 31.40216125 -60.44921875 31.4140625 C-61.5769722 31.43342865 -62.70472565 31.4527948 -63.86665344 31.4727478 C-67.47352503 31.53259307 -71.08042844 31.57894922 -74.6875 31.625 C-77.1308734 31.66317518 -79.57423328 31.70222664 -82.01757812 31.7421875 C-88.01159884 31.8382987 -94.00570079 31.92333178 -100 32 C-100.05067427 39.47474272 -100.08572275 46.94944119 -100.10986328 54.42431641 C-100.11992616 56.96762752 -100.13357774 59.51092705 -100.15087891 62.05419922 C-100.17511427 65.70803688 -100.18648027 69.36172168 -100.1953125 73.015625 C-100.20563507 74.15429016 -100.21595764 75.29295532 -100.22659302 76.46612549 C-100.22674408 77.52692322 -100.22689514 78.58772095 -100.22705078 79.68066406 C-100.231492 80.61332092 -100.23593323 81.54597778 -100.24050903 82.50689697 C-99.98171406 85.18955098 -99.47107252 86.75254616 -98 89 C-94.51731088 91.32179275 -93.16048857 91.25470178 -89.04750061 91.26742554 C-87.80386246 91.27595551 -86.5602243 91.28448547 -85.27890015 91.29327393 C-83.89825427 91.29257488 -82.51760849 91.29165181 -81.13696289 91.29052734 C-79.6848974 91.29651078 -78.23283509 91.3033159 -76.78077698 91.31088257 C-72.83451394 91.32856754 -68.88833761 91.33323896 -64.94203877 91.33451414 C-61.649196 91.33641214 -58.35637348 91.34376845 -55.06353849 91.35085833 C-47.29601069 91.36714898 -39.52852925 91.37202663 -31.76098633 91.37060547 C-23.74418151 91.36940348 -15.72764568 91.39051497 -7.71090895 91.4220928 C-0.83099984 91.4482285 6.04882127 91.45897392 12.92877966 91.45769465 C17.03920891 91.45718426 21.14939911 91.46290957 25.25977898 91.48405075 C29.1250152 91.5033881 32.98978323 91.50358895 36.85503578 91.48901749 C38.27402809 91.48692272 39.69304935 91.49167 41.11199188 91.5037384 C43.04810812 91.51913967 44.98438333 91.50750699 46.92051697 91.49447632 C48.00433623 91.49556585 49.0881555 91.49665539 50.20481777 91.49777794 C53.67425741 90.87992537 54.82303233 89.70947404 57 87 C58.26372044 84.47255912 58.12022795 82.73619692 58.11352539 79.90771484 C58.11344986 78.84676605 58.11337433 77.78581726 58.11329651 76.69271851 C58.10813522 75.54373077 58.10297394 74.39474304 58.09765625 73.2109375 C58.0962413 72.03737701 58.09482635 70.86381653 58.09336853 69.6546936 C58.08775689 65.89477015 58.07520238 62.13490555 58.0625 58.375 C58.0574865 55.83073002 58.05292333 53.28645912 58.04882812 50.7421875 C58.03778368 44.49477147 58.02103418 38.24738994 58 32 C57.36995056 31.99413376 56.73990112 31.98826752 56.09075928 31.98222351 C49.53693444 31.91832139 42.9836021 31.8339098 36.43017578 31.73754883 C33.98395274 31.70428123 31.5376526 31.67625509 29.09130859 31.65356445 C25.57616295 31.62005292 22.06172505 31.56773724 18.546875 31.51171875 C17.4519574 31.50532883 16.35703979 31.4989389 15.22894287 31.49235535 C14.20818665 31.47256119 13.18743042 31.45276703 12.13574219 31.43237305 C10.79005157 31.41571846 10.79005157 31.41571846 9.41717529 31.39872742 C6.51735585 30.92038498 5.13667514 29.98792237 3 28 C2.09375 25.73046875 2.09375 25.73046875 1.5 23.1875 C-0.56457256 15.62106122 -4.521296 10.3826527 -11 6 C-22.67373479 1.49434798 -31.79133565 5.1642849 -40 14 Z M-166.37729216 52.46285808 C-171.22214462 59.09628709 -170.6935836 66.1363044 -170.62145996 74.04421997 C-170.62579207 75.58128144 -170.63231089 77.11833802 -170.64082003 78.65538204 C-170.65778563 82.86731811 -170.64364869 87.07865826 -170.62430525 91.29056287 C-170.60886348 95.83729655 -170.62228385 100.3839579 -170.63204956 104.93069458 C-170.64657054 113.83250414 -170.63434815 122.73408551 -170.61293632 131.63587345 C-170.58891936 142.00127926 -170.59064108 152.36663285 -170.59324223 162.7320603 C-170.59693181 181.22457848 -170.5761109 199.71698915 -170.54199219 218.20947266 C-170.50889162 236.15676591 -170.49473559 254.10394636 -170.50097656 272.05126953 C-170.50773903 291.59438856 -170.50528515 311.13746034 -170.48561716 330.68057239 C-170.48457768 331.71374944 -170.48353819 332.74692649 -170.4824672 333.81141194 C-170.4803763 335.88651954 -170.47826533 337.96162712 -170.47613403 340.03673468 C-170.46923622 347.26357992 -170.46856948 354.49041061 -170.47001648 361.71725845 C-170.47145546 370.52163304 -170.46177835 379.3259156 -170.43807012 388.13025965 C-170.42620231 392.62313754 -170.41909022 397.11588708 -170.42490768 401.60877991 C-170.43007439 405.72052027 -170.42140952 409.83198933 -170.40163308 413.94368325 C-170.39688823 415.43209344 -170.39719979 416.92053 -170.40304345 418.40893628 C-170.41021511 420.43075494 -170.39716443 422.45261513 -170.38311005 424.47439766 C-170.38153884 425.59783046 -170.37996764 426.72126326 -170.37834883 427.87873948 C-169.75612271 433.01191204 -167.85005552 436.1688346 -164.1875 439.75 C-157.7311628 444.30741449 -151.78971402 444.28897806 -144.1579895 444.26069641 C-143.06411545 444.26452196 -141.97024139 444.26834751 -140.84321964 444.27228898 C-137.17684367 444.28260995 -133.51062458 444.27862847 -129.84423828 444.2746582 C-127.21597142 444.27900517 -124.58770584 444.28418827 -121.95944214 444.29014587 C-115.56069762 444.30288901 -109.16199507 444.30468703 -102.76323999 444.30234561 C-97.56131088 444.30056179 -92.35939449 444.30231346 -87.15746689 444.30657005 C-86.4167928 444.30716524 -85.67611871 444.30776043 -84.91299995 444.30837366 C-83.408259 444.30958542 -81.90351806 444.31079956 -80.39877711 444.31201603 C-66.29009805 444.32289017 -52.18144289 444.32072973 -38.07276247 444.31463119 C-25.17133149 444.30946263 -12.26997602 444.32071606 0.63144003 444.33972941 C13.88446119 444.35911091 27.13744664 444.36736323 40.39048207 444.36360615 C47.82869459 444.36169452 55.26684284 444.36417795 62.70504379 444.37832069 C69.6998512 444.39148596 76.69450503 444.38897019 83.68931198 444.37590981 C86.2563736 444.37354092 88.82344582 444.37628981 91.3904953 444.38453293 C94.89518039 444.3949753 98.39935552 444.3869192 101.90402222 444.3742218 C102.91940091 444.38159609 103.9347796 444.38897037 104.98092735 444.39656812 C111.66097825 444.34566816 117.7269651 443.73270466 123.05859375 439.28125 C123.51363281 438.6934375 123.96867187 438.105625 124.4375 437.5 C124.91058594 436.9121875 125.38367188 436.324375 125.87109375 435.71875 C128.2081556 432.16059354 128.12844913 428.97641357 128.13701439 424.84354115 C128.14208893 423.54667844 128.14716347 422.24981573 128.15239179 420.91365415 C128.15299349 419.46593976 128.15349256 418.01822532 128.15390015 416.57051086 C128.1579143 415.03919637 128.16235245 413.50788293 128.1671797 411.97657079 C128.1791562 407.75740905 128.18479614 403.53825875 128.18936086 399.31908333 C128.19531283 394.77292067 128.20692365 390.22677171 128.21765137 385.68061829 C128.24218402 374.69620091 128.25680347 363.71177899 128.26971143 352.72734264 C128.27342263 349.62570663 128.27739592 346.52407108 128.2814641 343.42243552 C128.30669905 324.16821885 128.3287556 304.91400148 128.34119225 285.65977192 C128.34412202 281.19904388 128.34708367 276.73831587 128.35009766 272.27758789 C128.35121673 270.61451733 128.35121673 270.61451733 128.35235842 268.91784938 C128.36501503 250.95291923 128.39824178 232.98808797 128.43989949 215.02320407 C128.48230305 196.58578746 128.50588543 178.14842152 128.51111281 159.71095628 C128.51452863 149.356246 128.52630411 139.0016903 128.55921555 128.64702797 C128.58719545 119.82940657 128.59822441 111.01197144 128.58702008 102.19430909 C128.58182823 97.69503126 128.58475428 93.19614363 128.60948563 88.6969223 C128.63194449 84.57674526 128.6312648 80.45723948 128.61228175 76.33705094 C128.609477 74.84776609 128.61510682 73.35843606 128.63009469 71.86922399 C128.70620872 63.8128638 128.76503196 57.11811902 123 51 C117.23459968 46.43593104 112.20938885 46.46005825 105.03515625 46.609375 C103.48519203 46.61786469 103.48519203 46.61786469 101.90391541 46.62652588 C98.62296043 46.64880951 95.34312156 46.69899217 92.0625 46.75 C89.83009396 46.7700753 87.59767071 46.78832426 85.36523438 46.8046875 C79.90973013 46.84864826 74.45505391 46.9176213 69 47 C69 52.61 69 58.22 69 64 C72.95419922 64.09087891 72.95419922 64.09087891 76.98828125 64.18359375 C79.53998658 64.24539332 82.09164798 64.3087768 84.64331055 64.37231445 C86.41735937 64.41563934 88.19144923 64.45731619 89.96557617 64.49731445 C92.51493705 64.5550762 95.0640918 64.61875362 97.61328125 64.68359375 C98.80405022 64.70866249 98.80405022 64.70866249 100.01887512 64.73423767 C103.24683077 64.82117718 105.91751099 64.97250366 109 66 C110.06746896 69.20240687 110.12857234 71.48864489 110.13422108 74.85528469 C110.13867892 76.08494628 110.14313676 77.31460788 110.14772969 78.58153194 C110.1476404 79.9533974 110.14745054 81.32526286 110.14717102 82.6971283 C110.15046964 84.14879742 110.15419521 85.60046563 110.1583125 87.05213267 C110.16834036 91.05098754 110.17205054 95.0498274 110.17470181 99.04869306 C110.17860239 103.35755705 110.18818072 107.66640912 110.19691467 111.9752655 C110.21668331 122.38420512 110.22674459 132.79314572 110.23564246 143.20209941 C110.24002363 148.10038161 110.24539079 152.99866271 110.25063133 157.89694405 C110.26764199 174.17277648 110.28213803 190.44860824 110.28938007 206.7244482 C110.29129005 210.94870441 110.29321037 215.17296061 110.29516602 219.3972168 C110.29564976 220.44716745 110.2961335 221.4971181 110.2966319 222.57888544 C110.30493923 239.6023902 110.33028873 256.62582484 110.36274669 273.64929896 C110.39577708 291.11488633 110.41382508 308.58043802 110.41702431 326.04605681 C110.41919286 335.85735234 110.42799199 345.66854555 110.45348549 355.47981071 C110.47513742 363.8320081 110.48327008 372.18407832 110.47351871 380.53630059 C110.4689583 384.80010245 110.4709607 389.06364161 110.49028015 393.32740784 C110.50780079 397.2277229 110.50700547 401.12758148 110.49138286 405.02790064 C110.4889898 406.441741 110.49341751 407.85561205 110.50521151 409.26940524 C110.52021326 411.1858392 110.50832978 413.10242796 110.49498463 415.01887417 C110.49596144 416.08502152 110.49693824 417.15116887 110.49794465 418.24962372 C109.87589089 421.68551145 108.68080608 422.83816359 106 425 C103.70269872 426.14865064 102.41802903 426.12721573 99.86352825 426.13142776 C98.99178075 426.13526891 98.12003326 426.13911005 97.22186917 426.1430676 C96.25836838 426.14220112 95.29486759 426.14133463 94.3021698 426.14044189 C92.77356613 426.14489858 92.77356613 426.14489858 91.21408159 426.1494453 C87.77707161 426.15816206 84.34009634 426.15964305 80.90307617 426.16113281 C78.44787013 426.16575887 75.9926648 426.17078324 73.53746033 426.17617798 C66.85150452 426.18932423 60.16556238 426.19578767 53.47959685 426.20018864 C49.30620874 426.20294946 45.13282296 426.20718653 40.95943642 426.21169281 C29.4086061 426.22388705 17.85777765 426.2341859 6.30694103 426.2375679 C5.56736627 426.23778747 4.82779151 426.23800703 4.06580539 426.23823325 C3.32444189 426.23845153 2.58307839 426.23866981 1.81924933 426.2388947 C0.31691817 426.23933817 -1.18541298 426.23978473 -2.68774414 426.24023438 C-3.43295528 426.2404558 -4.17816642 426.24067723 -4.94595971 426.24090537 C-17.02195403 426.24485366 -29.09788802 426.26230789 -41.17385904 426.2855939 C-53.56679491 426.30929855 -65.95970049 426.32176936 -78.3526594 426.32293582 C-85.31297285 426.32385311 -92.27320771 426.32961882 -99.23349953 426.34775543 C-105.77926157 426.36475152 -112.3249006 426.36641566 -118.87068748 426.35761642 C-121.27614109 426.3568434 -123.68160257 426.36122346 -126.08703613 426.37107468 C-129.36527702 426.38371527 -132.6429823 426.37796012 -135.92121887 426.36749268 C-137.35643181 426.37957728 -137.35643181 426.37957728 -138.82063895 426.39190602 C-143.6765356 426.35552509 -147.09438258 426.2376074 -151 423 C-152.34075189 420.31849623 -152.12538398 418.26922365 -152.12584114 415.26496983 C-152.12844889 414.03668258 -152.13105664 412.80839534 -152.13374341 411.54288727 C-152.13158101 410.1673904 -152.12932434 408.79189367 -152.12698364 407.41639709 C-152.12813483 405.96487894 -152.12972234 404.51336107 -152.13171089 403.06184381 C-152.13590456 399.05879252 -152.13381334 395.05576492 -152.13072467 391.05271351 C-152.12847093 386.74112923 -152.13195007 382.42954915 -152.13470459 378.1179657 C-152.13916167 369.66560559 -152.13818606 361.21325435 -152.13529195 352.76089389 C-152.13303752 345.89359341 -152.13272557 339.02629542 -152.13381577 332.15899467 C-152.133969 331.18320467 -152.13412223 330.20741466 -152.13428011 329.20205526 C-152.13459982 327.22001152 -152.13492403 325.23796778 -152.1352527 323.25592404 C-152.13810735 304.65031873 -152.13482078 286.04471835 -152.12945233 267.43911385 C-152.12498501 251.46176679 -152.12575967 235.484427 -152.13037109 219.50708008 C-152.13571833 200.97156051 -152.13783192 182.43604526 -152.13475883 163.90052503 C-152.13444027 161.92529039 -152.1341259 159.95005574 -152.13381577 157.97482109 C-152.13366149 157.00286639 -152.13350721 156.03091169 -152.13334826 155.02950381 C-152.13248351 148.16800965 -152.13394512 141.30651823 -152.13629532 134.44502449 C-152.1390952 126.08658324 -152.13835109 117.72815139 -152.13301457 109.36971123 C-152.13038001 105.10208387 -152.12936837 100.8344722 -152.13266373 96.56684494 C-152.13563173 92.66421485 -152.13402537 88.76161506 -152.12868617 84.85898774 C-152.12756415 83.44312225 -152.12814846 82.02725423 -152.13056196 80.61139036 C-152.13358013 78.69455241 -152.12990211 76.77770734 -152.12584114 74.86087132 C-152.12567879 73.79380217 -152.12551644 72.72673303 -152.12534916 71.62732846 C-152 69 -152 69 -151 66 C-147.20123729 64.73374576 -143.57578074 64.76701453 -139.61328125 64.68359375 C-138.79627243 64.66281265 -137.97926361 64.64203156 -137.13749695 64.62062073 C-134.52924966 64.55526921 -131.92090225 64.49630727 -129.3125 64.4375 C-127.54360946 64.39430108 -125.77472903 64.35068635 -124.00585938 64.30664062 C-119.67067403 64.19882044 -115.33541198 64.09964028 -111 64 C-111 58.39 -111 52.78 -111 47 C-117.56530388 46.90085503 -124.13016845 46.82839978 -130.69604492 46.78027344 C-132.92789302 46.76020315 -135.15968882 46.73294067 -137.39135742 46.69824219 C-140.60608857 46.64952328 -143.82012227 46.62698484 -147.03515625 46.609375 C-148.02709488 46.58872986 -149.01903351 46.56808472 -150.04103088 46.54681396 C-156.91431866 46.54460588 -161.46426927 47.24460777 -166.37729216 52.46285808 Z M-142 75 C-142 187.2 -142 299.4 -142 415 C-62.14 415 17.72 415 100 415 C100 302.8 100 190.6 100 75 C89.77 75 79.54 75 69 75 C68.67 79.29 68.34 83.58 68 88 C65.87494108 93.5403322 64.08612596 96.73966285 59 100 C55.7181797 101.0939401 53.29566556 101.13402968 49.83990479 101.14717102 C48.55011719 101.15432632 47.26032959 101.16148163 45.93145752 101.16885376 C44.49890161 101.17169401 43.06634544 101.17440574 41.63378906 101.17700195 C40.1274805 101.18326738 38.62117349 101.18991425 37.11486816 101.19691467 C32.16513138 101.21794833 27.2153943 101.22831649 22.265625 101.23828125 C20.56105279 101.24232908 18.85648075 101.24644601 17.15190887 101.25063133 C9.14340203 101.26968158 1.1349044 101.28391289 -6.87362075 101.2922433 C-16.11505157 101.30201513 -25.35624284 101.32833383 -34.59758925 101.36874419 C-41.74250038 101.39891408 -48.88734286 101.41371301 -56.03231645 101.41702431 C-60.29879017 101.41937384 -64.56500793 101.42832146 -68.83141327 101.45348549 C-72.84683488 101.47678659 -76.86183235 101.48099143 -80.87730408 101.47072411 C-82.34825807 101.47022912 -83.81923309 101.47653858 -85.29012299 101.49028015 C-99.20042928 101.61292789 -99.20042928 101.61292789 -105 97 C-110.85814943 89.44607048 -110.18869642 85.54694651 -111 75 C-121.23 75 -131.46 75 -142 75 Z " fill="#000000" transform="translate(277,32)"/>
<path d="M0 0 C0.73619064 -0.00570007 1.47238129 -0.01140015 2.23088074 -0.01727295 C3.78842741 -0.02671256 5.34599395 -0.03325281 6.90356445 -0.03710938 C9.27395961 -0.04679731 11.64348078 -0.07782175 14.01367188 -0.109375 C15.52994279 -0.11590741 17.04621988 -0.12115695 18.5625 -0.125 C19.26582962 -0.1373468 19.96915924 -0.1496936 20.69380188 -0.16241455 C25.35478932 -0.14155454 28.54239705 0.70615257 32.48046875 3.203125 C36.25446075 9.49311167 37.08858597 17.08576694 38.48046875 24.203125 C41.92122699 25.60275547 43.82906474 26.30859884 47.48046875 26.203125 C51.04811733 24.43003371 54.03194677 22.44336113 57.26953125 20.12109375 C60.90808067 17.94770231 63.25044824 17.26491182 67.48046875 17.203125 C72.12683833 19.11807112 75.26580275 21.60368265 78.80859375 25.1328125 C79.52121368 25.84112717 79.52121368 25.84112717 80.24822998 26.56375122 C81.24339298 27.55688578 82.23483014 28.55376669 83.22265625 29.55419922 C84.7298858 31.07753582 86.2525138 32.58414777 87.77734375 34.08984375 C88.74705736 35.06153931 89.7158402 36.03416482 90.68359375 37.0078125 C91.55661133 37.88421387 92.42962891 38.76061523 93.32910156 39.66357422 C96.42331608 43.31609571 97.52593658 45.83281875 97.3671875 50.6171875 C96.35647035 54.70458108 94.73806852 57.16929399 92.29296875 60.578125 C90.19399958 63.67760879 88.50965659 66.19266989 88.3984375 70.04296875 C88.97296393 72.76929169 88.97296393 72.76929169 90.48046875 76.203125 C91.17011719 76.31269531 91.85976563 76.42226562 92.5703125 76.53515625 C108.50027073 79.22292698 108.50027073 79.22292698 112.48046875 83.203125 C114.54844049 87.33906849 114.64115984 91.02223962 114.6484375 95.5390625 C114.6517659 96.25542877 114.6550943 96.97179504 114.65852356 97.70986938 C114.66358229 99.22454182 114.66593221 100.73922538 114.66577148 102.25390625 C114.66795416 104.56268856 114.68610995 106.87098994 114.70507812 109.1796875 C114.7080131 110.65364421 114.7099972 112.12760317 114.7109375 113.6015625 C114.71812302 114.28817963 114.72530853 114.97479675 114.73271179 115.68222046 C114.7098788 120.51078091 114.13020879 124.10471458 111.11328125 127.94213867 C109.19025336 129.42725217 107.72402267 129.86662157 105.35546875 130.37890625 C104.5665625 130.56775391 103.77765625 130.75660156 102.96484375 130.95117188 C101.31108803 131.32690726 99.65476991 131.6915404 97.99609375 132.04492188 C92.88475206 133.29008571 92.88475206 133.29008571 89.35546875 137.12109375 C88.3029927 140.78342054 88.3029927 140.78342054 89.48046875 144.203125 C91.200052 147.26718634 93.04199886 150.24035926 94.88671875 153.23046875 C97.01084546 157.19238156 97.86212686 159.57367274 96.82617188 163.99658203 C95.23797866 167.78093067 93.00585442 170.20340807 90.10546875 173.00390625 C89.58033691 173.52574997 89.05520508 174.04759369 88.51416016 174.58525085 C87.40925818 175.67977898 86.29962163 176.76954619 85.18554688 177.85473633 C83.47701113 179.51899301 81.78237392 181.19643541 80.08984375 182.87695312 C79.01249213 183.94088787 77.93439285 185.00406618 76.85546875 186.06640625 C76.34709473 186.56739334 75.8387207 187.06838043 75.31494141 187.58454895 C71.6233613 191.17614353 69.33967863 192.75402825 64.03125 192.7734375 C59.3246069 191.72110995 55.51244137 188.60591432 51.62890625 185.85546875 C47.91667035 183.90723576 46.43680041 184.05612128 42.48046875 185.203125 C41.49046875 185.533125 40.50046875 185.863125 39.48046875 186.203125 C38.69790444 187.93390425 38.69790444 187.93390425 38.3046875 190.0625 C38.02141602 191.24199219 38.02141602 191.24199219 37.73242188 192.4453125 C37.36002796 194.09982386 36.99527076 195.75607507 36.63867188 197.4140625 C36.44595703 198.20554687 36.25324219 198.99703125 36.0546875 199.8125 C35.89572998 200.53405273 35.73677246 201.25560547 35.57299805 201.99902344 C33.93030442 205.31304312 31.67550432 207.44149987 28.48046875 209.203125 C25.5581366 209.89127023 22.75056471 209.90579573 19.7578125 209.8671875 C18.52316002 209.87436295 18.52316002 209.87436295 17.26356506 209.88168335 C15.53140338 209.88507175 13.79917682 209.8759436 12.06713867 209.85498047 C9.42156162 209.82816142 6.78021298 209.8547778 4.13476562 209.88671875 C2.44660526 209.88341513 0.75844752 209.87700987 -0.9296875 209.8671875 C-1.71626236 209.87730865 -2.50283722 209.88742981 -3.31324768 209.89785767 C-7.44489436 209.80998434 -9.08677437 209.53613893 -12.46850586 206.93383789 C-14.36547578 204.40823278 -15.2825853 202.88470436 -15.92578125 199.84765625 C-16.11269531 199.06068359 -16.29960937 198.27371094 -16.4921875 197.46289062 C-16.84616352 195.82017968 -17.19769407 194.17694002 -17.546875 192.53320312 C-18.54454841 187.85067987 -18.54454841 187.85067987 -21.80078125 184.58984375 C-27.78239035 183.73901142 -31.45552965 185.523177 -36.39453125 188.765625 C-44.51060268 193.60520833 -44.51060268 193.60520833 -50.51953125 192.203125 C-56.91772961 187.58021003 -62.40523124 181.46970658 -67.95703125 175.890625 C-68.77107422 175.08044922 -69.58511719 174.27027344 -70.42382812 173.43554688 C-71.58301758 172.27442383 -71.58301758 172.27442383 -72.765625 171.08984375 C-73.46357178 170.39076904 -74.16151855 169.69169434 -74.88061523 168.97143555 C-77.68837189 165.94200289 -77.85999382 163.46106461 -77.80908203 159.36035156 C-77.32029631 155.7187743 -75.47689549 153.07925885 -73.45703125 150.078125 C-70.31150966 145.44708607 -70.31150966 145.44708607 -69.7109375 139.9609375 C-70.27695053 138.03047759 -70.88336726 136.11161697 -71.51953125 134.203125 C-73.24935177 133.40443604 -73.24935177 133.40443604 -75.37890625 132.9921875 C-76.16523438 132.79882812 -76.9515625 132.60546875 -77.76171875 132.40625 C-79.41705192 132.02464671 -81.07329337 131.64695957 -82.73046875 131.2734375 C-83.52195313 131.0775 -84.3134375 130.8815625 -85.12890625 130.6796875 C-85.85045898 130.51549316 -86.57201172 130.35129883 -87.31542969 130.18212891 C-90.6221553 128.71336842 -92.31040698 127.07734402 -94.51953125 124.203125 C-95.22045335 121.3182713 -95.19809259 118.53578082 -95.1484375 115.578125 C-95.15084946 114.7536084 -95.15326141 113.9290918 -95.15574646 113.07958984 C-95.15476971 111.34142228 -95.14141692 109.60322296 -95.11645508 107.86523438 C-95.08213515 105.21116004 -95.09580525 102.56041586 -95.11523438 99.90625 C-95.10833556 98.21352756 -95.09866285 96.52081367 -95.0859375 94.828125 C-95.09089737 94.03841309 -95.09585724 93.24870117 -95.10096741 92.43505859 C-95.01849205 88.55890036 -94.77440967 86.61147643 -92.6730957 83.24487305 C-89.96795504 80.68018748 -87.73190345 79.9730938 -84.14453125 79.015625 C-82.49324219 78.56123047 -82.49324219 78.56123047 -80.80859375 78.09765625 C-79.18050781 77.65486328 -79.18050781 77.65486328 -77.51953125 77.203125 C-73.00724219 76.12507655 -73.00724219 76.12507655 -70.08203125 72.890625 C-68.92810532 67.37742334 -71.12379166 63.95049734 -74.08203125 59.390625 C-78.92033658 51.20657643 -78.92033658 51.20657643 -77.51953125 45.203125 C-76.23681641 43.4362793 -76.23681641 43.4362793 -74.55859375 41.58984375 C-73.60944092 40.54401123 -73.60944092 40.54401123 -72.64111328 39.47705078 C-71.94099121 38.72665527 -71.24086914 37.97625977 -70.51953125 37.203125 C-69.77944824 36.4076123 -69.03936523 35.61209961 -68.27685547 34.79248047 C-65.8841478 32.25665757 -63.45673704 29.75865936 -61.01953125 27.265625 C-60.20355469 26.40388672 -59.38757813 25.54214844 -58.546875 24.65429688 C-52.55036655 18.54709846 -52.55036655 18.54709846 -47.80859375 16.96484375 C-44.02649142 17.23884404 -41.7125783 18.13383027 -38.39453125 19.953125 C-37.40195313 20.48421875 -36.409375 21.0153125 -35.38671875 21.5625 C-33.50873312 22.63709668 -31.66078326 23.76640333 -29.8515625 24.953125 C-27.46777989 26.56195843 -27.46777989 26.56195843 -24.33203125 25.453125 C-22.7138233 24.73392147 -21.10341273 23.99506574 -19.51953125 23.203125 C-18.83840483 21.44163943 -18.83840483 21.44163943 -18.37109375 19.30859375 C-18.17 18.51775391 -17.96890625 17.72691406 -17.76171875 16.91210938 C-17.35340671 15.24397378 -16.94968521 13.57470721 -16.55078125 11.90429688 C-15.37679554 7.32352352 -14.49710984 4.12871852 -10.51953125 1.203125 C-6.96197037 0.01727137 -3.70440321 0.02219229 0 0 Z M-4.51953125 12.203125 C-5.26203125 15.214375 -6.00453125 18.225625 -6.76953125 21.328125 C-8.20943962 26.33183813 -9.42996786 30.17538081 -13.2734375 33.80078125 C-16.35755696 35.40389315 -19.13864157 36.41615588 -22.51953125 37.203125 C-23.27363281 37.40292969 -24.02773437 37.60273438 -24.8046875 37.80859375 C-32.40276043 38.78853213 -39.41299454 33.09463061 -45.51953125 29.203125 C-52.6775435 35.02941404 -59.04544891 41.6414235 -65.51953125 48.203125 C-64.29181785 52.31536891 -62.79884443 55.53553795 -60.39453125 59.078125 C-58.22041831 62.67665677 -56.55323789 65.61841674 -56.9375 69.98828125 C-58.60553651 76.33577591 -61.06487697 82.58305317 -66.64453125 86.265625 C-67.92328125 86.575 -69.20203125 86.884375 -70.51953125 87.203125 C-71.5353125 87.46222656 -72.55109375 87.72132813 -73.59765625 87.98828125 C-75.74020623 88.53407301 -77.88861448 89.05752882 -80.04296875 89.5546875 C-82.44584301 89.9611221 -82.44584301 89.9611221 -83.51953125 91.203125 C-83.60720237 93.27574576 -83.62648998 95.35132794 -83.6171875 97.42578125 C-83.61396484 98.68583984 -83.61074219 99.94589844 -83.60742188 101.24414062 C-83.59906528 102.58463609 -83.59060032 103.92513088 -83.58203125 105.265625 C-83.57701785 106.61002442 -83.57245467 107.9544256 -83.56835938 109.29882812 C-83.55652613 112.60030441 -83.54004096 115.90169303 -83.51953125 119.203125 C-81.62267578 119.72712891 -81.62267578 119.72712891 -79.6875 120.26171875 C-78.0273324 120.72131317 -76.36717677 121.18095084 -74.70703125 121.640625 C-73.87365234 121.87072266 -73.04027344 122.10082031 -72.18164062 122.33789062 C-71.37919922 122.56025391 -70.57675781 122.78261719 -69.75 123.01171875 C-69.01160889 123.21595459 -68.27321777 123.42019043 -67.51245117 123.63061523 C-65.83538123 124.1123902 -64.17488729 124.65133965 -62.51953125 125.203125 C-61.51953125 127.828125 -61.51953125 127.828125 -60.51953125 131.203125 C-59.98328125 132.3375 -59.44703125 133.471875 -58.89453125 134.640625 C-57.25563088 138.88686686 -56.41781288 142.66876294 -58.30712891 147.01489258 C-59.72742743 149.48177987 -61.28248961 151.84287591 -62.8515625 154.21679688 C-64.1273162 156.18487362 -64.1273162 156.18487362 -65.51953125 159.203125 C-64.35613025 162.63852387 -62.15494088 164.80107969 -59.60546875 167.3125 C-58.84492188 168.06660156 -58.084375 168.82070313 -57.30078125 169.59765625 C-56.50671875 170.37496094 -55.71265625 171.15226563 -54.89453125 171.953125 C-54.09273437 172.74589844 -53.2909375 173.53867187 -52.46484375 174.35546875 C-50.48750279 176.30926993 -48.50564216 178.25824603 -46.51953125 180.203125 C-42.82646795 178.77023807 -39.55294588 177.09973482 -36.14453125 175.078125 C-31.61869032 172.62210199 -28.73837849 171.17799429 -23.51953125 172.203125 C-20.57423056 173.39849809 -17.72198959 174.69569741 -14.875 176.109375 C-12.65003873 177.34351017 -12.65003873 177.34351017 -10.51953125 177.203125 C-10.0800472 178.64001966 -9.64310724 180.07769238 -9.20703125 181.515625 C-8.96339844 182.31613281 -8.71976562 183.11664063 -8.46875 183.94140625 C-7.09039686 188.67772261 -5.8174377 193.44413468 -4.51953125 198.203125 C4.72046875 198.203125 13.96046875 198.203125 23.48046875 198.203125 C25.86428882 191.05261746 25.86428882 191.05261746 27.79296875 183.890625 C28.85299671 180.36084119 29.34068167 179.32990863 32.16796875 176.765625 C38.48417526 173.78628231 43.31339935 171.55157324 50.48046875 172.203125 C53.71225539 173.60866663 56.5625296 175.5974711 59.49414062 177.53515625 C61.46221737 178.81090995 61.46221737 178.81090995 64.48046875 180.203125 C67.91586762 179.039724 70.07842344 176.83853463 72.58984375 174.2890625 C73.34394531 173.52851563 74.09804688 172.76796875 74.875 171.984375 C75.65230469 171.1903125 76.42960938 170.39625 77.23046875 169.578125 C78.02324219 168.77632812 78.81601562 167.97453125 79.6328125 167.1484375 C81.58661368 165.17109654 83.53558978 163.18923591 85.48046875 161.203125 C84.86258251 159.93333003 84.24070376 158.66547741 83.6171875 157.3984375 C83.27131592 156.69219238 82.92544434 155.98594727 82.5690918 155.25830078 C81.40516251 152.95886322 81.40516251 152.95886322 79.29296875 150.078125 C77.25762958 146.84965597 76.77028533 144.99338247 76.48046875 141.203125 C77.3359375 137.66015625 77.3359375 137.66015625 78.66796875 134.015625 C79.09464844 132.80519531 79.52132812 131.59476562 79.9609375 130.34765625 C81.865877 126.40555779 83.29216495 124.99214328 87.39331055 123.51342773 C89.66113899 122.79378227 91.93600619 122.1457117 94.23046875 121.515625 C96.95296875 120.7525 99.67546875 119.989375 102.48046875 119.203125 C102.48046875 109.633125 102.48046875 100.063125 102.48046875 90.203125 C98.08734375 88.965625 98.08734375 88.965625 93.60546875 87.703125 C92.22319092 87.31157227 92.22319092 87.31157227 90.81298828 86.91210938 C90.08708496 86.70908203 89.36118164 86.50605469 88.61328125 86.296875 C87.86965332 86.08740234 87.12602539 85.87792969 86.35986328 85.66210938 C84.47909048 85.12404277 84.47909048 85.12404277 82.48046875 85.203125 C75.99173849 69.26277395 75.99173849 69.26277395 77.35546875 63.515625 C78.60007928 61.57549682 79.84747437 59.63714043 81.1015625 57.703125 C81.65972656 56.81625 82.21789062 55.929375 82.79296875 55.015625 C83.34597656 54.19707031 83.89898437 53.37851563 84.46875 52.53515625 C85.75967718 50.29334337 85.75967718 50.29334337 84.78833008 48.31420898 C83.28669341 45.89034259 81.59792275 44.09494536 79.56640625 42.09375 C78.80585938 41.33964844 78.0453125 40.58554688 77.26171875 39.80859375 C76.070625 38.64263672 76.070625 38.64263672 74.85546875 37.453125 C74.05367187 36.66035156 73.251875 35.86757812 72.42578125 35.05078125 C70.44844029 33.09698007 68.46657966 31.14800397 66.48046875 29.203125 C62.88822339 30.58490108 59.96916438 32.1546622 56.79296875 34.328125 C51.58209395 37.47008951 47.47626495 38.4892603 41.48046875 37.203125 C38.69680403 36.06541934 36.12387121 34.78480995 33.51171875 33.296875 C31.57147898 32.04509173 31.57147898 32.04509173 29.48046875 32.203125 C29.29871094 31.51347656 29.11695313 30.82382813 28.9296875 30.11328125 C28.67832031 29.17355469 28.42695313 28.23382813 28.16796875 27.265625 C27.92433594 26.34910156 27.68070312 25.43257812 27.4296875 24.48828125 C26.23566607 20.35588609 24.84070318 16.28382828 23.48046875 12.203125 C14.24046875 12.203125 5.00046875 12.203125 -4.51953125 12.203125 Z " fill="#000000" transform="translate(246.51953125,150.796875)"/>
<path d="M0 0 C0.79044708 -0.00817749 1.58089417 -0.01635498 2.39529419 -0.02478027 C5.0177535 -0.04964297 7.6401586 -0.06615353 10.26269531 -0.08056641 C11.15804237 -0.08589008 12.05338943 -0.09121376 12.97586823 -0.09669876 C17.7159998 -0.12343567 22.456105 -0.14280779 27.19628906 -0.15722656 C32.09024896 -0.17386509 36.98353422 -0.2186344 41.87723923 -0.26959801 C45.64167037 -0.30327312 49.40594154 -0.31480433 53.17050934 -0.32045364 C54.97422687 -0.32716668 56.77793386 -0.34239018 58.58150482 -0.36634445 C61.10958084 -0.39800218 63.6358399 -0.39803231 66.1640625 -0.390625 C66.90610931 -0.40703033 67.64815613 -0.42343567 68.41268921 -0.44033813 C74.14949276 -0.37170555 76.46687467 1.26262753 80.34082031 5.19287109 C81.87485603 8.26094254 81.51456415 11.48388983 81.53369141 14.85205078 C81.54595764 16.03772141 81.54595764 16.03772141 81.55847168 17.24734497 C81.58333438 19.86980428 81.59984494 22.49220938 81.61425781 25.11474609 C81.61958149 26.01009315 81.62490517 26.90544022 81.63039017 27.82791901 C81.65712708 32.56805058 81.6764992 37.30815578 81.69091797 42.04833984 C81.7075565 46.94229974 81.7523258 51.835585 81.80328941 56.72929001 C81.83696453 60.49372115 81.84849574 64.25799232 81.85414505 68.02256012 C81.86085809 69.82627765 81.87608159 71.62998464 81.90003586 73.4335556 C81.93169358 75.96163162 81.93172371 78.48789068 81.92431641 81.01611328 C81.94072174 81.7581601 81.95712708 82.50020691 81.97402954 83.26473999 C81.90539695 89.00154354 80.27106388 91.31892545 76.34082031 95.19287109 C73.27274887 96.72690681 70.04980157 96.36661493 66.68164062 96.38574219 C65.89119354 96.39391968 65.10074646 96.40209717 64.28634644 96.41052246 C61.66388713 96.43538516 59.04148203 96.45189572 56.41894531 96.46630859 C55.07592472 96.47429411 55.07592472 96.47429411 53.7057724 96.48244095 C48.96564083 96.50917786 44.22553562 96.52854998 39.48535156 96.54296875 C34.59139167 96.55960728 29.69810641 96.60437658 24.8044014 96.65534019 C21.03997026 96.68901531 17.27569909 96.70054652 13.51113129 96.70619583 C11.70741375 96.71290887 9.90370676 96.72813237 8.1001358 96.75208664 C5.57205979 96.78374436 3.04580073 96.78377449 0.51757812 96.77636719 C-0.5954921 96.80097519 -0.5954921 96.80097519 -1.73104858 96.82608032 C-7.46785213 96.75744773 -9.78523404 95.12311466 -13.65917969 91.19287109 C-15.19321541 88.12479965 -14.83292352 84.90185235 -14.85205078 81.53369141 C-14.86022827 80.74324432 -14.86840576 79.95279724 -14.87683105 79.13839722 C-14.90169376 76.51593791 -14.91820432 73.89353281 -14.93261719 71.27099609 C-14.93794086 70.37564903 -14.94326454 69.48030197 -14.94874954 68.55782318 C-14.97548645 63.81769161 -14.99485857 59.0775864 -15.00927734 54.33740234 C-15.02591587 49.44344245 -15.07068518 44.55015719 -15.12164879 39.65645218 C-15.1553239 35.89202104 -15.16685511 32.12774987 -15.17250443 28.36318207 C-15.17921746 26.55946453 -15.19444096 24.75575754 -15.21839523 22.95218658 C-15.25005296 20.42411057 -15.25008309 17.89785151 -15.24267578 15.36962891 C-15.25908112 14.62758209 -15.27548645 13.88553528 -15.29238892 13.1210022 C-15.22375633 7.38419865 -13.58942325 5.06681674 -9.65917969 1.19287109 C-6.59110825 -0.34116463 -3.36816095 0.01912726 0 0 Z M-3.65917969 11.19287109 C-3.65917969 35.61287109 -3.65917969 60.03287109 -3.65917969 85.19287109 C20.76082031 85.19287109 45.18082031 85.19287109 70.34082031 85.19287109 C70.34082031 60.77287109 70.34082031 36.35287109 70.34082031 11.19287109 C64.73082031 11.19287109 59.12082031 11.19287109 53.34082031 11.19287109 C53.3034375 12.80677734 53.26605469 14.42068359 53.22753906 16.08349609 C53.16188108 18.20331107 53.09543368 20.3231017 53.02832031 22.44287109 C53.00576172 23.50634766 52.98320312 24.56982422 52.95996094 25.66552734 C52.92451172 26.69033203 52.8890625 27.71513672 52.85253906 28.77099609 C52.82635498 29.71362305 52.8001709 30.65625 52.77319336 31.62744141 C52.26400441 34.64864836 51.49665166 36.02999354 49.34082031 38.19287109 C44.47101263 40.14375688 38.55971697 39.37731816 33.40332031 39.38037109 C31.77620117 39.39874023 31.77620117 39.39874023 30.11621094 39.41748047 C29.06755859 39.41941406 28.01890625 39.42134766 26.93847656 39.42333984 C25.98465088 39.42744873 25.0308252 39.43155762 24.0480957 39.43579102 C21.08344946 39.16977758 18.98385129 38.55565292 16.34082031 37.19287109 C14.14917087 33.90539693 14.05402645 32.70792285 13.92675781 28.86865234 C13.88808594 27.840625 13.84941406 26.81259766 13.80957031 25.75341797 C13.77863281 24.6815625 13.74769531 23.60970703 13.71582031 22.50537109 C13.67714844 21.42191406 13.63847656 20.33845703 13.59863281 19.22216797 C13.50431915 16.54601775 13.42147905 13.86946767 13.34082031 11.19287109 C7.73082031 11.19287109 2.12082031 11.19287109 -3.65917969 11.19287109 Z M25.34082031 11.19287109 C25.34082031 16.80287109 25.34082031 22.41287109 25.34082031 28.19287109 C30.62082031 28.19287109 35.90082031 28.19287109 41.34082031 28.19287109 C41.34082031 22.58287109 41.34082031 16.97287109 41.34082031 11.19287109 C36.06082031 11.19287109 30.78082031 11.19287109 25.34082031 11.19287109 Z " fill="#000000" transform="translate(222.6591796875,207.80712890625)"/>
<path d="M0 0 C0.71098469 -0.00467997 1.42196938 -0.00935994 2.15449905 -0.01418173 C4.54296634 -0.02617219 6.93086413 -0.01665905 9.31933594 -0.00723267 C11.02917822 -0.01129658 12.73901788 -0.01663745 14.44885254 -0.02316284 C19.09755363 -0.03686371 23.74605546 -0.0315264 28.39476013 -0.02202559 C33.2540644 -0.01444332 38.11335133 -0.0214706 42.97265625 -0.02618408 C51.1338203 -0.03164582 59.29490298 -0.02443906 67.45605469 -0.01016235 C76.89860684 0.00616496 86.34096468 0.00087675 95.78351212 -0.01564157 C103.88293245 -0.02924453 111.9822942 -0.03118193 120.08172226 -0.02332556 C124.92255591 -0.01864249 129.76329816 -0.01804156 134.60412598 -0.02793503 C139.15464905 -0.03658513 143.704921 -0.03061873 148.25541687 -0.01325226 C149.92798953 -0.00927692 151.60058323 -0.01043928 153.27314758 -0.01704025 C155.55152677 -0.02520481 157.82909477 -0.01499682 160.10742188 0 C161.38389587 0.00113108 162.66036987 0.00226215 163.9755249 0.00342751 C167.05371094 0.38095093 167.05371094 0.38095093 168.96832275 1.71335411 C170.64510379 4.28957041 170.37153804 6.39337614 170.05371094 9.38095093 C167.17774176 12.2569201 165.17496359 11.63256884 161.14501953 11.63491821 C160.06651513 11.63959818 160.06651513 11.63959818 158.96622276 11.6443727 C156.5447825 11.65238221 154.12359079 11.64601769 151.70214844 11.63973999 C149.97112887 11.64244855 148.24011046 11.64600871 146.50909424 11.65036011 C141.79845623 11.65950251 137.08790552 11.65593225 132.37726593 11.64960194 C127.456098 11.6445515 122.53493774 11.64923072 117.61376953 11.65237427 C109.34829359 11.65601671 101.08285334 11.65120753 92.81738281 11.64169312 C83.25046872 11.63080803 73.68363986 11.63433342 64.11672783 11.64534593 C55.91459357 11.65441089 47.71248502 11.65570796 39.51034737 11.65046859 C34.60639167 11.64734452 29.70247609 11.64695147 24.79852295 11.65354156 C20.18897241 11.65930293 15.57953217 11.65534042 10.96999359 11.64375305 C9.27442356 11.64109996 7.5788443 11.64188255 5.88327789 11.64627838 C3.57619244 11.65170985 1.26946474 11.64492929 -1.03759766 11.63491821 C-2.33104095 11.63416416 -3.62448425 11.63341011 -4.9571228 11.63263321 C-7.94628906 11.38095093 -7.94628906 11.38095093 -9.94628906 9.38095093 C-10.49491537 4.22386363 -10.49491537 4.22386363 -8.86090088 1.71335411 C-5.95319283 -0.31015761 -3.51436678 0.00311406 0 0 Z " fill="#000000" transform="translate(175.9462890625,390.6190490722656)"/>
<path d="M0 0 C1.09355804 -0.00990463 2.18711609 -0.01980927 3.31381226 -0.03001404 C4.50874298 -0.02551239 5.70367371 -0.02101074 6.93481445 -0.01637268 C8.82799911 -0.02666756 8.82799911 -0.02666756 10.75942993 -0.03717041 C14.21810269 -0.05511193 17.67652189 -0.05393185 21.1352272 -0.04822803 C24.0230209 -0.04513801 26.91076576 -0.05122643 29.79855251 -0.05726677 C36.61061604 -0.07131323 43.42255415 -0.06974937 50.23461914 -0.05836487 C57.26252353 -0.04687922 64.29004652 -0.06096622 71.31790066 -0.08776134 C77.35284075 -0.10990932 83.38766104 -0.11655792 89.42263889 -0.11068493 C93.02667437 -0.10731245 96.63046525 -0.10974956 100.23446655 -0.12693596 C104.25201632 -0.14525852 108.26882232 -0.13122756 112.28637695 -0.11402893 C114.07877304 -0.12853088 114.07877304 -0.12853088 115.90737915 -0.14332581 C117.54771622 -0.1285746 117.54771622 -0.1285746 119.22119141 -0.11352539 C120.64586479 -0.11321146 120.64586479 -0.11321146 122.09931946 -0.1128912 C125.37907953 0.54086149 126.59476246 1.76482273 128.6105957 4.38768005 C128.6105957 7.51268005 128.6105957 7.51268005 127.6105957 10.38768005 C124.53180775 12.45711894 121.95699918 12.6403448 118.30384827 12.64837646 C116.6909214 12.65900368 116.6909214 12.65900368 115.04541016 12.66984558 C113.28342285 12.66612946 113.28342285 12.66612946 111.48583984 12.66233826 C110.24483017 12.66744919 109.0038205 12.67256012 107.72520447 12.67782593 C104.32430724 12.68934568 100.9236537 12.69179531 97.52275395 12.68926263 C94.68228526 12.68819251 91.84183902 12.69307732 89.00137514 12.69786805 C82.29956502 12.70896115 75.59781095 12.70940175 68.89599609 12.70335388 C61.98519173 12.69731325 55.07459092 12.70962768 48.16382128 12.73092395 C42.22739269 12.74854415 36.29102887 12.75454066 30.3545751 12.75128621 C26.81034812 12.74947387 23.26626634 12.75210444 19.72206306 12.76600075 C15.7695429 12.78091831 11.81728168 12.77160525 7.86474609 12.75999451 C6.69211212 12.76763824 5.51947815 12.77528198 4.31130981 12.78315735 C3.23320541 12.77614304 2.15510101 12.76912872 1.04432678 12.76190186 C0.11021501 12.7620696 -0.82389677 12.76223734 -1.78631496 12.76241016 C-4.95715254 12.30594934 -6.84522589 11.31603485 -9.3894043 9.38768005 C-9.9519043 6.38768005 -9.9519043 6.38768005 -9.3894043 3.38768005 C-6.37144991 0.4320077 -4.14998079 0.01061719 0 0 Z " fill="#000000" transform="translate(175.389404296875,418.61231994628906)"/>
<path d="M0 0 C1.00818283 -0.00571014 2.01636566 -0.01142029 3.05509949 -0.01730347 C4.17045074 -0.01842133 5.285802 -0.01953918 6.43495178 -0.02069092 C7.60231369 -0.02565582 8.7696756 -0.03062073 9.97241211 -0.03573608 C13.18313448 -0.0478688 16.39382039 -0.05530902 19.60456157 -0.05974674 C21.60850417 -0.06267379 23.61244099 -0.06677786 25.61638069 -0.07125092 C31.880518 -0.0849308 38.14464218 -0.09459531 44.40879339 -0.09845281 C51.65064035 -0.10293634 58.89229883 -0.12049567 66.13408846 -0.1494534 C71.72475574 -0.17103627 77.31536987 -0.18115524 82.9060784 -0.18249393 C86.24850388 -0.18354432 89.5907523 -0.1895014 92.93313408 -0.20731354 C96.65914775 -0.22427138 100.38469699 -0.22251895 104.11073303 -0.21600342 C105.22406006 -0.2252182 106.33738708 -0.23443298 107.48445129 -0.243927 C108.49545395 -0.23835785 109.5064566 -0.2327887 110.5480957 -0.22705078 C111.42987456 -0.22851734 112.31165342 -0.2299839 113.22015285 -0.2314949 C113.9188905 -0.10875576 114.61762815 0.01398338 115.33753967 0.14044189 C117.48516151 3.36187465 117.89860767 4.39998859 117.33753967 8.14044189 C114.43824531 10.89243391 112.42800702 11.51611734 108.47962952 11.52139282 C107.01598969 11.53408203 107.01598969 11.53408203 105.52278137 11.54702759 C104.45876099 11.5409549 103.3947406 11.5348822 102.29847717 11.52862549 C100.61011749 11.53651093 100.61011749 11.53651093 98.88764954 11.54455566 C95.16247227 11.55777271 91.43772138 11.54901118 87.71253967 11.53887939 C85.12708962 11.54089963 82.54164012 11.54381064 79.95619202 11.5475769 C74.53572138 11.55200259 69.11541137 11.54584691 63.69496155 11.53155518 C57.43054307 11.51522882 51.16641753 11.52051744 44.90200615 11.53703439 C38.8727654 11.55229428 32.84366785 11.5506721 26.81440735 11.54188919 C24.24991312 11.53988533 21.68541143 11.54235294 19.1209259 11.54932785 C15.53928206 11.55693097 11.9582038 11.54535326 8.37660217 11.52862549 C6.78057159 11.53773453 6.78057159 11.53773453 5.15229797 11.54702759 C3.68865814 11.53433838 3.68865814 11.53433838 2.19544983 11.52139282 C0.92563766 11.51969621 0.92563766 11.51969621 -0.36982727 11.51796532 C-3.1529238 11.05967823 -4.55831636 9.97146817 -6.66246033 8.14044189 C-5.62882187 0.01899684 -5.62882187 0.01899684 0 0 Z " fill="#000000" transform="translate(200.66246032714844,95.85955810546875)"/>
<path d="M0 0 C1.08166443 -0.00074776 1.08166443 -0.00074776 2.18518066 -0.00151062 C3.70828002 0.00082763 5.23138339 0.01054165 6.75439453 0.02709961 C9.08531253 0.05069584 11.41508663 0.04765877 13.74609375 0.04101562 C15.22656932 0.04659254 16.70704007 0.05370251 18.1875 0.0625 C18.8844397 0.06158859 19.58137939 0.06067719 20.29943848 0.05973816 C23.94808425 0.11318049 25.47187115 0.28202868 28.59375 2.36328125 C28.90625 5.86328125 28.90625 5.86328125 28.59375 9.36328125 C26.07670195 11.8803293 24.51702101 11.60997724 21.08215332 11.64117432 C19.95867493 11.63510162 19.95867493 11.63510162 18.8125 11.62890625 C18.04321167 11.6308197 17.27392334 11.63273315 16.48132324 11.63470459 C14.8539192 11.63606633 13.2265043 11.63237064 11.59912109 11.62402344 C9.10359369 11.61332346 6.60878618 11.62391876 4.11328125 11.63671875 C2.53385257 11.63539715 0.95442434 11.63283475 -0.625 11.62890625 C-1.3739856 11.63295471 -2.12297119 11.63700317 -2.89465332 11.64117432 C-8.17632757 11.59320368 -8.17632757 11.59320368 -10.40625 9.36328125 C-10.95273535 4.22631899 -10.95273535 4.22631899 -9.34960938 1.69458008 C-6.40967898 -0.31941998 -3.43843367 -0.04543737 0 0 Z " fill="#000000" transform="translate(176.40625,362.63671875)"/>
<path d="M0 0 C0.86753906 -0.01611328 1.73507812 -0.03222656 2.62890625 -0.04882812 C3.46292969 -0.04947266 4.29695313 -0.05011719 5.15625 -0.05078125 C5.91744141 -0.05376221 6.67863281 -0.05674316 7.46289062 -0.05981445 C10.05387696 0.41372991 10.93611757 1.22151088 12.5 3.3125 C12.8125 6.375 12.8125 6.375 12.5 9.3125 C10.00942749 11.80307251 9.21527341 11.5690813 5.78125 11.578125 C4.84925781 11.58070313 3.91726563 11.58328125 2.95703125 11.5859375 C1.98121094 11.57820313 1.00539063 11.57046875 0 11.5625 C-0.97582031 11.57023437 -1.95164062 11.57796875 -2.95703125 11.5859375 C-3.88902344 11.58335937 -4.82101562 11.58078125 -5.78125 11.578125 C-6.63783203 11.57586914 -7.49441406 11.57361328 -8.37695312 11.57128906 C-10.5 11.3125 -10.5 11.3125 -12.5 9.3125 C-12.8125 5.8125 -12.8125 5.8125 -12.5 2.3125 C-8.32856144 -0.46845904 -4.90037332 -0.01820347 0 0 Z " fill="#000000" transform="translate(333.5,362.6875)"/>
<path d="M0 0 C2.375 0.8125 2.375 0.8125 4.375 2.8125 C4.625 5.8125 4.625 5.8125 4.375 8.8125 C2.375 10.8125 2.375 10.8125 -0.625 11 C-3.625 10.8125 -3.625 10.8125 -5.625 9.8125 C-6.03229228 7.49093403 -6.36938677 5.1556213 -6.625 2.8125 C-4.2650337 0.62734602 -3.28118881 -0.23437063 0 0 Z " fill="#000000" transform="translate(256.625,53.1875)"/>
</svg>
