<?xml version="1.0" encoding="UTF-8"?>
<svg version="1.1" xmlns="http://www.w3.org/2000/svg" width="775" height="197">
<path d="M0 0 C0 0.66 0 1.32 0 2 C-4.455 2.495 -4.455 2.495 -9 3 C-8.67 3.66 -8.34 4.32 -8 5 C-4.68455701 6.10514766 -1.79589889 6.32107631 1.6875 6.5625 C2.86699219 6.64628906 4.04648437 6.73007813 5.26171875 6.81640625 C6.16535156 6.87699219 7.06898438 6.93757812 8 7 C8 7.99 8 8.98 8 10 C12.62 10 17.24 10 22 10 C22 10.99 22 11.98 22 13 C21.01 13 20.02 13 19 13 C19 13.66 19 14.32 19 15 C19.79291443 14.99777939 20.58582886 14.99555878 21.402771 14.99327087 C28.87732596 14.97322907 36.35186789 14.958006 43.82644272 14.94818783 C47.66913754 14.94297053 51.51181015 14.93589378 55.35449219 14.92456055 C59.06327788 14.91369073 62.7720422 14.90771447 66.48084259 14.90512276 C67.89541205 14.9032759 69.30998035 14.89966947 70.72454071 14.89426994 C72.70664834 14.88700532 74.6887775 14.88659148 76.67089844 14.88647461 C78.36300446 14.88314369 78.36300446 14.88314369 80.08929443 14.87974548 C82.60520132 14.98368907 84.59700202 15.32823303 87 16 C89.58656673 16.22288501 92.15952778 16.41314385 94.75 16.5625 C95.44738281 16.60568359 96.14476562 16.64886719 96.86328125 16.69335938 C98.57531922 16.79889596 100.28763561 16.8998991 102 17 C102 16.34 102 15.68 102 15 C104.31 15 106.62 15 109 15 C109.33 16.32 109.66 17.64 110 19 C109.25314941 19.01981934 108.50629883 19.03963867 107.73681641 19.06005859 C104.36584395 19.15508211 100.99551071 19.26485259 97.625 19.375 C96.449375 19.4059375 95.27375 19.436875 94.0625 19.46875 C92.94101562 19.50742187 91.81953125 19.54609375 90.6640625 19.5859375 C89.10872803 19.63306885 89.10872803 19.63306885 87.52197266 19.68115234 C84.83190165 19.75954472 84.83190165 19.75954472 83 22 C80.43359375 22.4140625 80.43359375 22.4140625 77.4375 22.625 C76.44621094 22.69976563 75.45492187 22.77453125 74.43359375 22.8515625 C72 23 72 23 71 23 C80.39355936 22.85743333 89.64072209 23.27507668 99 24 C96.24117232 25.49462448 93.76056125 26.38866277 90.6875 27 C87.90254284 27.57604163 85.28815909 28.22002355 82.5625 29.0625 C78.06541902 30.24594236 73.62637337 30.64627326 69 31 C69.83402344 30.97679688 70.66804687 30.95359375 71.52734375 30.9296875 C78.38737134 30.8196756 84.37598457 31.20365683 91 33 C90.67 33.66 90.34 34.32 90 35 C87.69 35 85.38 35 83 35 C82.67 35.99 82.34 36.98 82 38 C81.34 38 80.68 38 80 38 C79.67 39.32 79.34 40.64 79 42 C79.99 42.33 80.98 42.66 82 43 C82 43.66 82 44.32 82 45 C81.26394531 45.12117188 80.52789063 45.24234375 79.76953125 45.3671875 C78.79371094 45.53476562 77.81789063 45.70234375 76.8125 45.875 C75.84957031 46.03742187 74.88664063 46.19984375 73.89453125 46.3671875 C71.02058598 46.91018415 71.02058598 46.91018415 68.51171875 48.0078125 C66 49 66 49 60 50 C66.6 51.32 73.2 52.64 80 54 C80 53.34 80 52.68 80 52 C81.98 52 83.96 52 86 52 C86.33 53.32 86.66 54.64 87 56 C79.41 56 71.82 56 64 56 C63.67 56.66 63.34 57.32 63 58 C60.28553021 58.31241455 57.66090639 58.51336592 54.9375 58.625 C54.17888672 58.66367187 53.42027344 58.70234375 52.63867188 58.7421875 C50.75952805 58.83673562 48.87979664 58.91946756 47 59 C56.66039945 60.26693763 66.27721582 60.08984092 76 60 C76 60.66 76 61.32 76 62 C75.443125 62.03738281 74.88625 62.07476562 74.3125 62.11328125 C70.30340398 62.45865945 66.78823485 62.93808662 63.0625 64.5 C59.08016636 66.15395309 55.28459773 66.51457541 51.00390625 66.7890625 C49.00306021 66.78720705 49.00306021 66.78720705 48 68 C48.845625 67.97679688 49.69125 67.95359375 50.5625 67.9296875 C57.10392721 67.82561934 62.74857746 68.0387694 69 70 C65.5647952 72.29013653 64.014669 72.17842973 60 72 C58.28322447 74.76605639 58.28322447 74.76605639 57 78 C57.84254172 80.18610208 57.84254172 80.18610208 59 82 C58.39671875 82.04898438 57.7934375 82.09796875 57.171875 82.1484375 C55.97304687 82.26058594 55.97304687 82.26058594 54.75 82.375 C53.96109375 82.44460937 53.1721875 82.51421875 52.359375 82.5859375 C49.88879844 83.01951551 48.20146877 83.82825049 46 85 C43.6756398 85.69730806 41.34326294 86.36912152 39 87 C40.98 87.66 42.96 88.32 45 89 C41.34827367 91.26849666 37.9872882 91.3895951 33.75 91.625 C31.85507813 91.73714844 31.85507813 91.73714844 29.921875 91.8515625 C28.95765625 91.90054688 27.9934375 91.94953125 27 92 C27 92.66 27 93.32 27 94 C26.01 94 25.02 94 24 94 C24.33 95.32 24.66 96.64 25 98 C17.36263935 99.33653811 9.85906818 100.11369438 2.125 100.4375 C-3.6033198 100.7069516 -8.95139119 101.26784205 -14.54296875 102.58984375 C-19.64147758 103.44094618 -24.84860635 103.14533712 -30 103 C-30 103.99 -30 104.98 -30 106 C-28.68 106.33 -27.36 106.66 -26 107 C-29.4019487 109.09350689 -32.05272412 109.17942163 -36 109 C-30.50200727 113.07915589 -24.60835222 113 -18 113 C-18 113.99 -18 114.98 -18 116 C-11.07 116.495 -11.07 116.495 -4 117 C-4 117.66 -4 118.32 -4 119 C-4.66 119.33 -5.32 119.66 -6 120 C-2.89632678 121.03455774 -0.81180007 121.10913343 2.43920898 121.08178711 C3.55565292 121.0752562 4.67209686 121.06872528 5.82237244 121.06199646 C7.03470047 121.05056107 8.2470285 121.03912567 9.49609375 121.02734375 C12.08398292 121.01467412 14.67187363 121.00231495 17.25976562 120.99023438 C21.32271995 120.96674319 25.38560985 120.93844811 29.44848633 120.90405273 C45.10334346 120.78171153 60.46375848 120.95094914 76 123 C76 122.34 76 121.68 76 121 C77.98 121 79.96 121 82 121 C82.33 122.32 82.66 123.64 83 125 C78.95038003 125.96638658 75.15797593 126.13396116 71 126.125 C69.205625 126.12886719 69.205625 126.12886719 67.375 126.1328125 C64.44672307 126.01757938 61.84213024 125.67823563 59 125 C58.67 125.99 58.34 126.98 58 128 C52.72 128.33 47.44 128.66 42 129 C52.23 129.33 62.46 129.66 73 130 C70.04783422 131.96811052 68.58213881 132.41597612 65.1875 133 C62.31246251 133.52688277 59.76316423 134.08387933 57 135.0625 C52.73301733 136.39593208 48.44311183 136.66632757 44 137 C45.51980469 137.07347656 45.51980469 137.07347656 47.0703125 137.1484375 C48.42189911 137.22352564 49.77346038 137.29907081 51.125 137.375 C51.79015625 137.4059375 52.4553125 137.436875 53.140625 137.46875 C57.39821262 137.71919633 61.02085783 138.47528197 65 140 C65 140.33 65 140.66 65 141 C61.7 141.33 58.4 141.66 55 142 C54.34 143.98 53.68 145.96 53 148 C53.66 148.33 54.32 148.66 55 149 C55 149.66 55 150.32 55 151 C54.13117187 151.19335938 53.26234375 151.38671875 52.3671875 151.5859375 C51.21476563 151.84632813 50.06234375 152.10671875 48.875 152.375 C47.73804688 152.63023437 46.60109375 152.88546875 45.4296875 153.1484375 C42.21601712 153.94636477 39.12433966 154.90790559 36 156 C36 156.33 36 156.66 36 157 C37.65 157.33 39.3 157.66 41 158 C41 158.66 41 159.32 41 160 C39.80761719 160.10957031 38.61523438 160.21914062 37.38671875 160.33203125 C35.82024165 160.49149299 34.25383901 160.65168751 32.6875 160.8125 C31.90181641 160.88275391 31.11613281 160.95300781 30.30664062 161.02539062 C29.54931641 161.10595703 28.79199219 161.18652344 28.01171875 161.26953125 C26.96697388 161.37164917 26.96697388 161.37164917 25.90112305 161.47583008 C23.52272396 162.13159261 22.51824339 163.08061041 21 165 C21 165.66 21 166.32 21 167 C13.45168053 170.77415974 2.09298332 170.17797864 -6.28417969 170.60327148 C-11.12230713 170.87462939 -15.71166218 171.61932761 -20.44921875 172.58984375 C-24.6290424 173.26194403 -28.78036905 173.16475782 -33 173 C-33 173.33 -33 173.66 -33 174 C-34.65 174.33 -36.3 174.66 -38 175 C-38 175.66 -38 176.32 -38 177 C-41.99991442 177.57141635 -45.69834559 178.00251379 -49.75 177.96875 C-54.06278014 177.94056189 -58.23261597 178.41521034 -62.5 179 C-63.59054687 179.14308594 -63.59054687 179.14308594 -64.703125 179.2890625 C-66.46935867 179.52146167 -68.23477406 179.76006638 -70 180 C-69.01 180.33 -68.02 180.66 -67 181 C-67 181.66 -67 182.32 -67 183 C-66.34 183 -65.68 183 -65 183 C-65 183.99 -65 184.98 -65 186 C-68.3 186 -71.6 186 -75 186 C-75 186.66 -75 187.32 -75 188 C-75.74636719 187.9278125 -76.49273438 187.855625 -77.26171875 187.78125 C-86.63328596 187.0118625 -95.97293899 186.88878349 -105.375 186.875 C-106.68944092 186.87048828 -108.00388184 186.86597656 -109.3581543 186.86132812 C-111.20340698 186.86422852 -111.20340698 186.86422852 -113.0859375 186.8671875 C-114.7572876 186.86887939 -114.7572876 186.86887939 -116.46240234 186.87060547 C-118.93594915 186.7125558 -118.93594915 186.7125558 -120 188 C-121.99616505 188.22881538 -123.99954193 188.39531688 -126.00390625 188.53515625 C-127.21884766 188.62216797 -128.43378906 188.70917969 -129.68554688 188.79882812 C-130.96494141 188.88583984 -132.24433594 188.97285156 -133.5625 189.0625 C-134.84576172 189.15337891 -136.12902344 189.24425781 -137.45117188 189.33789062 C-140.63385015 189.56268946 -143.81676858 189.78319818 -147 190 C-147 190.66 -147 191.32 -147 192 C-155.84614718 192.7754819 -164.64173114 193.18826175 -173.51953125 193.31640625 C-175.35640755 193.3475779 -175.35640755 193.3475779 -177.23039246 193.37937927 C-181.09104532 193.44406675 -184.9517583 193.5033787 -188.8125 193.5625 C-191.45117776 193.60576232 -194.08984974 193.64937889 -196.72851562 193.69335938 C-203.15228267 193.79966358 -209.57610772 193.90157036 -216 194 C-216.33 193.34 -216.66 192.68 -217 192 C-216.01 191.67 -215.02 191.34 -214 191 C-214.99 190.34 -215.98 189.68 -217 189 C-217.33 189.66 -217.66 190.32 -218 191 C-226.29972572 191.18285809 -234.33723232 191.24686419 -242.5625 189.9375 C-249.08490145 188.95673932 -255.04594797 189.15712331 -261.6015625 189.7109375 C-267.60806254 190.17511404 -273.62354841 190.04803007 -279.64306641 189.96240234 C-283.54619766 189.92420244 -287.32395911 189.97229932 -291.1953125 190.5 C-294.82519014 190.97702704 -298.21971125 191.0675342 -301.875 191 C-307.61093582 190.95677982 -313.33474059 191.00024834 -319 192 C-319.33 192.33 -319.66 192.66 -320 193 C-322.02346431 193 -324.0470134 192.99460686 -326.0703125 192.96875 C-330.86358216 193.01987821 -335.63080476 193.43661214 -340.41015625 193.78515625 C-343.28055839 193.9569431 -346.06707125 194.0121212 -348.9375 193.9375 C-351.9158567 193.88141042 -354.37990511 194.26377229 -357.25 195.0625 C-360.80240251 195.95060063 -362.57101579 196.07155756 -366 195 C-366 194.34 -366 193.68 -366 193 C-365.01 192.67 -364.02 192.34 -363 192 C-365.95683584 192.41258175 -368.57175385 192.81047214 -371.3125 194.0234375 C-380.21086542 197.25685517 -391.32594335 194.73154675 -400.50390625 193.33984375 C-403.77628147 193.02174694 -405.84600694 193.2886104 -409 194 C-411.35377138 194.04313899 -413.70867794 194.04027931 -416.0625 194 C-420.48512773 193.82496603 -420.48512773 193.82496603 -424.8137207 194.5 C-427.67329157 195.15398114 -430.32451569 195.09309501 -433.2578125 195.0625 C-434.50812256 195.05412109 -435.75843262 195.04574219 -437.04663086 195.03710938 C-437.70984344 195.03090576 -438.37305603 195.02470215 -439.05636597 195.01831055 C-449.36427892 194.92706989 -459.63936614 194.98734863 -469.9375 195.5 C-490.59766578 196.49445811 -511.32241379 196.08216427 -532 196 C-532 195.34 -532 194.68 -532 194 C-544.36592489 193.8425837 -556.65415863 194.32292352 -569 195 C-569 194.34 -569 193.68 -569 193 C-569.84175781 193.08378906 -570.68351563 193.16757813 -571.55078125 193.25390625 C-580.81518887 194.01391477 -589.95937078 193.99894195 -599.25 193.6875 C-600.44020752 193.65277588 -601.63041504 193.61805176 -602.85668945 193.58227539 C-603.98163818 193.5383667 -605.10658691 193.49445801 -606.265625 193.44921875 C-607.77817871 193.39254028 -607.77817871 193.39254028 -609.32128906 193.3347168 C-612.02846305 192.99644342 -613.61963842 192.26017329 -616 191 C-618.77394833 190.7047806 -621.4700511 190.49287769 -624.25 190.375 C-625.36761719 190.31699219 -625.36761719 190.31699219 -626.5078125 190.2578125 C-628.3381524 190.16394892 -630.16904143 190.08090282 -632 190 C-632 189.01 -632 188.02 -632 187 C-623.75 187 -615.5 187 -607 187 C-606.67 187.99 -606.34 188.98 -606 190 C-601.05 190 -596.1 190 -591 190 C-590.67 189.34 -590.34 188.68 -590 188 C-597.04297281 186.02302518 -603.58031507 185.86020745 -610.83984375 186.02734375 C-614 186 -614 186 -616 185 C-616 184.01 -616 183.02 -616 182 C-618.31 181.67 -620.62 181.34 -623 181 C-623.33 181.99 -623.66 182.98 -624 184 C-626.73077876 185.36538938 -628.95560367 185.13231826 -632 185.125 C-633.60875 185.12886719 -633.60875 185.12886719 -635.25 185.1328125 C-638 185 -638 185 -640 184 C-640 183.34 -640 182.68 -640 182 C-641.07378906 182.02320313 -642.14757812 182.04640625 -643.25390625 182.0703125 C-644.69009715 182.08908624 -646.12629565 182.1072847 -647.5625 182.125 C-648.61920898 182.15013672 -648.61920898 182.15013672 -649.69726562 182.17578125 C-654.51891822 182.22022044 -658.42297438 181.52768004 -663 180 C-663 179.34 -663 178.68 -663 178 C-655.74214646 174.37107323 -641.81793552 177.18472181 -634 178 C-635.2065625 177.814375 -635.2065625 177.814375 -636.4375 177.625 C-637.283125 177.41875 -638.12875 177.2125 -639 177 C-639.495 176.01 -639.495 176.01 -640 175 C-640.65073486 175.00523682 -641.30146973 175.01047363 -641.97192383 175.01586914 C-644.91877274 175.03664938 -647.86560623 175.0496635 -650.8125 175.0625 C-651.83666016 175.07087891 -652.86082031 175.07925781 -653.91601562 175.08789062 C-654.89892578 175.09111328 -655.88183594 175.09433594 -656.89453125 175.09765625 C-657.80050049 175.10289307 -658.70646973 175.10812988 -659.63989258 175.11352539 C-662 175 -662 175 -665 174 C-664.4375 172.0625 -664.4375 172.0625 -663 170 C-659.375 169.25 -659.375 169.25 -656 169 C-655.67 168.01 -655.34 167.02 -655 166 C-656.98 165.34 -658.96 164.68 -661 164 C-661 163.34 -661 162.68 -661 162 C-657.04 161.01 -657.04 161.01 -653 160 C-655.97 159.34 -658.94 158.68 -662 158 C-661 155 -661 155 -658 153 C-654.8125 152.875 -654.8125 152.875 -652 153 C-652 152.34 -652 151.68 -652 151 C-651.01 150.67 -650.02 150.34 -649 150 C-648.67 149.01 -648.34 148.02 -648 147 C-648.99 147 -649.98 147 -651 147 C-650.67 145.35 -650.34 143.7 -650 142 C-648.68 141.67 -647.36 141.34 -646 141 C-646.33 138.69 -646.66 136.38 -647 134 C-639.8059321 130.66941301 -633.83535651 130.94782149 -626.12158203 131.75561523 C-624.0881026 131.94362917 -622.04208429 131.98327874 -620 132 C-619.34 131.01 -618.68 130.02 -618 129 C-616.2675 128.5978125 -616.2675 128.5978125 -614.5 128.1875 C-612.7675 127.5996875 -612.7675 127.5996875 -611 127 C-610.34 125.02 -609.68 123.04 -609 121 C-615.27 120.67 -621.54 120.34 -628 120 C-628 119.01 -628 118.02 -628 117 C-621.07 117 -614.14 117 -607 117 C-608.65 116.67 -610.3 116.34 -612 116 C-611.505 114.02 -611.505 114.02 -611 112 C-613.31 112 -615.62 112 -618 112 C-618.33 112.66 -618.66 113.32 -619 114 C-619.99 114 -620.98 114 -622 114 C-622 114.66 -622 115.32 -622 116 C-626.29 115.67 -630.58 115.34 -635 115 C-635.33 114.01 -635.66 113.02 -636 112 C-636.83402344 112.09539062 -637.66804687 112.19078125 -638.52734375 112.2890625 C-645.50746707 112.9766806 -651.30315974 113.23228009 -658 111 C-658.33 110.01 -658.66 109.02 -659 108 C-655.91538494 106.97179498 -654.10314761 106.95417151 -650.89453125 107.12109375 C-649.91162109 107.16943359 -648.92871094 107.21777344 -647.91601562 107.26757812 C-646.89185547 107.32365234 -645.86769531 107.37972656 -644.8125 107.4375 C-643.77673828 107.48970703 -642.74097656 107.54191406 -641.67382812 107.59570312 C-639.11557951 107.72538393 -636.55772062 107.86034978 -634 108 C-634.33 107.01 -634.66 106.02 -635 105 C-635.53625 105.08378906 -636.0725 105.16757813 -636.625 105.25390625 C-644.82619991 106.31952269 -652.79555814 105.66164854 -661 105 C-660.125 101.125 -660.125 101.125 -659 100 C-656.66702567 99.95907063 -654.33294775 99.95758277 -652 100 C-652 99.34 -652 98.68 -652 98 C-650.515 97.505 -650.515 97.505 -649 97 C-651.64 96.34 -654.28 95.68 -657 95 C-656.67 94.01 -656.34 93.02 -656 92 C-652.9375 90.8125 -652.9375 90.8125 -650 90 C-652.31 89.67 -654.62 89.34 -657 89 C-657.33 88.01 -657.66 87.02 -658 86 C-651.375 83 -651.375 83 -648 83 C-648 82.34 -648 81.68 -648 81 C-646.68 81 -645.36 81 -644 81 C-644 80.01 -644 79.02 -644 78 C-645.485 77.505 -645.485 77.505 -647 77 C-647 75.68 -647 74.36 -647 73 C-644.525 72.01 -644.525 72.01 -642 71 C-642 70.34 -642 69.68 -642 69 C-641.34 69 -640.68 69 -640 69 C-640 68.34 -640 67.68 -640 67 C-640.99 67 -641.98 67 -643 67 C-643 66.34 -643 65.68 -643 65 C-637.72 63.35 -632.44 61.7 -627 60 C-629.64 59.34 -632.28 58.68 -635 58 C-635 57.34 -635 56.68 -635 56 C-632.69 55.34 -630.38 54.68 -628 54 C-628 53.67 -628 53.34 -628 53 C-630.64 52.67 -633.28 52.34 -636 52 C-635 49 -635 49 -632 47 C-628.70560958 45.80841198 -625.413459 44.78772131 -622 44 C-622 43.01 -622 42.02 -622 41 C-622.66 41 -623.32 41 -624 41 C-624 39.35 -624 37.7 -624 36 C-622.68 35.34 -621.36 34.68 -620 34 C-620.495 31.03 -620.495 31.03 -621 28 C-613.9811725 24.80962386 -608.35670704 24.91120098 -600.85375977 25.75561523 C-596.75498237 26.31747357 -596.75498237 26.31747357 -593.21484375 24.58203125 C-592.81394531 24.05996094 -592.41304687 23.53789062 -592 23 C-590.824375 22.731875 -589.64875 22.46375 -588.4375 22.1875 C-584.75124337 21.36647059 -584.75124337 21.36647059 -583.5625 18.0625 C-582.90967424 15.02718136 -582.90967424 15.02718136 -583 12 C-582.34 11.34 -581.68 10.68 -581 10 C-582.65 9.67 -584.3 9.34 -586 9 C-585.67 8.34 -585.34 7.68 -585 7 C-582.671875 6.65625 -582.671875 6.65625 -579.75 6.5 C-576.7397865 6.33728576 -574.43209286 6.18899554 -571.66015625 4.9765625 C-568.01109418 3.63696556 -564.51616777 3.78604078 -560.6875 3.875 C-559.94693359 3.88402344 -559.20636719 3.89304687 -558.44335938 3.90234375 C-556.62876533 3.92575787 -554.81433929 3.96162385 -553 4 C-553 4.66 -553 5.32 -553 6 C-550.47891897 5.85775413 -547.95819597 5.71129879 -545.4375 5.5625 C-544.73302734 5.52318359 -544.02855469 5.48386719 -543.30273438 5.44335938 C-539.9446198 5.242182 -536.68437635 4.9533661 -533.3515625 4.4609375 C-530.13162793 4.01810268 -527.18065736 3.96625146 -523.9375 4.0625 C-519.49076549 4.11144033 -515.41124383 3.80496326 -511.04148865 3.01127625 C-500.53793977 1.4523373 -489.99453668 1.72901842 -479.39868164 1.75708008 C-477.03361967 1.7560055 -474.66855795 1.75406422 -472.30349731 1.75132751 C-465.91767004 1.7465059 -459.53191331 1.75409997 -453.14609456 1.76428056 C-447.13070122 1.77220466 -441.11531312 1.77144201 -435.09991615 1.77100524 C-423.18728538 1.77050615 -411.27468159 1.77962675 -399.36206055 1.79418945 C-387.81648264 1.80829602 -376.27092844 1.81535915 -364.7253418 1.81469727 C-364.01311181 1.81465731 -363.30088183 1.81461735 -362.56706912 1.81457619 C-361.85603659 1.81453583 -361.14500407 1.81449548 -360.4124251 1.8144539 C-347.23885443 1.81376358 -334.06529378 1.8196539 -320.89172636 1.82860712 C-316.24262195 1.83161778 -311.59351943 1.83267501 -306.94441414 1.83313942 C-300.68906318 1.83414405 -294.43373707 1.84025054 -288.17839432 1.85030556 C-285.88343012 1.85322515 -283.58846307 1.85445702 -281.29349709 1.85387802 C-278.16126029 1.85338682 -275.02909296 1.85904794 -271.89686584 1.86628723 C-270.98908687 1.86473863 -270.0813079 1.86319003 -269.14602047 1.8615945 C-265.3500784 1.87608288 -261.69741448 1.97781396 -257.94394588 2.57085705 C-256.97244374 2.71247422 -256.0009416 2.8540914 -255 3 C-254.67 2.67 -254.34 2.34 -254 2 C-252.29227642 1.91286169 -250.58101351 1.89299993 -248.87109375 1.90234375 C-247.31938477 1.90717773 -247.31938477 1.90717773 -245.73632812 1.91210938 C-244.64771484 1.92048828 -243.55910156 1.92886719 -242.4375 1.9375 C-240.7987793 1.94426758 -240.7987793 1.94426758 -239.12695312 1.95117188 C-236.41791505 1.96300174 -233.70898401 1.97948457 -231 2 C-231 2.99 -231 3.98 -231 5 C-230.34 4.67 -229.68 4.34 -229 4 C-223.27172084 3.59593052 -217.66329096 4.17624859 -212 5 C-212 5.66 -212 6.32 -212 7 C-209.72942623 7.05398987 -207.45848712 7.09278742 -205.1875 7.125 C-203.92292969 7.14820313 -202.65835937 7.17140625 -201.35546875 7.1953125 C-197.8661976 7.27581918 -197.8661976 7.27581918 -195 5 C-193.09887695 4.77294922 -193.09887695 4.77294922 -190.98828125 4.8046875 C-189.85229492 4.81435547 -189.85229492 4.81435547 -188.69335938 4.82421875 C-187.90767578 4.84097656 -187.12199219 4.85773437 -186.3125 4.875 C-185.51521484 4.88402344 -184.71792969 4.89304687 -183.89648438 4.90234375 C-181.930861 4.92588415 -179.96539225 4.96175453 -178 5 C-177.67 5.66 -177.34 6.32 -177 7 C-174.31339057 7.90050092 -171.70855446 8.1669706 -168.890625 8.31640625 C-168.13652344 8.35830078 -167.38242187 8.40019531 -166.60546875 8.44335938 C-165.43951172 8.50233398 -165.43951172 8.50233398 -164.25 8.5625 C-163.06083984 8.62727539 -163.06083984 8.62727539 -161.84765625 8.69335938 C-159.89862185 8.79902991 -157.94933252 8.89997966 -156 9 C-156 8.34 -156 7.68 -156 7 C-146.76 7 -137.52 7 -128 7 C-128 7.66 -128 8.32 -128 9 C-122.06 8.67 -116.12 8.34 -110 8 C-110 8.66 -110 9.32 -110 10 C-109.39639648 9.84853516 -108.79279297 9.69707031 -108.17089844 9.54101562 C-87.5194354 4.4234209 -87.5194354 4.4234209 -78.359375 4.88671875 C-75.10179086 5.04312594 -72.19162117 4.63832423 -69 4 C-68.67 3.67 -68.34 3.34 -68 3 C-65.68047431 2.71898054 -63.36114486 2.55217375 -61.03125 2.37890625 C-60.02578125 2.19134766 -60.02578125 2.19134766 -59 2 C-58.67 1.34 -58.34 0.68 -58 0 C-38.62221423 -0.70589819 -19.36632574 -1.38635592 0 0 Z M-86 108 C-86 108.66 -86 109.32 -86 110 C-84.02 110 -82.04 110 -80 110 C-80.33 109.34 -80.66 108.68 -81 108 C-82.65 108 -84.3 108 -86 108 Z M-601 111 C-600.67 111.66 -600.34 112.32 -600 113 C-598.68 112.34 -597.36 111.68 -596 111 C-597.65 111 -599.3 111 -601 111 Z M-90 177 C-90.33 177.99 -90.66 178.98 -91 180 C-88.03 180 -85.06 180 -82 180 C-82 179.34 -82 178.68 -82 178 C-84.64 177.67 -87.28 177.34 -90 177 Z M-606.6875 180.375 C-607.450625 180.58125 -608.21375 180.7875 -609 181 C-609 181.33 -609 181.66 -609 182 C-606.36 182 -603.72 182 -601 182 C-603.78114056 179.66608797 -603.78114056 179.66608797 -606.6875 180.375 Z M-207 188 C-207 188.66 -207 189.32 -207 190 C-207.99 190.33 -208.98 190.66 -210 191 C-201.42 191 -192.84 191 -184 191 C-187.94841839 189.02579081 -190.68125754 188.53984281 -195 188 C-195.9590625 187.690625 -195.9590625 187.690625 -196.9375 187.375 C-200.35466394 186.75369747 -203.58143659 187.48721549 -207 188 Z " fill="#FFB000" transform="translate(665,1)"/>
</svg>
