<?xml version="1.0" encoding="UTF-8"?>
<svg version="1.1" xmlns="http://www.w3.org/2000/svg" width="512" height="512">
<path d="M0 0 C1.67574373 1.50282935 3.34170536 3.01666204 4.99609375 4.54296875 C7.06349755 6.43927706 9.17921968 8.25138981 11.32421875 10.05859375 C46.95836296 41.2652491 66.36817571 90.97339513 69.88671875 137.18359375 C72.82118881 189.25709879 56.57795014 238.42312595 23.171875 278.31640625 C21.46614652 280.37444266 19.84446181 282.46776934 18.26171875 284.62109375 C18.98875 285.2759375 19.71578125 285.93078125 20.46484375 286.60546875 C27.95839055 293.39413967 35.16928367 300.41548151 42.26171875 307.62109375 C43.65970703 306.91533203 43.65970703 306.91533203 45.0859375 306.1953125 C62.07785688 297.81269212 77.75768724 295.08874458 96.26171875 300.62109375 C109.63954385 305.76767998 119.65382957 315.70372915 129.6796875 325.6328125 C130.37772712 326.32236999 130.37772712 326.32236999 131.08986855 327.02585793 C133.54886402 329.4552183 136.00232637 331.88999892 138.45092773 334.32983398 C140.44606716 336.31618532 142.45033132 338.29254963 144.46362305 340.26049805 C161.19083144 356.61837771 174.35048208 370.49411335 174.69921875 394.99609375 C174.60908843 411.54227531 169.02586085 424.24115077 157.74609375 436.296875 C146.01532602 447.27141399 130.69060245 452.24746716 114.8203125 451.9296875 C87.71671317 449.57932049 71.32770292 429.92152207 53.05786133 411.82226562 C51.31601318 410.10209888 49.56792398 408.38822942 47.8137207 406.68066406 C31.79169343 391.07810848 20.19827287 377.60318611 19.76171875 354.37109375 C19.77279685 343.95583447 21.3522682 334.15036909 27.49609375 325.4609375 C29.44976165 322.91543051 29.44976165 322.91543051 29.17895508 320.76879883 C27.84575088 317.6471067 25.76659943 315.79160505 23.3515625 313.41796875 C22.86466446 312.93531555 22.37776642 312.45266235 21.87611389 311.9553833 C20.32406425 310.42008525 18.76189739 308.8955645 17.19921875 307.37109375 C16.14319518 306.33012155 15.08784837 305.28846235 14.03320312 304.24609375 C11.4505046 301.69641742 8.85862993 299.15630179 6.26171875 296.62109375 C1.89690485 299.84176576 -2.34716628 303.1032389 -6.42578125 306.68359375 C-45.33294527 338.62955921 -98.42849671 351.38389541 -147.91796875 347.16015625 C-197.00794378 342.10069908 -245.89269878 319.0434813 -277.73828125 280.62109375 C-278.49625 279.75097656 -279.25421875 278.88085938 -280.03515625 277.984375 C-300.73455868 253.91007 -314.33373107 225.40286664 -321.73828125 194.62109375 C-322.05587402 193.32534424 -322.05587402 193.32534424 -322.37988281 192.00341797 C-328.6887287 165.01335542 -328.36149628 133.50179979 -321.73828125 106.62109375 C-321.51333984 105.70360352 -321.28839844 104.78611328 -321.05664062 103.84082031 C-311.78633418 67.15543407 -293.38249164 36.22212066 -266.73828125 9.62109375 C-266.1246875 8.96109375 -265.51109375 8.30109375 -264.87890625 7.62109375 C-202.93867199 -57.90245985 -93.32157465 -61.69481744 0 0 Z M-264.19482422 29.9296875 C-273.01417889 39.59442796 -280.15101797 50.35017463 -286.73828125 61.62109375 C-287.10050781 62.2356543 -287.46273437 62.85021484 -287.8359375 63.48339844 C-308.95740519 99.74451594 -316.07081828 146.68135022 -306.73828125 187.62109375 C-306.54492188 188.48524902 -306.3515625 189.3494043 -306.15234375 190.23974609 C-300.25489143 215.74531727 -289.23446777 240.20706293 -272.73828125 260.62109375 C-272.07828125 261.48347656 -271.41828125 262.34585937 -270.73828125 263.234375 C-241.15127213 301.05867644 -197.35640052 324.21275799 -150.07836914 330.60351562 C-103.57215234 336.2213723 -54.77984284 323.47351833 -17.73828125 294.62109375 C-16.85914063 293.96367187 -15.98 293.30625 -15.07421875 292.62890625 C22.78020945 263.23740158 46.18794332 219.98723541 52.79223633 172.83325195 C57.0876066 137.65699695 50.75786658 102.31574344 35.26171875 70.62109375 C34.93945312 69.9573877 34.6171875 69.29368164 34.28515625 68.60986328 C13.45450339 26.26055328 -25.64268103 -5.93980813 -69.98828125 -21.06640625 C-139.69290394 -43.95120614 -214.16365075 -23.19858047 -264.19482422 29.9296875 Z M47.26171875 325.62109375 C39.08693863 335.56490374 35.47590601 344.97712435 35.8828125 357.90625 C37.33374805 372.1314016 45.29106085 380.98419437 55.1015625 390.69140625 C55.82735001 391.41673553 56.55313751 392.14206482 57.30091858 392.88937378 C58.82380677 394.40926438 60.34910077 395.926748 61.87670898 397.44189453 C64.19508017 399.7419878 66.50532732 402.05000388 68.81445312 404.359375 C70.30551881 405.84552457 71.79704013 407.33121716 73.2890625 408.81640625 C73.96952133 409.49575226 74.64998016 410.17509827 75.35105896 410.87503052 C79.27027706 414.7562201 83.28827818 418.46704294 87.47462463 422.05905151 C89.20654086 423.57286451 90.8602046 425.14558805 92.51171875 426.74609375 C99.90483763 433.10008763 110.12288808 435.97968923 119.73828125 435.8359375 C129.78997454 434.98014318 140.00068325 430.69104937 147.26171875 423.62109375 C155.43649887 413.67728376 159.04753149 404.26506315 158.640625 391.3359375 C156.89015952 374.17415738 145.11594318 364.1684644 133.5012207 352.65478516 C131.32770274 350.49954843 129.16231893 348.3363923 126.99804688 346.171875 C125.59812696 344.77687123 124.19775145 343.38232446 122.796875 341.98828125 C122.16016373 341.3526828 121.52345245 340.71708435 120.8674469 340.06222534 C117.02577386 336.26024568 113.07177236 332.63883752 108.97416687 329.11383057 C106.91162119 327.31591457 104.97381376 325.40235679 103.01171875 323.49609375 C95.17117879 316.49803816 84.98789523 313.22658404 74.52734375 313.40625 C64.5721811 314.35027404 54.45862475 318.61358001 47.26171875 325.62109375 Z " fill="#000000" transform="translate(331.73828125,53.37890625)"/>
<path d="M0 0 C6.43549596 5.64893534 11.85866047 11.74405299 17.0625 18.53125 C17.70574219 19.32402344 18.34898437 20.11679688 19.01171875 20.93359375 C37.72206782 44.95722653 46.28720531 74.81286037 46.3125 104.90625 C46.31317474 105.62467072 46.31384949 106.34309143 46.31454468 107.08328247 C46.29842574 117.87649057 45.778253 128.03403328 43.0625 138.53125 C42.83699463 139.50263916 42.83699463 139.50263916 42.60693359 140.49365234 C38.20635059 159.38005895 29.2527705 177.48286159 17.0625 192.53125 C16.62969727 193.0792627 16.19689453 193.62727539 15.75097656 194.19189453 C-7.33709187 223.32603494 -41.44213912 242.61249112 -78.45458984 247.01367188 C-116.85764854 250.81248584 -155.69662667 241.32842951 -185.9375 216.84375 C-187.61176681 215.41510916 -189.27910303 213.97828265 -190.9375 212.53125 C-191.66453125 211.92539062 -192.3915625 211.31953125 -193.140625 210.6953125 C-197.90221035 206.67886073 -202.00167563 202.35424789 -205.9375 197.53125 C-207.09765625 196.12746094 -207.09765625 196.12746094 -208.28125 194.6953125 C-232.71191279 164.47392492 -241.6514991 127.12762584 -238.73095703 88.82226562 C-238.17265526 83.63396407 -237.18982823 78.59387762 -235.9375 73.53125 C-235.74414062 72.74379395 -235.55078125 71.95633789 -235.3515625 71.14501953 C-229.54562854 48.346873 -219.11008549 29.42639289 -203.9375 11.53125 C-203.40253906 10.87253906 -202.86757812 10.21382812 -202.31640625 9.53515625 C-179.99227849 -17.62889081 -143.8735562 -32.73160812 -109.62695312 -36.24169922 C-68.62251101 -39.70340321 -31.15563075 -26.18398754 0 0 Z M-192.50732422 22.91894531 C-215.76652483 49.1401404 -224.51179152 83.12254147 -222.9375 117.53125 C-222.43629481 123.31024675 -221.35029004 128.91095517 -219.9375 134.53125 C-219.69604248 135.50336426 -219.69604248 135.50336426 -219.44970703 136.49511719 C-213.76360078 158.48576441 -202.56154798 177.18918511 -186.9375 193.53125 C-186.339375 194.19253906 -185.74125 194.85382813 -185.125 195.53515625 C-165.28998954 216.6953506 -133.87837326 230.53185294 -104.9375 231.53125 C-103.63941406 231.5828125 -102.34132813 231.634375 -101.00390625 231.6875 C-67.18945671 232.59046757 -35.02298101 220.9821498 -10.29296875 197.78515625 C-9.51566406 197.04136719 -8.73835937 196.29757812 -7.9375 195.53125 C-7.12925781 194.79777344 -6.32101562 194.06429687 -5.48828125 193.30859375 C16.18401929 172.92914631 29.27666706 141.83944737 30.34375 112.28125 C31.09509543 76.55060058 19.9934582 44.56835993 -4.9375 18.53125 C-6.03964844 17.31695312 -6.03964844 17.31695312 -7.1640625 16.078125 C-28.6267038 -6.74836307 -60.45917744 -19.1870535 -91.37109375 -20.62890625 C-130.51214189 -21.53549649 -165.98821426 -5.72624308 -192.50732422 22.91894531 Z " fill="#000000" transform="translate(299.9375,98.46875)"/>
<path d="M0 0 C0.91252533 -0.00852997 1.82505066 -0.01705994 2.76522827 -0.02584839 C3.75908035 -0.02494202 4.75293243 -0.02403564 5.77690125 -0.02310181 C7.35562012 -0.03317764 7.35562012 -0.03317764 8.9662323 -0.04345703 C12.44963793 -0.0624729 15.93285122 -0.06636317 19.41630554 -0.06851196 C21.83762695 -0.07493777 24.25894757 -0.08166597 26.68026733 -0.08868408 C31.75855815 -0.10066611 36.83678089 -0.10436399 41.91508484 -0.10317993 C48.41851935 -0.10297678 54.92151668 -0.13027128 61.4248476 -0.16472435 C66.42718506 -0.18697627 71.42941706 -0.19101797 76.43179893 -0.18996048 C78.82915439 -0.1923193 81.22651263 -0.20115855 83.62381935 -0.21662521 C86.9798442 -0.23624821 90.33492326 -0.23046065 93.69096375 -0.21841431 C94.67874313 -0.22965332 95.66652252 -0.24089233 96.68423462 -0.25247192 C102.81111363 -0.196664 106.40989586 0.69288876 111.42802429 4.26742554 C117.46165485 10.46412719 117.72655006 17.07871928 117.71855164 25.27670288 C117.72526886 26.26934647 117.73198608 27.26199005 117.73890686 28.28471375 C117.75786418 31.55764812 117.76180983 34.83037721 117.76396179 38.10336304 C117.77039089 40.38490889 117.77711934 42.66645392 117.78413391 44.94799805 C117.79610073 49.7276704 117.7998153 54.50727051 117.79862976 59.28695679 C117.79842652 65.40237948 117.82573719 71.51733774 117.86017418 77.63265038 C117.88244325 82.34421912 117.8864673 87.05567605 117.88541031 91.76729202 C117.88776592 94.02147651 117.89658712 96.27566409 117.91207504 98.5297966 C117.93173605 101.68664579 117.92589613 104.84249278 117.91386414 107.99935913 C117.92510315 108.92429672 117.93634216 109.84923431 117.94792175 110.80220032 C117.88435665 117.38668286 116.59470674 122.93311573 111.94530296 127.82863426 C108.06675996 131.20759171 105.02596217 132.38734771 99.9763031 132.41459656 C98.6095771 132.42532951 98.6095771 132.42532951 97.21524048 132.4362793 C96.21779312 132.4389682 95.22034576 132.4416571 94.19267273 132.44442749 C93.14033951 132.45099869 92.08800629 132.45756989 91.00378418 132.46434021 C87.51498852 132.48407988 84.02623591 132.49573726 80.53739929 132.50570679 C79.34633827 132.50978231 78.15527725 132.51385784 76.92812347 132.51805687 C70.62421847 132.5389203 64.32033526 132.55322095 58.0164032 132.56259155 C51.50511905 132.5736574 44.99417652 132.60805901 38.48301315 132.64776325 C33.47639836 132.67390737 28.46986523 132.68228145 23.46318817 132.68587303 C21.06303347 132.69074453 18.66288256 132.70237446 16.26279449 132.72091103 C12.90190552 132.74525491 9.54190411 132.74434567 6.18095398 132.73739624 C4.69692833 132.75661133 4.69692833 132.75661133 3.18292236 132.7762146 C-4.14874207 132.7210237 -8.57477341 131.26462784 -13.88447571 125.95492554 C-17.77524433 119.75851624 -17.86628719 113.54198117 -17.84663391 106.43588257 C-17.85174484 105.47395996 -17.85685577 104.51203735 -17.86212158 103.52096558 C-17.87596923 100.35565896 -17.87506437 97.19057127 -17.87275696 94.02523804 C-17.87664664 91.81477783 -17.88098187 89.60431837 -17.88574219 87.39385986 C-17.89319411 82.76559016 -17.89292063 78.13739675 -17.88764954 73.50912476 C-17.88185751 67.59231669 -17.89878469 61.67582192 -17.92199421 55.75906563 C-17.93676093 51.19500924 -17.93759922 46.63102779 -17.93448448 42.06695175 C-17.93499625 39.88617203 -17.94020679 37.70538795 -17.9502964 35.5246315 C-17.96269982 32.46880268 -17.95584543 29.41357749 -17.94429016 26.35775757 C-17.9519339 25.46603851 -17.95957764 24.57431946 -17.967453 23.65557861 C-17.91617616 17.48807454 -17.40217576 10.53213915 -13.1908617 5.67427254 C-9.07678299 2.12068789 -5.43214649 0.02301681 0 0 Z M-0.57197571 16.26742554 C-0.57197571 49.26742554 -0.57197571 82.26742554 -0.57197571 116.26742554 C32.75802429 116.26742554 66.08802429 116.26742554 100.42802429 116.26742554 C102.12675949 112.86995514 101.56594457 108.99694615 101.55741882 105.25961304 C101.55917114 104.3261908 101.56092346 103.39276855 101.56272888 102.43106079 C101.56714272 99.33483032 101.56421103 96.23865662 101.56083679 93.14242554 C101.56150997 90.99773141 101.5624801 88.85303737 101.56373596 86.70834351 C101.5652123 82.20914993 101.56306042 77.70997619 101.55839539 73.21078491 C101.55269814 67.43337425 101.55597749 61.65601003 101.56196785 55.87860107 C101.56557518 51.44865568 101.56443408 47.01872136 101.56184006 42.58877563 C101.56117126 40.45803827 101.56199756 38.32729992 101.56431961 36.19656372 C101.56684892 33.22276125 101.56300155 30.24903482 101.55741882 27.27523804 C101.56045517 25.94423065 101.56045517 25.94423065 101.56355286 24.58633423 C101.67669471 20.29135609 101.67669471 20.29135609 100.42802429 16.26742554 C92.50802429 16.26742554 84.58802429 16.26742554 76.42802429 16.26742554 C76.39064148 18.9293396 76.35325867 21.59125366 76.31474304 24.33383179 C76.26845363 26.9287205 76.21724705 29.52346919 76.16557312 32.11825562 C76.13244016 33.91341553 76.10437242 35.70867671 76.08158875 37.5039978 C76.04782765 40.09354565 75.99550304 42.68217525 75.93974304 45.27133179 C75.93335312 46.0664064 75.9269632 46.86148102 75.92037964 47.6806488 C75.78447175 52.9006388 75.10497464 56.72806385 72.42802429 61.26742554 C67.98349542 64.4033743 64.15010798 64.65213836 58.79911804 64.66586304 C58.08699661 64.66873322 57.37487518 64.67160339 56.64117432 64.67456055 C55.14441629 64.67659127 53.64763112 64.67113111 52.15092468 64.65853882 C49.86833636 64.64244536 47.58751189 64.65843177 45.30497742 64.67758179 C43.84468708 64.67559964 42.38439783 64.67175656 40.92411804 64.66586304 C39.60597107 64.66247925 38.2878241 64.65909546 36.92973328 64.65560913 C32.38027727 64.15127705 29.77442999 62.71000307 26.67802429 59.39242554 C23.90336533 54.6755053 24.22864754 49.23760767 24.11161804 43.90414429 C24.09083694 43.11216141 24.07005585 42.32017853 24.04864502 41.50419617 C23.98354625 38.98785625 23.92445007 36.47141682 23.86552429 33.95492554 C23.82230129 32.24332693 23.77868581 30.53173818 23.73466492 28.82015991 C23.62717114 24.63601539 23.52780365 20.45178952 23.42802429 16.26742554 C15.50802429 16.26742554 7.58802429 16.26742554 -0.57197571 16.26742554 Z M40.42802429 16.26742554 C40.42802429 27.15742554 40.42802429 38.04742554 40.42802429 49.26742554 C47.02802429 49.26742554 53.62802429 49.26742554 60.42802429 49.26742554 C60.42802429 38.37742554 60.42802429 27.48742554 60.42802429 16.26742554 C53.82802429 16.26742554 47.22802429 16.26742554 40.42802429 16.26742554 Z " fill="#000000" transform="translate(153.5719757080078,137.73257446289063)"/>
</svg>
